<svg width="32" height="32" viewBox="0 0 32 32" fill="none" xmlns="http://www.w3.org/2000/svg">
<path d="M5 5.34058e-05H32V24.3914L27 32.0001H0V6.00005L5 5.34058e-05Z" fill="white"/>
<path fill-rule="evenodd" clip-rule="evenodd" d="M8.0955 15.0893C12.3896 13.2245 15.2482 11.9853 16.6837 11.3842C20.7692 9.67879 21.628 9.38434 22.1801 9.37207C22.3028 9.37207 22.5727 9.39661 22.7567 9.54383C22.904 9.66652 22.9408 9.82602 22.9653 9.94871C22.9898 10.0714 23.0144 10.329 22.9898 10.5253C22.769 12.8564 21.812 18.5123 21.3213 21.1133C21.1127 22.2175 20.7078 22.5856 20.3152 22.6224C19.4564 22.696 18.8062 22.058 17.9842 21.5182C16.6837 20.6716 15.9598 20.1441 14.6961 19.3098C13.2361 18.3528 14.1808 17.8253 15.0151 16.9665C15.2359 16.7456 19.0025 13.3104 19.0761 13.0036C19.0884 12.9668 19.0884 12.8196 19.0025 12.746C18.9166 12.6724 18.7939 12.6969 18.6958 12.7215C18.5608 12.746 16.4996 14.1201 12.4877 16.8315C11.8988 17.2364 11.3713 17.4327 10.8928 17.4204C10.3652 17.4081 9.35919 17.126 8.59852 16.8806C7.67836 16.5861 6.94223 16.4266 7.00357 15.9113C7.04038 15.6414 7.40845 15.3715 8.0955 15.0893Z" fill="#1B1B1B"/>
</svg>
