<svg width="32" height="32" viewBox="0 0 32 32" fill="none" xmlns="http://www.w3.org/2000/svg">
<path d="M5 5.34058e-05H32V24.3914L27 32.0001H0V6.00005L5 5.34058e-05Z" fill="white"/>
<path fill-rule="evenodd" clip-rule="evenodd" d="M21.7812 13.0277C21.7879 13.1616 21.7912 13.2988 21.7912 13.436C21.7912 17.616 18.6153 22.4386 12.8078 22.4386C11.0245 22.4386 9.36469 21.9132 7.96875 21.0163C8.21254 21.0464 8.46635 21.0598 8.72015 21.0598C10.1996 21.0598 11.5621 20.5544 12.6408 19.7077C11.2616 19.6809 10.0927 18.7673 9.69197 17.5089C9.88566 17.5458 10.0827 17.5658 10.2864 17.5658C10.5736 17.5658 10.8541 17.529 11.118 17.4554C9.67527 17.1642 8.58657 15.8858 8.58657 14.353C8.58657 14.3396 8.58657 14.3262 8.58657 14.3129C9.01069 14.5505 9.49827 14.691 10.0159 14.7078C9.16765 14.1422 8.60995 13.175 8.60995 12.0739C8.60995 11.4949 8.76691 10.9528 9.03741 10.4842C10.597 12.3986 12.9213 13.6603 15.5462 13.7908C15.4928 13.5599 15.4661 13.3189 15.4661 13.0712C15.4661 11.3209 16.8787 9.90527 18.622 9.90527C19.5303 9.90527 20.3485 10.2901 20.9263 10.9059C21.6443 10.762 22.3222 10.501 22.93 10.1362C22.6962 10.8758 22.1953 11.4949 21.5441 11.8865C22.1819 11.8129 22.7897 11.6422 23.3575 11.3912C22.9333 12.0237 22.399 12.5826 21.7812 13.0277Z" fill="#1B1B1B"/>
</svg>
