<svg width="32" height="32" viewBox="0 0 32 32" fill="none" xmlns="http://www.w3.org/2000/svg">
<path d="M5 5.34058e-05H32V24.3914L27 32.0001H0V6.00005L5 5.34058e-05Z" fill="white"/>
<path d="M16.7145 20.9916C11.2479 20.9916 8.12992 17.2439 8 11.0078H10.7383C10.8282 15.585 12.8469 17.5237 14.4459 17.9235V11.0078H17.0244V14.9553C18.6034 14.7855 20.2622 12.9866 20.8218 11.0078H23.4003C22.9705 13.4463 21.1717 15.2452 19.8925 15.9847C21.1717 16.5843 23.2205 18.1533 24 20.9916H21.1617C20.5521 19.0928 19.0332 17.6237 17.0244 17.4238V20.9916H16.7145Z" fill="#1B1B1B"/>
</svg>
