<svg width="88" height="110" viewBox="0 0 88 110" fill="none" xmlns="http://www.w3.org/2000/svg">
<path fill-rule="evenodd" clip-rule="evenodd" d="M29.4304 107.411C15.3372 62.0343 22.6059 33.6351 51.2366 22.2134L51.4219 39.5051H53.6481V107.411C42.9202 107.411 34.8476 107.411 29.4304 107.411Z" stroke="white"/>
<path fill-rule="evenodd" clip-rule="evenodd" d="M36.4917 36.4174C38.2196 33.6827 41.4679 30.948 46.2366 28.2134V36.4174C45.1572 36.4174 41.9089 36.4174 36.4917 36.4174Z" stroke="white"/>
<path d="M57.1655 21.4111H55.1655V107.411H57.1655V21.4111Z" stroke="white"/>
<path d="M34.8774 39.5054C32.9547 39.5054 31.9934 39.5054 31.9934 39.5054C31.9934 39.5054 27.2428 53.6845 27.0548 69.9358C26.8505 87.5801 31.9934 107.411 31.9934 107.411" stroke="white"/>
<path d="M36.4916 40.6367C36.4916 40.6367 32.2427 53.6842 32.0546 69.9355C31.9194 81.616 34.1828 94.8201 35.6909 102.03" stroke="white"/>
<path d="M51.6631 27.8691L55.1655 24.9404" stroke="white"/>
<path d="M51.6631 31.8691L55.1655 28.9404" stroke="white"/>
<path d="M51.6631 35.8691L55.1655 32.9404" stroke="white"/>
<path d="M46.6021 39.4907L51.1996 39.5052" stroke="white"/>
<path d="M47.9937 41.5054H53.1996" stroke="white"/>
<path d="M50.9937 24.5054H55.1996" stroke="white"/>
<path d="M50.9937 28.5054H55.1996" stroke="white"/>
<path d="M56.9937 43.5054H61.0012C61.5999 43.5054 62.0852 43.9907 62.0852 44.5894C62.0852 45.1881 61.5999 45.6734 61.0012 45.6734H57.1659" stroke="white"/>
<path d="M50.9937 32.5054H55.1996" stroke="white"/>
<path d="M50.9937 36.5054H55.1996" stroke="white"/>
<path d="M47.9937 43.5054H53.1996" stroke="white"/>
<path d="M30.5732 45.5054H53.1993" stroke="white"/>
<path d="M29.521 50.5054H53.1993" stroke="white"/>
<path d="M28.521 55.5054H53.1993" stroke="white"/>
<path d="M27.521 60.5054H53.1993" stroke="white"/>
<path d="M27.521 65.5054H53.1993" stroke="white"/>
<path d="M27.521 70.5054H53.1993" stroke="white"/>
<path d="M27.521 75.5054H53.1993" stroke="white"/>
<path d="M27.521 80.5054H53.1993" stroke="white"/>
<path d="M27.9937 85.5054H53.1996" stroke="white"/>
<path d="M28.521 90.5054H53.1993" stroke="white"/>
<path d="M29.521 95.5054H53.1993" stroke="white"/>
<path d="M30.521 100.505H53.1993" stroke="white"/>
<path d="M47.9937 48.0703H53.1996" stroke="white"/>
<path d="M47.9937 53.0073H53.1996" stroke="white"/>
<path d="M47.9937 58.0332H53.1996" stroke="white"/>
<path d="M47.9937 63.0298H53.1996" stroke="white"/>
<path d="M47.9937 68.0298H53.1996" stroke="white"/>
<path d="M47.9937 73.0298H53.1996" stroke="white"/>
<path d="M47.9937 78.0298H53.1996" stroke="white"/>
<path d="M47.9937 83.0298H53.1996" stroke="white"/>
<path d="M47.9937 88.0298H53.1996" stroke="white"/>
<path d="M47.9937 93.0298H53.1996" stroke="white"/>
<path d="M47.9937 98.0298H53.1996" stroke="white"/>
<path d="M48.7056 103.491H53.1996" stroke="white"/>
<path d="M23.8403 107.411H61.2676" stroke="white"/>
<path d="M18.8403 109.411H66.1598" stroke="white"/>
<path d="M62.8403 37.4111H80.1598" stroke="white"/>
<path d="M59.8403 60.4111H87.1598" stroke="white"/>
<path d="M64.8403 57.4111H72.1598" stroke="white"/>
<path d="M7.84033 68.4111H15.1598" stroke="white"/>
<path d="M0.840332 65.4111H18.1598" stroke="white"/>
<path d="M64.8403 63.4111H82.1598" stroke="white"/>
<path d="M48.7056 107.411V103.491" stroke="white"/>
<path d="M44.7056 107.411V103.491" stroke="white"/>
<path d="M39.7056 107.411V103.491" stroke="white"/>
<path d="M47.7056 102.03V39.4907" stroke="white"/>
<path d="M45.9216 97.0499L45.8496 83.5054" stroke="white"/>
<path d="M35.7056 107.411V103.491" stroke="white"/>
<path fill-rule="evenodd" clip-rule="evenodd" d="M32.9937 102.03H50.9937V103.491H32.9937V102.03Z" stroke="white"/>
<path fill-rule="evenodd" clip-rule="evenodd" d="M33.9946 36.4175H47.5718V37.8784H33.9946V36.4175Z" stroke="white"/>
<path d="M30.9937 41.5054H36.1996" stroke="white"/>
<path d="M30.9937 43.5054H35.5605" stroke="white"/>
<path d="M37.375 45.6734L38.7565 41.5054" stroke="white"/>
<path d="M43.7563 45.6734L42.3748 41.5054" stroke="white"/>
<path fill-rule="evenodd" clip-rule="evenodd" d="M40.656 42.7842C42.0542 41.7124 43.3081 41.0249 44.6418 40.5313C45.6083 40.1724 46.3403 39.7283 46.8245 39.1813C47.1569 38.8058 47.3653 38.3824 47.4499 37.911H34.1348C34.214 38.4072 34.4155 38.8513 34.7416 39.2426C35.203 39.7963 35.9008 40.2426 36.8205 40.5983C38.0128 41.056 39.1381 41.6717 40.1683 42.4266L40.656 42.7842Z" stroke="white"/>
<path d="M29.9937 48.0703H34.1996" stroke="white"/>
<path d="M28.9937 53.0073H33.1996" stroke="white"/>
<path d="M27.9937 58.0332H33.1996" stroke="white"/>
<path d="M26.9937 63.0298H32.1996" stroke="white"/>
<path d="M26.9937 68.0298H32.1996" stroke="white"/>
<path d="M26.9937 73.0298H32.1996" stroke="white"/>
<path d="M26.9937 78.0298H32.1996" stroke="white"/>
<path d="M27.9937 83.0298H33.1996" stroke="white"/>
<path d="M27.9937 88.0298H33.1996" stroke="white"/>
<path d="M28.9937 93.0298H34.1996" stroke="white"/>
<path d="M29.9937 98.0298H35.1996" stroke="white"/>
<path d="M30.8872 103.491H36.0932" stroke="white"/>
<path d="M51.2368 22.2136V12.5591L53.1995 16.4112V24.4172" stroke="white"/>
<path d="M18.4884 52.9203L19.1955 52.2132C7.47976 40.4975 7.47976 21.5025 19.1955 9.7868C30.9112 -1.92893 49.9062 -1.92893 61.6219 9.7868C67.913 16.0779 71.0013 24.6735 70.3153 33.3729L71.3122 33.4513C72.0005 24.7219 69.0061 15.7568 62.329 9.07969C50.2227 -3.02656 30.5946 -3.02656 18.4884 9.07969C6.38213 21.1859 6.38213 40.8141 18.4884 52.9203Z" fill="white"/>
</svg>
