<svg width="204" height="180" viewBox="0 0 204 180" fill="none" xmlns="http://www.w3.org/2000/svg">
<path fill-rule="evenodd" clip-rule="evenodd" d="M9.77253 139.175H18.6797V145.484H0.123047V118.392H18.6797V124.701H9.77253V129.155H17.9375V134.722H9.77253V139.175ZM80.288 139.175H89.1952V145.484H70.6385V118.392H89.1952V124.701H80.288V129.155H88.4529V134.722H80.288V139.175ZM122.968 173.691H131.876V180H113.319V152.907H131.876V159.216H122.968V163.67H131.133V169.237H122.968V173.691ZM163.793 139.175H172.7V145.484H154.144V118.392H172.7V124.701H163.793V129.155H171.958V134.722H163.793V139.175ZM74.3498 152.907H83.9993V180H74.3498V152.907ZM95.1334 152.907L98.4736 158.578L101.814 152.907H111.092L103.113 166.454L111.092 180H101.814L98.4736 174.329L95.1334 180H85.855L93.8344 166.454L85.855 152.907H95.1334ZM29.4426 118.392L32.7828 124.062L36.123 118.392H45.4014L37.422 131.938L45.4014 145.484H36.123L32.7828 139.814L29.4426 145.484H20.1643L28.1437 131.938L20.1643 118.392H29.4426ZM101.071 131.938V145.484H93.2777V118.392H101.071L111.463 131.938V118.392H119.257V145.484H111.463L101.071 131.938ZM62.4736 152.907C67.3929 152.907 71.3808 156.895 71.3808 161.814C71.3808 166.734 67.3929 170.722 62.4736 170.722H58.3911V180H48.7416V152.907H62.4736ZM58.3911 165.155H60.2468C62.0915 165.155 63.587 163.659 63.587 161.814C63.587 160.003 62.1444 158.528 60.3452 158.476L60.2468 158.474H58.3911V165.155ZM136.329 180V152.907H145.979V173.691H154.144V180H136.329ZM66.9272 118.392V124.701H61.3602V145.484H51.7107V124.701H46.1437V118.392H66.9272ZM137.257 118.392C144.739 118.392 150.803 124.457 150.803 131.938C150.803 139.42 144.739 145.484 137.257 145.484H124.082V118.392H137.257ZM134.959 125.443H132.618V138.433H134.959C138.546 138.433 141.454 135.525 141.454 131.938C141.454 128.351 138.546 125.443 134.959 125.443ZM190.329 118.392C197.811 118.392 203.876 124.457 203.876 131.938C203.876 139.42 197.811 145.484 190.329 145.484H177.154V118.392H190.329ZM188.031 125.443H185.69V138.433H188.031C191.618 138.433 194.526 135.525 194.526 131.938C194.526 128.351 191.618 125.443 188.031 125.443Z" fill="#4892E9"/>
<path fill-rule="evenodd" clip-rule="evenodd" d="M150.882 41.9229C151.319 44.5849 151.546 47.3174 151.546 50.1031C151.546 50.5633 151.54 51.0221 151.527 51.4794C150.43 53.7762 148.276 56.236 145.229 58.6568L145.015 58.8256L144.637 59.1183L144.25 59.4105C143.907 59.666 143.555 59.9207 143.193 60.1746L142.828 60.4281L142.295 60.7892L142.187 60.8612L141.75 61.1487L141.528 61.292L141.078 61.5779L140.85 61.7204L140.62 61.8626L140.155 62.146L139.681 62.4281C139.522 62.5219 139.361 62.6155 139.199 62.7088C131.691 67.0365 122.456 70.1614 115.956 70.7111L115.7 70.7315L115.152 70.7715L114.616 70.8084L114.089 70.8424L113.57 70.8735L113.059 70.9017L112.553 70.9271L111.801 70.9601L111.302 70.9788L110.803 70.9949L110.177 71.0114L109.292 71.028L108.519 71.0365L107.728 71.0399L106.914 71.0384L106.355 71.0347L105.49 71.0254L104.588 71.0117L103.319 70.9869L101.165 70.9355L99.0194 70.8884L97.8449 70.8709L97.0496 70.8658L96.216 70.869L95.6077 70.8779L95.1584 70.888L94.6593 70.9021C91.1329 71.0112 87.9598 71.4087 84.5375 72.2354C78.0677 73.7985 72.4 78.1269 67.4029 84.3921L67.0339 84.8597C66.7888 85.1737 66.5453 85.4925 66.3034 85.8158C64.0667 83.6167 62.0363 81.208 60.2431 78.6223C61.3951 77.495 62.5571 76.405 63.7655 75.3239C69.9312 69.8077 75.806 65.9712 81.0433 64.4182C81.7156 64.2188 82.3725 64.0591 83.0131 63.9395L83.2867 63.8907L83.9072 63.7867L84.5135 63.6884L84.8117 63.6414L85.3991 63.5514L85.9755 63.4669L86.2601 63.4265L86.9621 63.3314L87.6527 63.2441L88.1988 63.1798L88.7406 63.1202L89.2794 63.0652L89.8167 63.0147L90.3537 62.9686L90.6225 62.9471L90.8917 62.9267L91.5678 62.88L92.2502 62.8395L92.8024 62.8113L93.3616 62.7868L93.9292 62.7658L94.5065 62.7482L95.0949 62.7338L95.6956 62.7226L96.3101 62.7143L96.9395 62.709L97.5853 62.7064L98.2488 62.7063L98.9314 62.7088L99.6342 62.7136L100.359 62.7207L102.104 62.7428L103.691 62.7585L104.872 62.7644L105.713 62.7645L106.52 62.7608L107.297 62.7529L107.801 62.7452L108.294 62.7354L108.778 62.7235L109.254 62.7094L109.723 62.6931L110.417 62.6642L111.103 62.6297L111.557 62.6035L112.011 62.5747L112.465 62.5432L113.149 62.4907L113.609 62.4521L114.074 62.4104L114.545 62.3658L115.265 62.2929L116.005 62.2127L116.511 62.1551C123.942 61.2936 133.025 57.5873 140.374 52.3162L140.664 52.1073L140.925 51.9159C144.943 48.9577 148.283 45.652 150.769 42.0858L150.882 41.9229ZM142.271 21.0548C144.116 23.6431 145.72 26.4142 147.053 29.3357C146.394 33.888 143.529 38.4556 138.92 42.5693L138.706 42.7589L138.322 43.092C137.482 43.8117 136.588 44.5165 135.643 45.204C129.391 49.7509 121.542 52.9786 115.528 53.6758C114.443 53.8015 113.445 53.9019 112.47 53.9808L112.105 54.0093L111.696 54.0391L111.124 54.0766L110.55 54.1096L109.972 54.1381L109.385 54.1624L108.787 54.1826L108.381 54.1939L107.968 54.2035L107.117 54.2179L106.454 54.2246L105.765 54.2281L104.803 54.228L104.044 54.2246L102.419 54.2098L100.82 54.1894L100.037 54.1809L98.9036 54.1725L98.1738 54.1702L97.1141 54.1718L96.4291 54.1765L95.7596 54.1843L95.1044 54.1953L94.4619 54.2097L94.145 54.2181L93.5191 54.2378L93.2098 54.249L92.9027 54.2612L92.2943 54.2884L91.9926 54.3035L91.2447 54.3457L90.5035 54.3945C90.1094 54.4223 89.7171 54.4531 89.3247 54.487L88.7357 54.5403L88.1452 54.5983L87.8489 54.6292L87.5518 54.6614L86.9541 54.7295L86.6532 54.7655L86.0465 54.8416L85.7404 54.8817L85.1217 54.966L84.8088 55.0103L84.175 55.1032L83.5294 55.202L82.8706 55.3067L82.1973 55.4177L81.8548 55.4755C80.7842 55.6577 79.7047 55.9117 78.6165 56.2343C71.9294 58.2173 65.0966 62.6794 58.074 68.9622C57.3272 69.6303 56.5987 70.2997 55.8813 70.976C54.556 68.0879 53.4972 65.0518 52.7364 61.8994L53.7583 61.1595L54.7083 60.4758L55.6065 59.8352L56.4628 59.2314L57.0834 58.7989L57.6899 58.3808L58.0885 58.1087L58.6809 57.7087L59.2702 57.3159L59.8606 56.9277L60.4563 56.5414L61.0612 56.1543L61.4717 55.8945L62.1014 55.5001C67.8911 51.8951 73.3138 49.2751 78.2879 47.8979C79.2323 47.6364 80.1531 47.4225 81.0487 47.2574L81.431 47.1896L81.9087 47.1095L82.3803 47.0327L82.8464 46.9592L83.3075 46.889L83.9914 46.7896L84.443 46.7272L84.8919 46.6679L85.5616 46.5844L86.0065 46.5325L86.451 46.4834L86.8956 46.437L87.5641 46.3726L88.0117 46.333L88.4618 46.296L88.9148 46.2615L89.3714 46.2294L89.8323 46.1998L90.5329 46.1598L91.2467 46.1248L91.7308 46.1043L92.2224 46.0859L92.9749 46.0621L93.4878 46.0487L94.0102 46.0373L94.5428 46.0277L95.3624 46.0168L96.2086 46.0097L97.0834 46.0063L97.9892 46.0063L98.9279 46.0097L100.234 46.019L103.742 46.0555L105.188 46.0648L106.124 46.0667L107.321 46.0619L108.11 46.0529L108.855 46.0388L109.707 46.0148L110.394 45.9885L110.812 45.9693C111.423 45.9394 112.029 45.9019 112.667 45.8558C113.854 45.7698 115.003 45.6548 116.132 45.5064L116.614 45.4408L117.033 45.3781C128.407 43.5687 138.504 33.4275 142.146 21.4721L142.271 21.0548ZM126.955 6.97286C129.851 8.68943 132.559 10.6893 135.041 12.9343L135.031 13.0477L135.001 13.5303C134.241 24.7281 125.08 35.6299 115.425 36.9879C114.474 37.1217 113.5 37.2275 112.487 37.3087L111.897 37.3529L111.143 37.4022L110.641 37.4304L110.021 37.4598L109.516 37.4794L108.866 37.4991L108.185 37.5137L107.312 37.5251L106.527 37.5296L105.502 37.5296L103.964 37.5209L100.263 37.4828L98.8848 37.4733L97.8927 37.47L96.9338 37.4703L96.0059 37.4744L95.1068 37.4824L94.2343 37.4948L93.386 37.5115L92.8329 37.5253L92.289 37.5411L91.4888 37.5691L90.9648 37.5906L90.1915 37.6273L89.6835 37.6548L89.1806 37.6849L88.6822 37.7175L88.1877 37.7528L87.6964 37.7908L87.2077 37.8315L86.7208 37.8751L86.2352 37.9217L85.9927 37.946L85.5076 37.997L85.265 38.0237L84.7791 38.0793L84.2918 38.1381L83.8024 38.2001L83.3103 38.2654L82.5655 38.3696L81.8109 38.4817L81.3012 38.5608L80.5252 38.6862L79.9991 38.7745C78.6909 38.9971 77.3611 39.2973 76.0102 39.6713C70.2465 41.2671 64.2635 44.1336 57.9824 48.0103L57.3631 48.3951L56.9172 48.675L56.2632 49.0897L55.6231 49.501L55.202 49.7746L54.5756 50.1862L54.1597 50.4626L53.5351 50.8823L53.1163 51.1667L52.4815 51.6022L51.8349 52.0511L51.3899 52.3628C51.3566 51.6137 51.3398 50.8604 51.3398 50.1031C51.3398 47.2427 51.5795 44.4383 52.0399 41.7089L55.9394 39.7581L56.3749 39.5417L57.6921 38.8956C59.4374 38.047 61.0758 37.2801 62.7226 36.5475C68.4659 33.9927 73.7463 32.1166 78.6538 31.0336C79.2925 30.8926 79.9218 30.766 80.5413 30.6541L81.0042 30.5729L81.6835 30.4591L82.3462 30.3517L82.9936 30.2505L83.6272 30.1556L84.2485 30.0666C84.4537 30.0379 84.6571 30.0102 84.8589 29.9834L85.1605 29.944L85.7573 29.8694L86.0529 29.8342L86.6394 29.7678L87.2207 29.7066L87.51 29.678L88.0865 29.6246L88.3741 29.5997L88.9489 29.5536L89.3804 29.5222L89.8129 29.4933L90.3923 29.4588L90.6835 29.4431L90.9759 29.4286L91.5654 29.4026L92.1621 29.3808L92.7674 29.3629L93.3829 29.3488L94.01 29.3384L94.6501 29.3315L95.3047 29.328L95.9753 29.3277L96.6632 29.3305L97.3699 29.3363L97.7308 29.3402L98.4684 29.3502L99.6175 29.37L100.867 29.395L103.127 29.4302L103.49 29.4332L103.847 29.4352L104.544 29.436L104.885 29.4348L105.221 29.4325L105.882 29.4244L106.528 29.4117L107.162 29.394C108.122 29.3631 109.05 29.3143 109.985 29.2443L110.548 29.1998L111.166 29.1453L111.477 29.1156C121.087 28.1791 126.206 22.5723 127.001 9.29519L127.027 8.82645L127.033 8.62115V8.39584L127.027 8.15016L127.021 7.97485L127.007 7.69433L126.988 7.3924L126.955 6.97286ZM101.443 0C107.178 0 112.687 0.963479 117.819 2.7374L117.856 2.99042L118.019 4.1294L118.158 5.14848L118.274 6.04301L118.377 6.90681L118.426 7.35787L118.469 7.80611L118.487 8.0472L118.496 8.19708L118.501 8.35498V8.41571L118.486 8.68672C118.477 8.8492 118.467 9.00967 118.456 9.16813L118.439 9.40433L118.403 9.86778L118.363 10.3194L118.341 10.5408L118.318 10.7592L118.27 11.1874C118.218 11.6264 118.16 12.0466 118.095 12.4487L118.029 12.8447C117.538 15.6398 116.741 17.5099 115.721 18.6462C114.709 19.7739 113.294 20.3419 110.827 20.6018L110.386 20.6449L109.863 20.6912L109.602 20.7124L109.342 20.7324L108.821 20.7687L108.56 20.785L108.299 20.8002L107.773 20.8271L107.374 20.8444L106.972 20.8592L106.426 20.8752L105.869 20.8871L105.586 20.8916L105.299 20.8951L104.713 20.8993L104.108 20.8998L103.484 20.8969L102.837 20.8905L102.222 20.8819L98.9457 20.8206L97.7572 20.8039L96.9913 20.7965L96.245 20.7923L95.5166 20.7913L94.8048 20.7938L94.4546 20.7964L94.108 20.7999L93.4247 20.8098L93.0876 20.8162L92.4218 20.832L91.7659 20.852L91.2795 20.8697L90.7971 20.89L90.1592 20.921C89.3121 20.9654 88.4773 21.0223 87.6391 21.0933L87.0095 21.1492L86.377 21.2106L86.0593 21.2433L85.4199 21.3132C84.8204 21.3811 84.2123 21.4566 83.5903 21.5402L83.1211 21.6045L82.2686 21.7272L81.3949 21.86L81.0389 21.9161L80.3144 22.0335L79.5724 22.1578C78.6649 22.3122 77.7455 22.4925 76.8142 22.6981C71.2688 23.9219 65.4776 25.9795 59.2532 28.7483C57.9378 29.3334 56.633 29.9367 55.2864 30.5795C62.897 12.6082 80.6976 0 101.443 0Z" fill="white"/>
<path fill-rule="evenodd" clip-rule="evenodd" d="M148.721 66.7268C141.865 86.2271 123.286 100.206 101.442 100.206C90.8297 100.206 80.988 96.9069 72.8867 91.278L73.1167 90.9684C73.8805 89.9507 74.6568 88.9947 75.4441 88.1048L75.7398 87.7743L76.0736 87.4099C79.4186 83.8056 82.9492 81.4007 86.5412 80.5329C89.3646 79.8508 91.9586 79.5259 94.9225 79.4341C95.1392 79.4274 95.3486 79.4218 95.5559 79.4172L96.0523 79.4082L96.6082 79.403L97.0946 79.4025L97.8361 79.4078L99.2194 79.4301L102.821 79.5142L104.173 79.5419L105.135 79.5576L106.058 79.5687L106.655 79.5735L107.239 79.5761L108.092 79.5757L108.65 79.5725L109.199 79.5668L109.742 79.5587L110.549 79.5417L111.083 79.5271L111.883 79.5001L112.419 79.4786L112.957 79.4542L113.5 79.4268L114.049 79.3965L114.605 79.3631L115.458 79.307L116.338 79.2437C124.11 78.6612 134.54 75.1837 143.14 70.2885L143.461 70.1042L143.771 69.9247C144.847 69.2974 145.881 68.6559 146.872 68.001L147.294 67.7195L147.77 67.3958L148.238 67.07L148.489 66.8927L148.721 66.7268Z" fill="#4892E9"/>
</svg>
