<svg width="250" height="64" viewBox="0 0 250 64" fill="none" xmlns="http://www.w3.org/2000/svg">
<path fill-rule="evenodd" clip-rule="evenodd" d="M63.5756 26.7755C63.8548 28.4756 64 30.2208 64 32C64 32.2939 63.996 32.587 63.9882 32.879C63.2871 34.346 61.9116 35.917 59.9655 37.4631L59.8288 37.5709L59.5871 37.7579L59.3399 37.9445C59.1212 38.1076 58.8962 38.2704 58.6651 38.4325L58.4319 38.5944L58.0917 38.825L58.0227 38.871L57.7433 39.0546L57.6016 39.1462L57.3144 39.3288L57.1688 39.4198L57.022 39.5106L56.7245 39.6916L56.4219 39.8718C56.3201 39.9317 56.2176 39.9914 56.1142 40.051C51.3192 42.8151 45.4206 44.8109 41.269 45.162L41.106 45.175L40.756 45.2005L40.4132 45.2242L40.0767 45.2459L39.7457 45.2657L39.419 45.2837L39.0959 45.3L38.6155 45.321L38.2968 45.333L37.9781 45.3432L37.5785 45.3538L37.0131 45.3644L36.5195 45.3698L36.0142 45.372L35.494 45.371L35.1372 45.3687L34.5848 45.3627L34.0087 45.354L33.1983 45.3382L31.8225 45.3053L30.4521 45.2752L29.702 45.264L29.194 45.2608L28.6617 45.2629L28.2732 45.2685L27.9862 45.2749L27.6674 45.2839C25.4152 45.3537 23.3885 45.6075 21.2028 46.1356C17.0706 47.1339 13.4508 49.8983 10.2592 53.8998L10.0235 54.1984C9.86698 54.399 9.71145 54.6026 9.55695 54.8091C8.12844 53.4046 6.83167 51.8662 5.68636 50.2147C6.4221 49.4948 7.16426 48.7986 7.93604 48.1081C11.874 44.585 15.6261 42.1347 18.9711 41.1428C19.4005 41.0155 19.82 40.9135 20.2292 40.8371L20.4039 40.8059L20.8002 40.7395L21.1874 40.6767L21.3779 40.6467L21.753 40.5892L22.1212 40.5352L22.303 40.5095L22.7513 40.4487L23.1924 40.393L23.5412 40.3519L23.8872 40.3138L24.2314 40.2787L24.5745 40.2465L24.9175 40.217L25.0892 40.2033L25.2611 40.1902L25.6929 40.1604L26.1287 40.1345L26.4814 40.1165L26.8386 40.1009L27.2011 40.0875L27.5698 40.0762L27.9456 40.067L28.3293 40.0599L28.7217 40.0546L29.1237 40.0512L29.5362 40.0495L29.96 40.0495L30.3959 40.0511L30.8448 40.0541L31.3076 40.0587L32.4222 40.0728L33.4355 40.0828L34.1901 40.0865L34.7273 40.0867L35.2428 40.0843L35.7392 40.0792L36.0607 40.0743L36.3756 40.068L36.6847 40.0605L36.9888 40.0515L37.2885 40.041L37.7317 40.0225L38.1695 40.0005L38.4597 39.9838L38.7494 39.9654L39.0394 39.9453L39.4765 39.9117L39.7705 39.8871L40.0675 39.8605L40.3683 39.832L40.828 39.7854L41.3004 39.7342L41.6237 39.6974C46.37 39.1472 52.1707 36.7801 56.8649 33.4135L57.0496 33.2801L57.2167 33.1578C59.7825 31.2685 61.9162 29.1571 63.5037 26.8795L63.5756 26.7755ZM58.0761 13.4474C59.2543 15.1004 60.2793 16.8703 61.1303 18.7362C60.7096 21.6437 58.8798 24.5609 55.936 27.1883L55.7994 27.3094L55.5541 27.5222C55.0175 27.9818 54.4466 28.432 53.8429 28.871C49.8501 31.775 44.837 33.8365 40.9959 34.2818C40.3028 34.3621 39.6657 34.4263 39.0427 34.4766L38.8097 34.4948L38.5485 34.5138L38.1832 34.5378L37.8168 34.5589L37.4471 34.5771L37.0724 34.5926L36.6907 34.6055L36.4314 34.6127L36.1675 34.6189L35.624 34.6281L35.2002 34.6324L34.7604 34.6346L34.1459 34.6345L33.6614 34.6323L32.6234 34.6229L31.6022 34.6099L31.102 34.6044L30.3782 34.5991L29.912 34.5976L29.2353 34.5986L28.7978 34.6016L28.3702 34.6066L27.9517 34.6136L27.5413 34.6228L27.3389 34.6282L26.9392 34.6408L26.7417 34.6479L26.5455 34.6557L26.1569 34.6731L25.9643 34.6827L25.4866 34.7097L25.0131 34.7408C24.7615 34.7586 24.5109 34.7783 24.2603 34.7999L23.8841 34.8339L23.507 34.871L23.3177 34.8908L23.1279 34.9113L22.7462 34.9548L22.554 34.9778L22.1666 35.0264L21.9711 35.052L21.5759 35.1059L21.3761 35.1342L20.9712 35.1935L20.5589 35.2566L20.1382 35.3235L19.7082 35.3943L19.4894 35.4313C18.8056 35.5476 18.1161 35.7098 17.4212 35.9159C13.1502 37.1824 8.7862 40.0323 4.30096 44.045C3.82401 44.4717 3.35874 44.8992 2.90054 45.3312C2.05413 43.4866 1.37786 41.5475 0.891974 39.5341L1.5446 39.0616L2.15135 38.6249L2.72506 38.2157L3.27196 37.8301L3.66829 37.5538L4.05569 37.2868L4.31028 37.113L4.68861 36.8576L5.065 36.6067L5.44209 36.3588L5.82251 36.1121L6.20888 35.8648L6.47107 35.6989L6.8732 35.447C10.571 33.1445 14.0344 31.4712 17.2113 30.5916C17.8145 30.4246 18.4025 30.288 18.9745 30.1825L19.2187 30.1392L19.5238 30.088L19.825 30.039L20.1227 29.9921L20.4172 29.9472L20.854 29.8837L21.1424 29.8439L21.4291 29.806L21.8569 29.7527L22.141 29.7195L22.4249 29.6881L22.7088 29.6585L23.1358 29.6174L23.4217 29.5921L23.7092 29.5685L23.9985 29.5464L24.2901 29.526L24.5845 29.507L25.032 29.4815L25.4878 29.4592L25.797 29.446L26.111 29.4343L26.5916 29.4191L26.9192 29.4106L27.2528 29.4033L27.593 29.3971L28.1165 29.3901L28.6569 29.3856L29.2157 29.3834L29.7941 29.3835L30.3937 29.3856L31.2282 29.3916L33.4684 29.4149L34.3918 29.4208L34.9896 29.422L35.7544 29.419L36.2582 29.4132L36.7342 29.4042L37.2784 29.3889L37.7171 29.3721L37.9841 29.3598C38.374 29.3407 38.7614 29.3168 39.1685 29.2873C39.9267 29.2324 40.6607 29.1589 41.3814 29.0642L41.6895 29.0223L41.9569 28.9822C49.2216 27.8266 55.67 21.3496 57.9965 13.7139L58.0761 13.4474ZM48.2944 4.45345C50.1439 5.54979 51.8734 6.82709 53.4586 8.26094L53.452 8.33335L53.4331 8.64158C52.9473 15.7934 47.0968 22.7562 40.9301 23.6236C40.3229 23.709 39.7008 23.7766 39.0537 23.8284L38.677 23.8567L38.1955 23.8881L37.8746 23.9062L37.4787 23.9249L37.1563 23.9374L36.7409 23.95L36.3057 23.9594L35.7485 23.9666L35.2474 23.9695L34.5924 23.9695L33.6102 23.964L31.2465 23.9397L30.3661 23.9335L29.7325 23.9314L29.1201 23.9316L28.5275 23.9342L27.9532 23.9394L27.396 23.9473L26.8542 23.958L26.5009 23.9668L26.1535 23.9769L25.6425 23.9948L25.3078 24.0085L24.8139 24.0319L24.4894 24.0495L24.1682 24.0687L23.8499 24.0895L23.5341 24.1121L23.2203 24.1363L22.9082 24.1624L22.5972 24.1902L22.2871 24.2199L22.1322 24.2355L21.8224 24.2681L21.6674 24.2851L21.3571 24.3206L21.0459 24.3581L20.7333 24.3977L20.419 24.4395L19.9433 24.506L19.4613 24.5776L19.1358 24.6281L18.6402 24.7082L18.3042 24.7646C17.4686 24.9068 16.6193 25.0985 15.7565 25.3374C12.0754 26.3566 8.25415 28.1874 4.24251 30.6634L3.84694 30.9092L3.56215 31.0879L3.14443 31.3528L2.73563 31.6154L2.46669 31.7902L2.06664 32.0531L1.80099 32.2296L1.40206 32.4976L1.13462 32.6793L0.729181 32.9575L0.316174 33.2442L0.0319649 33.4432C0.01073 32.9648 0 32.4837 0 32C0 30.1731 0.15309 28.382 0.447142 26.6387L2.93769 25.3928L3.2158 25.2546L4.05706 24.842C5.1718 24.3 6.21818 23.8102 7.26999 23.3423C10.9381 21.7106 14.3106 20.5123 17.445 19.8206C17.8529 19.7306 18.2548 19.6497 18.6505 19.5783L18.9461 19.5264L19.38 19.4537L19.8032 19.3851L20.2167 19.3205L20.6214 19.2598L21.0182 19.203C21.1493 19.1847 21.2792 19.167 21.4081 19.1499L21.6007 19.1247L21.9818 19.0771L22.1706 19.0546L22.5452 19.0122L22.9165 18.9731L23.1013 18.9549L23.4694 18.9207L23.6531 18.9048L24.0203 18.8754L24.2959 18.8553L24.5721 18.8369L24.9421 18.8148L25.1281 18.8048L25.3149 18.7955L25.6914 18.779L26.0725 18.765L26.4591 18.7536L26.8522 18.7446L27.2527 18.7379L27.6616 18.7335L28.0796 18.7313L28.5079 18.7311L28.9472 18.7329L29.3986 18.7366L29.6291 18.7391L30.1002 18.7455L30.8341 18.7581L31.6322 18.7741L33.0759 18.7966L33.3074 18.7985L33.5352 18.7998L33.9805 18.8003L34.1983 18.7995L34.4132 18.798L34.835 18.7929L35.2475 18.7847L35.6524 18.7734C36.266 18.7537 36.8584 18.7225 37.4559 18.6779L37.8152 18.6494L38.2099 18.6146L38.4089 18.5957C44.5461 17.9975 47.8158 14.4165 48.3235 5.93668L48.3399 5.6373L48.344 5.50618V5.36228L48.3404 5.20537L48.3364 5.0934L48.3275 4.91424L48.3151 4.7214L48.2944 4.45345ZM32 0C35.6627 0 39.1817 0.615358 42.4592 1.74833L42.4828 1.90993L42.5865 2.63738L42.6755 3.28825L42.7494 3.85957L42.8156 4.41126L42.8468 4.69934L42.8741 4.98563L42.886 5.13961L42.8916 5.23534L42.8947 5.33618V5.37497L42.8851 5.54806C42.8791 5.65184 42.8727 5.75432 42.8658 5.85553L42.8552 6.00639L42.8321 6.30238L42.8064 6.59081L42.7925 6.7322L42.7781 6.87172L42.7473 7.1452C42.7141 7.42556 42.6768 7.69398 42.6356 7.95078L42.5932 8.20372C42.2799 9.9889 41.7704 11.1833 41.1191 11.909C40.4727 12.6293 39.5693 12.992 37.9937 13.158L37.7118 13.1855L37.3775 13.2151L37.211 13.2287L37.0448 13.2414L36.7124 13.2646L36.5458 13.275L36.3789 13.2847L36.0428 13.3019L35.7883 13.313L35.5311 13.3224L35.1827 13.3326L34.8271 13.3403L34.6461 13.3431L34.4627 13.3454L34.0883 13.348L33.7023 13.3484L33.3036 13.3465L32.8906 13.3424L32.4975 13.3369L30.405 13.2978L29.646 13.2871L29.1568 13.2824L28.6802 13.2797L28.215 13.2791L27.7603 13.2807L27.5367 13.2823L27.3153 13.2846L26.8789 13.2909L26.6636 13.295L26.2384 13.3051L25.8194 13.3178L25.5088 13.3291L25.2007 13.3421L24.7933 13.3619C24.2523 13.3902 23.7191 13.4266 23.1837 13.4719L22.7816 13.5076L22.3777 13.5468L22.1748 13.5678L21.7664 13.6124C21.3834 13.6557 20.9951 13.7039 20.5978 13.7574L20.2981 13.7985L19.7537 13.8768L19.1957 13.9616L18.9683 13.9975L18.5056 14.0724L18.0316 14.1518C17.4521 14.2504 16.8649 14.3656 16.2701 14.4969C12.7283 15.2785 9.02952 16.5926 5.05414 18.361C4.214 18.7348 3.38063 19.1201 2.52058 19.5306C7.38138 8.05264 18.7503 0 32 0Z" fill="white"/>
<path fill-rule="evenodd" clip-rule="evenodd" d="M62.1961 42.6172C57.8171 55.0717 45.951 63.9999 31.9995 63.9999C25.2216 63.9999 18.9359 61.8927 13.7617 58.2976L13.9086 58.0999C14.3964 57.4499 14.8923 56.8393 15.3951 56.271L15.5839 56.0598L15.7972 55.8271C17.9335 53.5251 20.1884 51.9891 22.4826 51.4349C24.2858 50.9992 25.9426 50.7917 27.8356 50.7331C27.974 50.7288 28.1077 50.7252 28.2401 50.7223L28.5572 50.7165L28.9122 50.7132L29.2229 50.7129L29.6965 50.7163L30.58 50.7305L32.8803 50.7843L33.7436 50.8019L34.358 50.812L34.9478 50.8191L35.329 50.8221L35.7017 50.8238L36.247 50.8235L36.6029 50.8215L36.9538 50.8179L37.3007 50.8127L37.8158 50.8019L38.157 50.7925L38.6682 50.7752L39.01 50.7615L39.3538 50.7459L39.7005 50.7285L40.0511 50.7091L40.4067 50.6877L40.9515 50.6519L41.513 50.6115C46.4769 50.2395 53.1386 48.0184 58.631 44.8919L58.8364 44.7743L59.0341 44.6596C59.7212 44.259 60.3822 43.8492 61.0151 43.431L61.2846 43.2512L61.5884 43.0445L61.8876 42.8364L62.0478 42.7231L62.1961 42.6172Z" fill="white"/>
<path fill-rule="evenodd" clip-rule="evenodd" d="M92.1409 23.8675H99.3698V28.988H84.3096V7H99.3698V12.1205H92.1409V15.7349H98.7674V20.253H92.1409V23.8675ZM149.37 23.8675H156.599V28.988H141.538V7H156.599V12.1205H149.37V15.7349H155.996V20.253H149.37V23.8675ZM144.241 51.8795H151.47V57H136.41V35.012H151.47V40.1325H144.241V43.747H150.867V48.2651H144.241V51.8795ZM217.141 23.8675H224.37V28.988H209.31V7H224.37V12.1205H217.141V15.7349H223.767V20.253H217.141V23.8675ZM104.783 35.012H112.614V57H104.783V35.012ZM121.651 35.012L124.361 39.6142L127.072 35.012H134.602L128.126 46.006L134.602 57H127.072L124.361 52.3979L121.651 57H114.12L120.596 46.006L114.12 35.012H121.651ZM108.105 7L110.816 11.6021L113.526 7H121.057L114.581 17.994L121.057 28.988H113.526L110.816 24.3858L108.105 28.988H100.575L107.051 17.994L100.575 7H108.105ZM166.237 17.994V28.988H159.912V7H166.237L174.671 17.994V7H180.996V28.988H174.671L166.237 17.994ZM95.1446 35.012C99.137 35.012 102.373 38.2485 102.373 42.241C102.373 46.2334 99.137 49.4699 95.1446 49.4699H91.8313V57H84V35.012H95.1446ZM91.8313 44.9518H93.3373C94.8345 44.9518 96.0482 43.7381 96.0482 42.241C96.0482 40.7705 94.8775 39.5736 93.4173 39.5313L93.3373 39.5301H91.8313V44.9518ZM155.084 57V35.012H162.916V51.8795H169.542V57H155.084ZM138.526 7V12.1205H134.008V28.988H126.177V12.1205H121.659V7H138.526ZM195.605 7C201.677 7 206.599 11.9222 206.599 17.994C206.599 24.0658 201.677 28.988 195.605 28.988H184.912V7H195.605ZM193.74 12.7229H191.84V23.2651H193.74C196.651 23.2651 199.011 20.9051 199.011 17.994C199.011 15.0828 196.651 12.7229 193.74 12.7229ZM238.677 7C244.749 7 249.671 11.9222 249.671 17.994C249.671 24.0658 244.749 28.988 238.677 28.988H227.984V7H238.677ZM236.812 12.7229H234.912V23.2651H236.812C239.723 23.2651 242.083 20.9051 242.083 17.994C242.083 15.0828 239.723 12.7229 236.812 12.7229Z" fill="white"/>
</svg>
