<svg width="41" height="40" viewBox="0 0 41 40" fill="none" xmlns="http://www.w3.org/2000/svg">
<path fill-rule="evenodd" clip-rule="evenodd" d="M40.2348 16.7347C40.4093 17.7972 40.5 18.888 40.5 20C40.5 20.1837 40.4975 20.3668 40.4926 20.5494C40.0545 21.4662 39.1948 22.4481 37.9784 23.4144L37.893 23.4818L37.7419 23.5987L37.5874 23.7153C37.4508 23.8173 37.3102 23.919 37.1657 24.0203L37.02 24.1215L36.8073 24.2656L36.7642 24.2944L36.5896 24.4091L36.501 24.4664L36.3215 24.5805L36.2305 24.6374L36.1387 24.6941L35.9528 24.8073L35.7637 24.9199C35.7001 24.9573 35.636 24.9947 35.5714 25.0319C32.5745 26.7594 28.8879 28.0068 26.2931 28.2262L26.1913 28.2344L25.9725 28.2503L25.7582 28.2651L25.548 28.2787L25.341 28.2911L25.1369 28.3023L24.9349 28.3125L24.6347 28.3257L24.4355 28.3331L24.2363 28.3395L23.9865 28.3461L23.6332 28.3528L23.3247 28.3562L23.0089 28.3575L22.6837 28.3569L22.4608 28.3554L22.1155 28.3517L21.7555 28.3462L21.2489 28.3363L20.389 28.3158L19.5326 28.297L19.0637 28.29L18.7463 28.288L18.4135 28.2893L18.1707 28.2928L17.9913 28.2968L17.7921 28.3025C16.3845 28.346 15.1178 28.5047 13.7517 28.8347C11.1691 29.4587 8.90674 31.1865 6.91199 33.6874L6.76472 33.874C6.66686 33.9994 6.56966 34.1266 6.47309 34.2557C5.58027 33.3779 4.76979 32.4164 4.05397 31.3842C4.51381 30.9342 4.97766 30.4991 5.46002 30.0676C7.92126 27.8656 10.2663 26.3342 12.3569 25.7143C12.6253 25.6347 12.8875 25.5709 13.1432 25.5232L13.2524 25.5037L13.5001 25.4622L13.7421 25.4229L13.8612 25.4042L14.0957 25.3683L14.3258 25.3345L14.4394 25.3184L14.7196 25.2804L14.9953 25.2456L15.2132 25.2199L15.4295 25.1961L15.6446 25.1742L15.8591 25.154L16.0734 25.1356L16.1807 25.127L16.2882 25.1189L16.5581 25.1002L16.8305 25.0841L17.0509 25.0728L17.2741 25.063L17.5007 25.0547L17.7312 25.0476L17.966 25.0419L18.2058 25.0374L18.4511 25.0341L18.7023 25.032L18.9601 25.0309L19.225 25.0309L19.4974 25.0319L19.778 25.0338L20.0672 25.0367L20.7639 25.0455L21.3972 25.0517L21.8688 25.0541L22.2046 25.0542L22.5268 25.0527L22.837 25.0495L23.0379 25.0464L23.2348 25.0425L23.428 25.0378L23.618 25.0322L23.8053 25.0256L24.0823 25.0141L24.356 25.0003L24.5373 24.9899L24.7184 24.9784L24.8996 24.9658L25.1728 24.9448L25.3566 24.9294L25.5422 24.9128L25.7302 24.895L26.0175 24.8659L26.3127 24.8339L26.5148 24.8109C29.4813 24.467 33.1067 22.9875 36.0406 20.8834L36.156 20.8L36.2604 20.7236C37.864 19.5428 39.1976 18.2232 40.1898 16.7997L40.2348 16.7347ZM36.7975 8.4046C37.5339 9.43777 38.1746 10.5439 38.7064 11.7101C38.4435 13.5273 37.2999 15.3506 35.46 16.9927L35.3746 17.0684L35.2213 17.2014C34.886 17.4886 34.5291 17.77 34.1518 18.0444C31.6563 19.8594 28.5231 21.1478 26.1224 21.4261C25.6892 21.4763 25.2911 21.5164 24.9017 21.5479L24.7561 21.5593L24.5928 21.5711L24.3645 21.5861L24.1355 21.5993L23.9045 21.6107L23.6703 21.6204L23.4317 21.6285L23.2696 21.633L23.1047 21.6368L22.765 21.6425L22.5001 21.6452L22.2253 21.6466L21.8412 21.6466L21.5384 21.6452L20.8896 21.6393L20.2514 21.6312L19.9387 21.6277L19.4864 21.6244L19.195 21.6235L18.772 21.6241L18.4986 21.626L18.2314 21.6291L17.9698 21.6335L17.7133 21.6392L17.5868 21.6426L17.337 21.6505L17.2135 21.655L17.0909 21.6598L16.8481 21.6707L16.7277 21.6767L16.4291 21.6935L16.1332 21.713C15.9759 21.7241 15.8193 21.7364 15.6627 21.75L15.4276 21.7712L15.1918 21.7944L15.0736 21.8067L14.955 21.8196L14.7164 21.8468L14.5963 21.8611L14.3541 21.8915L14.2319 21.9075L13.9849 21.9412L13.86 21.9588L13.607 21.9959L13.3493 22.0353L13.0864 22.0772L12.8176 22.1215L12.6809 22.1446C12.2535 22.2173 11.8226 22.3187 11.3882 22.4475C8.71886 23.239 5.99137 25.0202 3.1881 27.5281C2.89001 27.7948 2.59921 28.062 2.31283 28.332C1.78383 27.1791 1.36116 25.9672 1.05748 24.7088L1.46538 24.4135L1.84459 24.1405L2.20316 23.8848L2.54497 23.6438L2.79268 23.4711L3.0348 23.3043L3.19392 23.1957L3.43038 23.036L3.66563 22.8792L3.90131 22.7242L4.13907 22.57L4.38055 22.4155L4.54442 22.3118L4.79575 22.1544C7.10688 20.7153 9.2715 19.6695 11.257 19.1197C11.634 19.0154 12.0016 18.93 12.3591 18.8641L12.5117 18.837L12.7024 18.805L12.8906 18.7744L13.0767 18.745L13.2608 18.717L13.5337 18.6773L13.714 18.6524L13.8932 18.6287L14.1605 18.5954L14.3382 18.5747L14.5156 18.5551L14.693 18.5366L14.9599 18.5109L15.1386 18.4951L15.3182 18.4803L15.4991 18.4665L15.6813 18.4537L15.8653 18.4419L16.145 18.4259L16.4299 18.412L16.6231 18.4038L16.8194 18.3964L17.1198 18.3869L17.3245 18.3816L17.533 18.377L17.7456 18.3732L18.0728 18.3688L18.4106 18.366L18.7598 18.3646L19.1213 18.3647L19.496 18.366L20.0176 18.3697L21.4178 18.3843L21.9949 18.388L22.3685 18.3888L22.8465 18.3869L23.1614 18.3833L23.4589 18.3776L23.799 18.368L24.0732 18.3575L24.2401 18.3499C24.4838 18.3379 24.7259 18.323 24.9803 18.3046C25.4542 18.2703 25.9129 18.2243 26.3634 18.1651L26.5559 18.1389L26.7231 18.1139C31.2635 17.3916 35.2938 13.3435 36.7478 8.57119L36.7975 8.4046ZM30.684 2.7834C31.8399 3.46862 32.9209 4.26693 33.9117 5.16309L33.9075 5.20834L33.8957 5.40099C33.592 9.8709 29.9355 14.2226 26.0813 14.7647C25.7018 14.8181 25.313 14.8604 24.9086 14.8928L24.6731 14.9104L24.3722 14.9301L24.1716 14.9413L23.9242 14.9531L23.7227 14.9609L23.4631 14.9688L23.1911 14.9746L22.8428 14.9791L22.5296 14.981L22.1203 14.9809L21.5064 14.9775L20.029 14.9623L19.4788 14.9585L19.0828 14.9572L18.7001 14.9573L18.3297 14.9589L17.9708 14.9621L17.6225 14.967L17.2839 14.9737L17.0631 14.9792L16.846 14.9856L16.5265 14.9967L16.3174 15.0053L16.0087 15.02L15.8059 15.0309L15.6051 15.0429L15.4062 15.056L15.2088 15.07L15.0127 15.0852L14.8176 15.1015L14.6233 15.1189L14.4294 15.1375L14.3326 15.1472L14.139 15.1675L14.0421 15.1782L13.8482 15.2004L13.6537 15.2238L13.4583 15.2486L13.2619 15.2747L12.9646 15.3163L12.6633 15.361L12.4599 15.3926L12.1501 15.4427L11.9401 15.4779C11.4179 15.5667 10.8871 15.6866 10.3478 15.8359C8.0471 16.4729 5.65884 17.6171 3.15157 19.1646L2.90434 19.3182L2.72635 19.4299L2.46527 19.5955L2.20977 19.7597L2.04168 19.8689L1.79165 20.0332L1.62562 20.1435L1.37629 20.311L1.20914 20.4246L0.955738 20.5984L0.697609 20.7776L0.519978 20.902C0.506706 20.603 0.5 20.3023 0.5 20C0.5 18.8582 0.595681 17.7387 0.779464 16.6492L2.33606 15.8705L2.50988 15.7841L3.03566 15.5262C3.73237 15.1875 4.38636 14.8814 5.04374 14.5889C7.33632 13.5691 9.44415 12.8202 11.4031 12.3879C11.6581 12.3316 11.9092 12.2811 12.1566 12.2364L12.3413 12.204L12.6125 12.1586L12.877 12.1157L13.1354 12.0753L13.3884 12.0374L13.6364 12.0019C13.7183 11.9904 13.7995 11.9794 13.88 11.9687L14.0004 11.953L14.2387 11.9232L14.3566 11.9091L14.5908 11.8826L14.8228 11.8582L14.9383 11.8468L15.1684 11.8254L15.2832 11.8155L15.5127 11.7971L15.6849 11.7846L15.8576 11.773L16.0888 11.7593L16.2051 11.753L16.3218 11.7472L16.5571 11.7369L16.7953 11.7281L17.0369 11.721L17.2826 11.7154L17.533 11.7112L17.7885 11.7084L18.0498 11.707L18.3174 11.7069L18.592 11.7081L18.8741 11.7104L19.0182 11.7119L19.3127 11.7159L19.7713 11.7238L20.2701 11.7338L21.1724 11.7479L21.3171 11.7491L21.4595 11.7498L21.7378 11.7502L21.8739 11.7497L22.0082 11.7488L22.2719 11.7456L22.5297 11.7405L22.7828 11.7334C23.1662 11.7211 23.5365 11.7016 23.9099 11.6737L24.1345 11.6559L24.3812 11.6341L24.5056 11.6223C28.3413 11.2484 30.3848 9.01034 30.7022 3.71043L30.7125 3.52331L30.715 3.44136V3.35143L30.7128 3.25335L30.7102 3.18338L30.7047 3.0714L30.697 2.95088L30.684 2.7834ZM20.5 0C22.7892 0 24.9885 0.384599 27.037 1.09271L27.0518 1.19371L27.1166 1.64836L27.1722 2.05516L27.2184 2.41223L27.2597 2.75704L27.2793 2.93709L27.2963 3.11602L27.3038 3.21226L27.3073 3.27209L27.3092 3.33512V3.35936L27.3032 3.46754C27.2994 3.5324 27.2954 3.59645 27.2911 3.65971L27.2845 3.75399L27.27 3.93899L27.254 4.11925L27.2453 4.20762L27.2363 4.29483L27.2171 4.46575C27.1963 4.64098 27.173 4.80874 27.1473 4.96924L27.1208 5.12732C26.9249 6.24306 26.6065 6.98955 26.1995 7.44313C25.7955 7.8933 25.2308 8.12002 24.2461 8.22375L24.0699 8.24097L23.8609 8.25944L23.7569 8.26791L23.653 8.27589L23.4452 8.29038L23.3412 8.2969L23.2368 8.30297L23.0268 8.31371L22.8677 8.3206L22.7069 8.3265L22.4892 8.3329L22.2669 8.33767L22.1538 8.33945L22.0392 8.34085L21.8052 8.34252L21.564 8.34273L21.3147 8.34154L21.0566 8.33902L20.8109 8.33559L19.5031 8.3111L19.0287 8.30445L18.723 8.30149L18.4251 8.2998L18.1344 8.29942L17.8502 8.30042L17.7104 8.30145L17.572 8.30286L17.2993 8.3068L17.1647 8.30935L16.899 8.31566L16.6371 8.32362L16.443 8.33072L16.2504 8.3388L15.9958 8.35117C15.6577 8.36889 15.3244 8.3916 14.9898 8.41994L14.7385 8.44227L14.486 8.46677L14.3592 8.47985L14.104 8.50773C13.8647 8.53482 13.6219 8.56496 13.3736 8.59836L13.1863 8.62403L12.846 8.67298L12.4973 8.72603L12.3552 8.74842L12.066 8.79525L11.7698 8.84487C11.4076 8.9065 11.0405 8.9785 10.6688 9.06055C8.45519 9.54907 6.14345 10.3704 3.65884 11.4757C3.13375 11.7092 2.61289 11.95 2.07536 12.2066C5.11336 5.0329 12.2189 0 20.5 0Z" fill="white"/>
<path fill-rule="evenodd" clip-rule="evenodd" d="M39.3721 26.6358C36.6352 34.4199 29.2189 40 20.4992 40C16.263 40 12.3344 38.683 9.10059 36.436L9.19239 36.3125C9.49728 35.9062 9.80718 35.5246 10.1214 35.1694L10.2395 35.0375L10.3727 34.892C11.708 33.4532 13.1173 32.4933 14.5511 32.1469C15.6782 31.8746 16.7136 31.7449 17.8968 31.7083C17.9833 31.7056 18.0668 31.7033 18.1496 31.7015L18.3477 31.6979L18.5696 31.6958L18.7638 31.6956L19.0598 31.6977L19.612 31.7066L21.0497 31.7402L21.5893 31.7513L21.9733 31.7576L22.3419 31.762L22.5801 31.7639L22.8131 31.7649L23.1539 31.7648L23.3763 31.7635L23.5956 31.7612L23.8125 31.758L24.1344 31.7512L24.3476 31.7454L24.6672 31.7346L24.8808 31.726L25.0956 31.7163L25.3123 31.7053L25.5315 31.6932L25.7537 31.6799L26.0942 31.6575L26.4451 31.6323C29.5476 31.3997 33.7111 30.0116 37.1439 28.0575L37.2723 27.984L37.3958 27.9123C37.8253 27.6619 38.2384 27.4058 38.6339 27.1444L38.8024 27.0321L38.9923 26.9028L39.1793 26.7728L39.2794 26.702L39.3721 26.6358Z" fill="white"/>
</svg>
