<svg width="19" height="18" viewBox="0 0 19 18" fill="none" xmlns="http://www.w3.org/2000/svg">
<path d="M18.5 14.2159C18.5 14.446 18.4574 14.7464 18.3722 15.1172C18.2869 15.4879 18.1974 15.7798 18.1037 15.9929C17.9247 16.419 17.4048 16.8707 16.544 17.348C15.7429 17.7827 14.9503 18 14.1662 18C13.9361 18 13.7124 17.9851 13.495 17.9553C13.2777 17.9254 13.0327 17.8722 12.7599 17.7955C12.4872 17.7188 12.2848 17.657 12.1527 17.6101C12.0206 17.5632 11.7841 17.4759 11.4432 17.348C11.1023 17.2202 10.8935 17.1435 10.8168 17.1179C9.98153 16.8196 9.2358 16.4659 8.57955 16.0568C7.48864 15.3835 6.36151 14.4652 5.19815 13.3018C4.0348 12.1385 3.11648 11.0114 2.44318 9.92045C2.03409 9.2642 1.6804 8.51847 1.3821 7.68324C1.35653 7.60653 1.27983 7.39773 1.15199 7.05682C1.02415 6.71591 0.93679 6.4794 0.889915 6.3473C0.84304 6.2152 0.78125 6.01278 0.704545 5.74006C0.627841 5.46733 0.574574 5.2223 0.544744 5.00497C0.514915 4.78764 0.5 4.56392 0.5 4.33381C0.5 3.54972 0.71733 2.7571 1.15199 1.95597C1.62926 1.09517 2.08097 0.575285 2.5071 0.396307C2.72017 0.302557 3.01207 0.213068 3.38281 0.127842C3.75355 0.042614 4.05398 0 4.28409 0C4.40341 0 4.4929 0.012785 4.55256 0.038353C4.70597 0.089489 4.93182 0.413353 5.23011 1.00994C5.32386 1.17188 5.4517 1.40199 5.61364 1.70028C5.77557 1.99858 5.92472 2.26918 6.06108 2.51207C6.19744 2.75497 6.32955 2.98295 6.45739 3.19602C6.48295 3.23011 6.55753 3.33665 6.68111 3.51562C6.80469 3.6946 6.89631 3.84588 6.95597 3.96946C7.01562 4.09304 7.04545 4.21449 7.04545 4.33381C7.04545 4.50426 6.92401 4.71733 6.68111 4.97301C6.43821 5.22869 6.17401 5.46307 5.88849 5.67614C5.60298 5.8892 5.33878 6.11506 5.09588 6.35369C4.85298 6.59233 4.73153 6.78835 4.73153 6.94176C4.73153 7.01847 4.75284 7.11435 4.79545 7.2294C4.83807 7.34446 4.87429 7.43182 4.90412 7.49148C4.93395 7.55114 4.99361 7.65341 5.0831 7.7983C5.17259 7.94318 5.22159 8.02415 5.23011 8.04119C5.87784 9.20881 6.61932 10.2102 7.45455 11.0455C8.28977 11.8807 9.29119 12.6222 10.4588 13.2699C10.4759 13.2784 10.5568 13.3274 10.7017 13.4169C10.8466 13.5064 10.9489 13.5661 11.0085 13.5959C11.0682 13.6257 11.1555 13.6619 11.2706 13.7045C11.3857 13.7472 11.4815 13.7685 11.5582 13.7685C11.7116 13.7685 11.9077 13.647 12.1463 13.4041C12.3849 13.1612 12.6108 12.897 12.8239 12.6115C13.0369 12.326 13.2713 12.0618 13.527 11.8189C13.7827 11.576 13.9957 11.4545 14.1662 11.4545C14.2855 11.4545 14.407 11.4844 14.5305 11.544C14.6541 11.6037 14.8054 11.6953 14.9844 11.8189C15.1634 11.9425 15.2699 12.017 15.304 12.0426C15.517 12.1705 15.745 12.3026 15.9879 12.4389C16.2308 12.5753 16.5014 12.7244 16.7997 12.8864C17.098 13.0483 17.3281 13.1761 17.4901 13.2699C18.0866 13.5682 18.4105 13.794 18.4616 13.9474C18.4872 14.0071 18.5 14.0966 18.5 14.2159Z" fill="white"/>
</svg>
