<svg width="145" height="80" viewBox="0 0 145 80" fill="none" xmlns="http://www.w3.org/2000/svg">
<path d="M40.7822 39.0911L48.4281 26.1875L56.074 39.0911H40.7822ZM29.4256 49.5545H34.787L38.9269 42.5885H57.9409L62.0807 49.5661H67.4421L48.4281 17.0319L29.4141 49.5661M75.6902 49.5661L94.7042 17.0319L113.718 49.5661H75.7017M83.5234 45.0776H105.888L94.7071 25.9311L83.5234 45.0661M9.507 4.40491L12.048 0H58.6525L71.5791 22.9205L84.5058 0H131.672L134.265 4.40491H87.0784L71.5791 31.8859L56.0798 4.40491H9.507ZM4.41356 13.2032L6.95164 8.7983H53.5072L71.5791 40.86L89.6511 8.81558H136.878L139.471 13.2205H92.2237L71.5791 49.8167L50.9345 13.2032H4.41356ZM22.7938 53.9969H120.364L98.9449 16.8332H141.628L144.046 20.9269H106.162L128.172 58.6957H14.9807L36.9938 20.9269H0L2.34507 16.8389H44.2133L22.7938 54.0027M59.3813 64.2241H61.6659V77.9373L61.7869 78.0583H73.5727V79.9827H59.3842V64.2241M75.863 64.2241H78.2686V79.9827H75.863V64.2241ZM80.072 64.2241H98.1123V66.0305H90.2964L90.1754 66.1486V79.977H88.1299V66.1486L88.0089 66.0305H80.072V64.2241ZM100.76 64.2241H116.029V66.0305H102.923L102.805 66.1486V70.8416L102.923 70.9597H115.311V73.0052H102.923L102.805 73.1262V78.1764L102.923 78.2974H116.034V79.9827H100.766V64.2241M17.4871 64.2241L26.1471 79.9827H29.1548L37.5728 64.2241H35.0492L27.6567 78.0871L20.1232 64.227H17.4756M43.3347 78.1793L40.2089 75.2983V69.1591L43.2165 66.2782H51.7469L54.7546 69.1591V75.2926L51.6259 78.1735H43.3404M42.6375 79.9914H52.3433L56.5724 76.0877V68.387L52.4844 64.4632H42.4934L38.4025 68.387V76.0877L42.6375 79.9914ZM121.396 75.6556L123.098 78.3003H134.668L136.045 75.6844L134.484 73.008H121.753L119.14 68.4245L121.753 64.227H131.45L133.755 68.1969H131.658L130.396 66.0333H122.764L121.249 68.4677L122.672 70.9626H135.383L138.111 75.6354L135.826 79.9856H122.024L119.229 75.6642H121.393M12.071 66.1255L16.8908 75.1745H7.06687L12.071 66.1255ZM6.21988 76.8713H17.7867L19.4519 80H21.9785L13.5576 64.2414H10.5499L1.88988 80H4.53743L6.21988 76.8713Z" fill="white"/>
</svg>
