<svg width="154" height="70" viewBox="0 0 154 70" fill="none" xmlns="http://www.w3.org/2000/svg">
<path d="M35.0518 51.437C26.0037 51.437 18.6667 44.1 18.6667 35.0519C18.6667 26.0037 26.0037 18.6667 35.0518 18.6667C38.9407 18.6667 42.5444 20.0407 45.3444 22.2963L55.3 6.48148C49.5704 2.38519 42.5704 0 35 0C15.6593 0 0 15.6593 0 35C0 54.3407 15.6593 70 35 70C42.6481 70 49.7 67.563 55.4555 63.4148L45.5518 47.7037C42.6741 50.037 39.0185 51.437 35.0518 51.437Z" fill="white"/>
<path d="M35.2594 41.611C31.6298 41.611 28.6742 38.6554 28.6742 35.0258C28.6742 31.3962 31.6298 28.4406 35.2594 28.4406C37.1779 28.4406 38.915 29.2702 40.1335 30.5924L44.1779 24.1628C41.7409 22.1665 38.6298 20.948 35.2335 20.948C27.4557 20.948 21.1816 27.248 21.1816 34.9999C21.1816 42.7776 27.4816 49.0517 35.2335 49.0517C38.6816 49.0517 41.8446 47.8073 44.2816 45.7332L40.2372 39.3036C39.0446 40.7036 37.2557 41.611 35.2594 41.611Z" fill="white"/>
<path d="M48.715 25.3816H45.4742L43.7891 28.4149V42.026L45.8631 44.9557H54.6002V40.5483H48.715V25.3816Z" fill="white"/>
<path d="M62.9742 25.3816L55.1445 44.9557H60.589L61.4964 42.1557H68.4445L69.4297 44.9557H74.7705L66.9408 25.3816H62.9742ZM62.8445 38.1371L64.9445 31.3964L67.0445 38.1371H62.8445Z" fill="white"/>
<path d="M107.697 25.3816L99.8672 44.9557H105.312L106.219 42.1557H113.141L114.126 44.9557H119.519L111.689 25.3816H107.697ZM107.567 38.1371L109.667 31.3964L111.767 38.1371H107.567Z" fill="white"/>
<path d="M78.6068 33.0297L75.8068 25.3816H70.3105L76.1957 37.6964V44.9557H81.1217V37.6964L86.955 25.3816H81.5105L78.6068 33.0297Z" fill="white"/>
<path d="M148.089 25.3816L145.16 33.0297L142.385 25.3816H136.863L142.774 37.6964V44.9557H147.7V37.6964L153.534 25.3816H148.089Z" fill="white"/>
<path d="M102.641 31.8631C102.641 26.0297 97.3259 25.3816 97.3259 25.3816H87.7852V44.9557H92.5815V38.7853H96.9889C97.0148 38.7853 102.641 37.6964 102.641 31.8631ZM95.9777 34.326H92.6074V29.789H95.7703C95.7703 29.789 97.8444 29.9964 97.8444 31.9927C97.8444 33.989 95.9777 34.326 95.9777 34.326Z" fill="white"/>
<path d="M136.267 25.3816H130.822L125.326 33.989V25.3816H120.271V44.9557H125.326V36.7112L130.771 44.9557H136.682L129.682 35.1038L136.267 25.3816Z" fill="white"/>
<path d="M66.9411 50.8147L69.1707 58.6443H68.3411L67.7189 56.2851H65.3078L64.6596 58.6443H63.8818L66.1115 50.8147H66.9411ZM67.4855 55.4036L66.5263 51.748H66.5004L65.5411 55.4036H67.4855Z" fill="white"/>
<path d="M70.5445 50.8147L73.5519 57.1665H73.5778V50.8147H74.3037V58.6443H73.4741L70.4667 52.3703H70.4408V58.6703H69.7148V50.8147H70.5445Z" fill="white"/>
<path d="M77.5965 53.2C77.7002 52.7074 77.8817 52.2666 78.115 51.8777C78.3484 51.4889 78.6336 51.2037 78.9706 50.9703C79.3076 50.737 79.7224 50.6333 80.1632 50.6333C80.6298 50.6333 81.0187 50.737 81.3558 50.9703C81.6928 51.2037 81.978 51.4889 82.2113 51.8777C82.4447 52.2666 82.6002 52.7074 82.7299 53.2C82.8336 53.6926 82.9113 54.2111 82.9113 54.7296C82.9113 55.274 82.8595 55.7666 82.7299 56.2592C82.6262 56.7518 82.4447 57.1926 82.2113 57.5815C81.978 57.9703 81.6928 58.2555 81.3558 58.4889C81.0187 58.7222 80.6039 58.8259 80.1632 58.8259C79.6965 58.8259 79.3076 58.7222 78.9706 58.4889C78.6336 58.2555 78.3484 57.9703 78.115 57.5815C77.8817 57.1926 77.7261 56.7518 77.5965 56.2592C77.4928 55.7666 77.415 55.2481 77.415 54.7296C77.441 54.1852 77.4928 53.6926 77.5965 53.2ZM78.2965 55.8963C78.3743 56.2852 78.478 56.6222 78.6595 56.9333C78.815 57.2444 79.0224 57.4777 79.2817 57.6852C79.541 57.8666 79.8261 57.9703 80.1891 57.9703C80.5261 57.9703 80.8373 57.8666 81.0965 57.6852C81.3558 57.5037 81.5632 57.2444 81.7187 56.9333C81.8743 56.6222 82.0039 56.2852 82.0817 55.8963C82.1595 55.5074 82.1854 55.1185 82.1854 54.7296C82.1854 54.3407 82.1595 53.9518 82.0817 53.5629C82.0039 53.174 81.9002 52.837 81.7187 52.5259C81.5632 52.2148 81.3558 51.9815 81.0965 51.774C80.8373 51.5926 80.5521 51.4889 80.1891 51.4889C79.8521 51.4889 79.541 51.5926 79.2817 51.774C79.0224 51.9555 78.815 52.2148 78.6595 52.5259C78.5039 52.837 78.3743 53.174 78.2965 53.5629C78.2187 53.9518 78.1928 54.3407 78.1928 54.7296C78.1928 55.1185 78.2187 55.5074 78.2965 55.8963Z" fill="white"/>
<path d="M86.6962 51.8778C86.4369 51.6185 86.1258 51.4889 85.711 51.4889C85.5554 51.4889 85.3999 51.5148 85.2443 51.5667C85.0888 51.6185 84.9591 51.6963 84.8295 51.7741C84.6999 51.8778 84.6221 52.0074 84.5443 52.1889C84.4665 52.3704 84.4406 52.5778 84.4406 52.837C84.4406 53.0704 84.4925 53.2778 84.5962 53.4333C84.6999 53.5889 84.8295 53.7185 85.011 53.7963C85.1925 53.9 85.3739 53.9778 85.6073 54.0296C85.8147 54.0815 86.048 54.1593 86.2814 54.2371C86.5147 54.3148 86.7221 54.3926 86.9554 54.4963C87.1628 54.6 87.3702 54.7296 87.5517 54.8852C87.7332 55.0408 87.8628 55.2741 87.9665 55.5333C88.0702 55.7926 88.1221 56.1037 88.1221 56.4926C88.1221 56.9074 88.0443 57.2704 87.9147 57.5556C87.7851 57.8408 87.6036 58.1 87.3962 58.2815C87.1888 58.463 86.9554 58.5926 86.6702 58.6963C86.411 58.7741 86.1517 58.8259 85.8925 58.8259C85.5814 58.8259 85.2702 58.7741 84.9851 58.6704C84.6999 58.5667 84.4406 58.3852 84.2332 58.1778C84.0258 57.9445 83.8443 57.6593 83.7147 57.3222C83.5851 56.9852 83.5332 56.5704 83.5332 56.0778H84.2591C84.2591 56.4148 84.311 56.7 84.3888 56.9333C84.4925 57.1667 84.5962 57.3741 84.7517 57.5296C84.9073 57.6852 85.0888 57.7889 85.2962 57.8667C85.5036 57.9445 85.711 57.9704 85.9184 57.9704C86.0999 57.9704 86.2554 57.9445 86.4369 57.8926C86.6184 57.8407 86.7739 57.763 86.9036 57.6593C87.0332 57.5556 87.1628 57.4 87.2406 57.2185C87.3184 57.0371 87.3702 56.8037 87.3702 56.5185C87.3702 56.2593 87.3184 56.0259 87.2147 55.8704C87.111 55.7148 86.9814 55.5593 86.7999 55.4556C86.6184 55.3519 86.4369 55.2741 86.2036 55.1963C85.9962 55.1185 85.7628 55.0667 85.5295 54.9889C85.2962 54.9111 85.0888 54.8333 84.8554 54.7556C84.648 54.6519 84.4406 54.5482 84.2591 54.3926C84.0777 54.237 83.948 54.0556 83.8443 53.8222C83.7406 53.5889 83.6888 53.2778 83.6888 52.9148C83.6888 52.5259 83.7406 52.1889 83.8702 51.8778C83.9999 51.5926 84.1554 51.3593 84.3369 51.1519C84.5443 50.9704 84.7517 50.8148 85.011 50.7371C85.2702 50.6333 85.5036 50.6074 85.7628 50.6074C86.048 50.6074 86.3332 50.6593 86.5925 50.7371C86.8517 50.8408 87.0591 50.9704 87.2406 51.1778C87.4221 51.3852 87.5776 51.6445 87.6814 51.9556C87.7851 52.2667 87.8628 52.6296 87.8628 53.0704H87.1369C87.0851 52.5519 86.9554 52.1371 86.6962 51.8778Z" fill="white"/>
<path d="M91.6997 50.8147C92.2441 50.8147 92.6589 50.9962 92.97 51.3591C93.2812 51.7221 93.4367 52.2147 93.4367 52.8628C93.4367 53.3295 93.3589 53.7443 93.2034 54.1073C93.0478 54.4703 92.7886 54.7036 92.4515 54.8332V54.8591C92.6071 54.911 92.7626 54.9888 92.8663 55.0665C92.97 55.1703 93.0478 55.2999 93.1256 55.4295C93.1774 55.5591 93.2293 55.7406 93.2552 55.8962C93.2811 56.0777 93.3071 56.2591 93.333 56.4406C93.333 56.6221 93.3589 56.8295 93.3589 57.011C93.3589 57.2184 93.3849 57.3999 93.4108 57.5814C93.4367 57.7628 93.4626 57.9443 93.5145 58.1258C93.5663 58.3073 93.6182 58.4369 93.696 58.5925H92.8404C92.7886 58.5147 92.7626 58.411 92.7367 58.2554C92.7108 58.1258 92.7108 57.9703 92.7108 57.7888C92.7108 57.6073 92.7108 57.4258 92.6849 57.2443C92.6849 57.0369 92.6589 56.8554 92.633 56.674C92.6071 56.4925 92.5812 56.311 92.5552 56.1295C92.5293 55.948 92.4774 55.8184 92.3997 55.6888C92.3219 55.5591 92.2441 55.4554 92.1404 55.3777C92.0367 55.2999 91.8811 55.274 91.6997 55.274H89.833V58.6184H89.0293V50.8147H91.6997ZM91.8811 54.3666C92.0367 54.3406 92.1923 54.2628 92.296 54.1591C92.4256 54.0554 92.5034 53.8999 92.5812 53.7184C92.6589 53.5369 92.6849 53.3036 92.6849 53.0184C92.6849 52.6295 92.6071 52.2925 92.4515 52.0591C92.296 51.7999 92.0367 51.6962 91.6737 51.6962H89.7811V54.4184H91.3626C91.5441 54.4184 91.6997 54.3925 91.8811 54.3666Z" fill="white"/>
<path d="M96.9114 50.8147L99.141 58.6443H98.3114L97.6891 56.2851H95.2521L94.6039 58.6443H93.8262L96.0558 50.8147H96.9114ZM97.4299 55.4036L96.4706 51.748H96.4447L95.4854 55.4036H97.4299Z" fill="white"/>
<path d="M100.748 50.8147L102.537 57.3999L104.352 50.8147H105.389V58.6443H104.663V52.1369H104.637L102.848 58.6443H102.2L100.411 52.1369H100.437V58.6443H99.7109V50.8147H100.748Z" fill="white"/>
<path d="M111.482 50.8147C111.612 50.8147 111.742 50.8147 111.871 50.8147C112.001 50.8147 112.156 50.8406 112.286 50.8406C112.416 50.8666 112.545 50.8925 112.675 50.9184C112.805 50.9443 112.908 51.0221 112.986 51.074C113.167 51.2295 113.323 51.4369 113.453 51.7221C113.582 51.9814 113.66 52.3184 113.66 52.7332C113.66 53.148 113.582 53.511 113.453 53.8221C113.323 54.1332 113.09 54.3406 112.83 54.4962V54.5221C113.193 54.6258 113.453 54.8332 113.634 55.1702C113.816 55.5073 113.919 55.9221 113.919 56.3888C113.919 56.674 113.893 56.9591 113.816 57.2184C113.738 57.4777 113.634 57.7369 113.479 57.9443C113.323 58.1517 113.142 58.3332 112.934 58.4369C112.727 58.5665 112.467 58.6184 112.182 58.6184H109.408V50.8147H111.482ZM111.69 54.1851C112.13 54.1851 112.442 54.0814 112.623 53.874C112.804 53.6665 112.908 53.3554 112.908 52.9406C112.908 52.6554 112.882 52.448 112.805 52.2925C112.753 52.1369 112.649 52.0073 112.545 51.9295C112.442 51.8517 112.312 51.774 112.156 51.748C112.001 51.7221 111.845 51.7221 111.69 51.7221H110.16V54.211H111.69V54.1851ZM112.079 57.7628C112.416 57.7628 112.675 57.6332 112.856 57.3999C113.038 57.1406 113.142 56.8036 113.142 56.3628C113.142 56.1036 113.116 55.8962 113.038 55.7147C112.96 55.5591 112.882 55.4036 112.753 55.3258C112.649 55.2221 112.493 55.1703 112.364 55.1184C112.208 55.0666 112.053 55.0665 111.897 55.0665H110.16V57.7888H112.079V57.7628Z" fill="white"/>
<path d="M118.61 58.074C118.221 58.5665 117.677 58.8258 116.951 58.8258C116.225 58.8258 115.629 58.5925 115.214 58.0999C114.799 57.6332 114.592 56.8554 114.592 55.8184V50.8147H115.344V55.8184C115.344 56.5184 115.473 57.0628 115.758 57.4258C116.018 57.7888 116.433 57.9703 116.925 57.9703C117.418 57.9703 117.781 57.7888 118.04 57.4258C118.299 57.0628 118.429 56.5184 118.429 55.8184V50.8147H119.181V55.8184C119.207 56.8295 118.999 57.5814 118.61 58.074Z" fill="white"/>
<path d="M123.018 51.8778C122.759 51.6185 122.448 51.4889 122.033 51.4889C121.878 51.4889 121.722 51.5148 121.567 51.5667C121.411 51.6185 121.281 51.6963 121.152 51.7741C121.022 51.8778 120.944 52.0074 120.867 52.1889C120.789 52.3704 120.763 52.5778 120.763 52.837C120.763 53.0704 120.815 53.2778 120.918 53.4333C121.022 53.5889 121.152 53.7185 121.333 53.7963C121.515 53.9 121.696 53.9778 121.93 54.0296C122.137 54.0815 122.37 54.1593 122.604 54.2371C122.837 54.3148 123.044 54.3926 123.278 54.4963C123.485 54.6 123.693 54.7296 123.874 54.8852C124.055 55.0408 124.185 55.2741 124.289 55.5333C124.393 55.7926 124.444 56.1037 124.444 56.4926C124.444 56.9074 124.367 57.2704 124.237 57.5556C124.107 57.8408 123.926 58.1 123.718 58.2815C123.511 58.463 123.278 58.5926 122.993 58.6963C122.733 58.7741 122.474 58.8259 122.215 58.8259C121.904 58.8259 121.593 58.7741 121.307 58.6704C121.022 58.5667 120.763 58.3852 120.555 58.1778C120.348 57.9445 120.167 57.6593 120.037 57.3222C119.907 56.9852 119.855 56.5704 119.855 56.0778H120.581C120.581 56.4148 120.633 56.7 120.711 56.9333C120.815 57.1667 120.918 57.3741 121.074 57.5296C121.23 57.6852 121.411 57.7889 121.618 57.8667C121.826 57.9445 122.033 57.9704 122.241 57.9704C122.422 57.9704 122.578 57.9445 122.759 57.8926C122.941 57.8407 123.096 57.763 123.226 57.6593C123.355 57.5556 123.485 57.4 123.563 57.2185C123.641 57.0371 123.693 56.8037 123.693 56.5185C123.693 56.2593 123.641 56.0259 123.537 55.8704C123.433 55.7148 123.304 55.5593 123.122 55.4556C122.941 55.3519 122.759 55.2741 122.526 55.1963C122.318 55.1185 122.085 55.0667 121.852 54.9889C121.618 54.9111 121.411 54.8333 121.178 54.7556C120.97 54.6519 120.763 54.5482 120.581 54.3926C120.4 54.237 120.27 54.0556 120.167 53.8222C120.063 53.5889 120.011 53.2778 120.011 52.9148C120.011 52.5259 120.063 52.1889 120.193 51.8778C120.322 51.5926 120.478 51.3593 120.659 51.1519C120.867 50.9704 121.074 50.8148 121.333 50.7371C121.593 50.6333 121.826 50.6074 122.111 50.6074C122.396 50.6074 122.681 50.6593 122.941 50.7371C123.2 50.8408 123.407 50.9704 123.589 51.1778C123.77 51.3852 123.926 51.6445 124.03 51.9556C124.133 52.2667 124.211 52.6296 124.211 53.0704H123.485C123.433 52.5519 123.278 52.1371 123.018 51.8778Z" fill="white"/>
<path d="M126.13 50.8147V58.6443H125.378V50.8147H126.13Z" fill="white"/>
<path d="M128.23 50.8147L131.237 57.1665H131.263V50.8147H131.989V58.6443H131.16L128.152 52.3703H128.126V58.6703H127.4V50.8147H128.23Z" fill="white"/>
<path d="M137.148 50.8147V51.6962H133.959V54.1851H136.94V55.0665H133.959V57.7888H137.174V58.6703H133.207V50.8147H137.148Z" fill="white"/>
<path d="M140.959 51.8778C140.7 51.6185 140.388 51.4889 139.974 51.4889C139.818 51.4889 139.663 51.5148 139.507 51.5667C139.351 51.6185 139.222 51.6963 139.092 51.7741C138.963 51.8778 138.885 52.0074 138.807 52.1889C138.729 52.3704 138.703 52.5778 138.703 52.837C138.703 53.0704 138.755 53.2778 138.859 53.4333C138.963 53.5889 139.092 53.7185 139.274 53.7963C139.455 53.9 139.637 53.9778 139.87 54.0296C140.077 54.0815 140.311 54.1593 140.544 54.2371C140.777 54.3148 140.985 54.3926 141.218 54.4963C141.426 54.6 141.633 54.7296 141.814 54.8852C141.996 55.0408 142.126 55.2741 142.229 55.5333C142.333 55.7926 142.385 56.1037 142.385 56.4926C142.385 56.9074 142.307 57.2704 142.177 57.5556C142.048 57.8408 141.866 58.1 141.659 58.2815C141.451 58.463 141.218 58.5926 140.933 58.6963C140.674 58.7741 140.414 58.8259 140.155 58.8259C139.844 58.8259 139.533 58.7741 139.248 58.6704C138.963 58.5667 138.703 58.3852 138.496 58.1778C138.288 57.9445 138.107 57.6593 137.977 57.3222C137.848 56.9852 137.796 56.5704 137.796 56.0778H138.522C138.522 56.4148 138.574 56.7 138.651 56.9333C138.755 57.1667 138.859 57.3741 139.014 57.5296C139.17 57.6852 139.351 57.7889 139.559 57.8667C139.766 57.9445 139.974 57.9704 140.181 57.9704C140.363 57.9704 140.518 57.9445 140.7 57.8926C140.881 57.8407 141.037 57.763 141.166 57.6593C141.296 57.5556 141.426 57.4 141.503 57.2185C141.581 57.0371 141.633 56.8037 141.633 56.5185C141.633 56.2593 141.581 56.0259 141.477 55.8704C141.374 55.7148 141.244 55.5593 141.063 55.4556C140.881 55.3519 140.7 55.2741 140.466 55.1963C140.259 55.1185 140.026 55.0667 139.792 54.9889C139.559 54.9111 139.351 54.8333 139.118 54.7556C138.911 54.6519 138.703 54.5482 138.522 54.3926C138.34 54.237 138.211 54.0556 138.107 53.8222C138.003 53.5889 137.951 53.2778 137.951 52.9148C137.951 52.5259 138.003 52.1889 138.133 51.8778C138.263 51.5926 138.418 51.3593 138.6 51.1519C138.807 50.9704 139.014 50.8148 139.274 50.7371C139.533 50.6333 139.766 50.6074 140.026 50.6074C140.311 50.6074 140.596 50.6593 140.855 50.7371C141.114 50.8408 141.322 50.9704 141.503 51.1778C141.685 51.3852 141.84 51.6445 141.944 51.9556C142.048 52.2667 142.126 52.6296 142.126 53.0704H141.4C141.348 52.5519 141.218 52.1371 140.959 51.8778Z" fill="white"/>
<path d="M146.144 51.8778C145.885 51.6185 145.574 51.4889 145.159 51.4889C145.004 51.4889 144.848 51.5148 144.693 51.5667C144.537 51.6185 144.407 51.6963 144.278 51.7741C144.148 51.8778 144.07 52.0074 143.993 52.1889C143.915 52.3704 143.889 52.5778 143.889 52.837C143.889 53.0704 143.941 53.2778 144.044 53.4333C144.148 53.5889 144.278 53.7185 144.459 53.7963C144.641 53.9 144.822 53.9778 145.056 54.0296C145.263 54.0815 145.496 54.1593 145.73 54.2371C145.963 54.3148 146.17 54.3926 146.404 54.4963C146.611 54.6 146.818 54.7296 147 54.8852C147.181 55.0408 147.311 55.2741 147.415 55.5333C147.518 55.7926 147.57 56.1037 147.57 56.4926C147.57 56.9074 147.493 57.2704 147.363 57.5556C147.233 57.8408 147.052 58.1 146.844 58.2815C146.637 58.463 146.404 58.5926 146.118 58.6963C145.859 58.7741 145.6 58.8259 145.341 58.8259C145.03 58.8259 144.718 58.7741 144.433 58.6704C144.148 58.5667 143.889 58.3852 143.681 58.1778C143.474 57.9445 143.293 57.6593 143.163 57.3222C143.033 56.9852 142.981 56.5704 142.981 56.0778H143.707C143.707 56.4148 143.759 56.7 143.837 56.9333C143.941 57.1667 144.044 57.3741 144.2 57.5296C144.356 57.6852 144.537 57.7889 144.744 57.8667C144.952 57.9445 145.159 57.9704 145.367 57.9704C145.548 57.9704 145.704 57.9445 145.885 57.8926C146.067 57.8407 146.222 57.763 146.352 57.6593C146.481 57.5556 146.611 57.4 146.689 57.2185C146.767 57.0371 146.818 56.8037 146.818 56.5185C146.818 56.2593 146.767 56.0259 146.663 55.8704C146.559 55.7148 146.43 55.5593 146.248 55.4556C146.067 55.3519 145.885 55.2741 145.652 55.1963C145.444 55.1185 145.211 55.0667 144.978 54.9889C144.744 54.9111 144.537 54.8333 144.304 54.7556C144.096 54.6519 143.889 54.5482 143.707 54.3926C143.526 54.237 143.396 54.0556 143.293 53.8222C143.189 53.5889 143.137 53.2778 143.137 52.9148C143.137 52.5259 143.189 52.1889 143.318 51.8778C143.448 51.5926 143.604 51.3593 143.785 51.1519C143.993 50.9704 144.2 50.8148 144.459 50.7371C144.718 50.6333 144.952 50.6074 145.237 50.6074C145.522 50.6074 145.807 50.6593 146.041 50.7371C146.3 50.8408 146.507 50.9704 146.689 51.1778C146.87 51.3852 147.026 51.6445 147.13 51.9556C147.233 52.2667 147.311 52.6296 147.311 53.0704H146.585C146.533 52.5519 146.404 52.1371 146.144 51.8778Z" fill="white"/>
</svg>
