<svg width="200" height="64" viewBox="0 0 200 64" fill="none" xmlns="http://www.w3.org/2000/svg">
<path d="M127.272 10.3528L136.671 14.3192L143.552 18.752L143.637 18.7855C139.423 21.1508 135.161 23.0171 130.904 24.4607C92.7251 37.5576 54.8592 16.5391 54.8592 16.5391C55.5793 16.8485 56.2927 17.149 56.9996 17.4407L56.997 17.4374C55.7465 16.8239 55.0772 16.4523 55.0772 16.4523C55.1265 16.4736 55.1758 16.4947 55.2251 16.5158L55.2225 16.5134C55.1482 16.4733 55.1105 16.4523 55.1105 16.4523C55.2678 16.5246 55.4248 16.5964 55.5817 16.6678C82.8853 28.2919 100.608 27.0762 111.601 22.7798C122.984 18.2529 127.054 10.4395 127.054 10.4395L127.192 10.4968C127.246 10.4027 127.272 10.3528 127.272 10.3528ZM97.9074 5.45314C102.674 5.45314 106.54 9.35286 106.54 14.1192C106.54 18.8855 102.674 22.7519 97.9074 22.7519C93.1077 22.7519 89.2414 18.8855 89.2414 14.1192C89.2414 9.35286 93.1077 5.48647 97.9074 5.45314ZM58.7902 5.6757C98.1838 -10.1804 138.538 12.2193 138.538 12.2193C138.441 12.1778 138.345 12.1364 138.248 12.0953L138.254 12.0993C138.441 12.1992 138.538 12.2526 138.538 12.2526C138.166 12.0818 137.795 11.9133 137.426 11.7473C137.081 11.6012 136.739 11.4587 136.399 11.3183L136.402 11.3217C137.651 11.9348 138.32 12.3061 138.32 12.3061C110.727 0.450038 92.852 1.65606 81.7915 5.98041C70.4118 10.5074 66.343 18.3188 66.343 18.3188L66.2052 18.2613C66.1514 18.3556 66.1254 18.4056 66.1254 18.4056L56.726 14.4393L49.7932 9.97291C52.7283 8.3257 55.6863 6.92053 58.6496 5.73158L58.7902 5.6757ZM19.4797 58.2826L19.2464 59.2825H15.0467L14.8467 60.1491H19.0131L18.7798 61.1491H14.5801L14.3467 62.0157H18.5798L18.3798 62.9489H13.9134C12.7802 62.9489 11.9803 62.549 12.1136 61.9823L12.7802 59.2492C12.9135 58.6826 13.9468 58.2826 15.0467 58.2826H19.4797ZM138.571 58.2826L138.338 59.2825H134.138L133.938 60.1491H138.138L137.904 61.1491H133.705L133.471 62.0157H137.705L137.505 62.9489H133.038C131.905 62.9489 131.105 62.549 131.238 61.9823L131.905 59.2492C132.038 58.6826 133.072 58.2826 134.171 58.2826H138.571ZM178.302 58.2826C179.501 58.2826 180.268 58.6493 180.101 59.2492L179.901 60.1158C179.735 60.6824 178.902 61.0158 177.668 61.0824L179.368 62.9489H176.635L174.968 61.0824H174.702L174.269 62.9156H172.002L173.169 58.2826H178.302ZM177.835 59.2825H175.202L175.002 60.1491H177.635L177.835 59.2825ZM126.072 62.9823H123.806L124.239 61.1491H121.772L121.306 62.9823H119.039L120.206 58.2826H122.506L122.006 60.1491H124.505L124.972 58.2826H127.239L126.072 62.9823ZM55.7104 58.2826L54.8105 62.0157H56.9104L57.8436 58.2826V58.3159H60.0101L59.1102 62.049C58.9435 62.6823 57.9436 62.9823 56.8104 62.9823H54.2772C53.1773 62.9823 52.3774 62.5823 52.5107 62.0157L53.4439 58.2826H55.7104ZM30.9122 58.2826L30.6789 59.2825H28.279L27.3791 62.9823H25.0793L25.9792 59.2825H23.4461L23.6794 58.2826H30.9122ZM116.039 58.2826L115.806 59.2825H113.373L112.473 62.9823H110.173L111.106 59.2825H108.54L108.773 58.2826H116.039ZM71.5426 58.2826L71.3093 59.2825H68.8762L67.9762 62.9823H65.6764L66.6097 59.2825H64.0432L64.2765 58.2826H71.5426ZM154.237 58.2826C155.303 58.2826 156.137 58.6826 156.003 59.2492L155.337 61.9823C155.203 62.549 154.17 62.9489 153.07 62.9489H147.904L149.07 58.2826H154.237ZM153.737 59.2492H151.104L150.437 61.9823H153.07L153.737 59.2492ZM168.336 58.2826L167.169 62.9489H164.869L165.336 61.1157H162.703L162.236 62.9489H159.97L160.869 59.3159C161.036 58.5826 162.069 58.2826 163.169 58.2826H168.336ZM165.769 59.2825H163.136L162.936 60.1491H165.569L165.769 59.2825ZM192.734 61.2491C192.967 61.2491 193.2 61.3491 193.367 61.5157C193.534 61.6824 193.634 61.9157 193.634 62.149C193.634 62.3823 193.534 62.6156 193.367 62.7823C193.2 62.9489 192.967 63.0489 192.734 63.0489C192.501 63.0489 192.267 62.9489 192.101 62.7823C191.934 62.6156 191.834 62.3823 191.834 62.149C191.834 61.9157 191.934 61.6824 192.101 61.5157C192.267 61.3491 192.501 61.2491 192.734 61.2491ZM187.501 58.2826L187.001 60.3491L189.434 58.2826H191.934L189.334 60.4825L191.801 62.9823H188.967L186.868 60.8158L186.368 62.9823H184.068L185.234 58.2826H187.501ZM192.734 61.4491C192.534 61.4491 192.367 61.5157 192.234 61.649C192.101 61.7824 192.034 61.9823 192.034 62.149C192.034 62.349 192.101 62.5156 192.234 62.649C192.367 62.7823 192.534 62.8489 192.734 62.8489C192.934 62.8489 193.1 62.7823 193.234 62.649C193.367 62.5156 193.434 62.349 193.434 62.149C193.434 61.949 193.367 61.7824 193.234 61.649C193.1 61.5157 192.934 61.4491 192.734 61.4491ZM192.734 61.649C193.034 61.649 193.167 61.749 193.167 61.9157L192.967 62.1823L193.167 62.6156H192.834L192.667 62.249H192.634V62.6156H192.334V61.649H192.734ZM192.667 61.849H192.634V62.0823H192.701L192.834 61.949L192.667 61.849ZM46.5778 58.2826C47.7777 58.2826 48.5443 58.6159 48.3776 59.2825L47.711 62.049C47.5444 62.6823 46.5778 62.9823 45.4112 62.9823H42.3114C41.2115 62.9823 40.4116 62.5823 40.5449 62.0157L41.2448 59.2492C41.3448 58.6826 42.3781 58.2826 43.478 58.2826H46.5778ZM46.1445 59.2825H43.478L42.7781 62.0157H45.4445L46.1445 59.2825ZM86.3749 58.2826C87.6081 58.2826 88.3747 58.6159 88.1748 59.2825L87.5081 62.049C87.3415 62.6823 86.3416 62.9823 85.2083 62.9823H82.1085C81.0086 62.9823 80.2087 62.5823 80.342 62.0157L81.0419 59.2492C81.1419 58.6826 82.1752 58.2826 83.2751 58.2826H86.3749ZM85.9749 59.2825H83.3084L82.6085 62.0157H85.275L85.9749 59.2825ZM99.7073 58.2826L99.4739 59.2825H95.3409L95.1409 60.1491H98.3074L98.0741 61.1157H94.9076L94.4076 62.9823H92.1745L93.3411 58.2826H99.7073ZM6.98068 62.9489H1.81438C0.68113 62.9489 -0.118812 62.549 0.0145112 61.9823L0.68113 59.2492C0.847784 58.6826 1.84771 58.2826 2.94763 58.2826H8.14726L7.91395 59.2825V59.2492H2.98096L2.31434 61.9823H4.98082L5.18081 61.0824H3.94757L4.18088 60.1158H7.68063L6.98068 62.9489ZM30.779 36.6842L30.7648 36.7373L40.9982 36.7375L39.4248 43.2259L39.451 43.2387C39.677 43.3412 40.0201 43.4137 40.4216 43.4323L40.5231 43.4358L40.6269 43.437H44.8266C45.486 43.437 46.063 43.3828 46.4955 43.2642C46.7104 43.2054 46.8707 43.1351 46.9678 43.0648L46.9755 43.0591L46.9826 43.0538L47.0146 43.0272L48.6156 36.7375H58.876L56.8285 44.8487C56.3848 46.6035 54.8742 47.723 52.6205 48.3538C51.0481 48.7939 49.1613 48.9876 47.0572 49.0024L46.7931 49.0033L46.8069 49.0031L45.1407 55.6695H34.7674L36.5004 49.0031L36.4358 49.0034L35.278 49.0138L34.8114 49.013C34.63 49.0115 34.4543 49.0087 34.2812 49.0043L34.0232 48.9963L33.8199 48.9882C32.3269 48.9213 31.1377 48.721 30.2317 48.2992C28.9072 47.6825 28.2523 46.5659 28.5996 45.1564L28.6237 45.0641L29.1896 42.7699L29.0458 43.317H18.8132L19.1132 42.1505V42.0838H14.1802C13.6802 42.1171 13.2136 42.1838 12.847 42.3171C12.5803 42.4171 12.3803 42.5504 12.3137 42.6171L10.4805 49.8832L10.5471 49.9166C10.7804 50.0166 11.2137 50.1165 11.747 50.1165H16.98L17.28 48.9166H27.5792L27.2792 50.0832L26.9793 51.2831L25.8793 55.4495H7.48068C6.04745 55.4495 4.71421 55.2828 3.58096 54.9495C2.44771 54.5829 1.48111 54.0829 0.81449 53.3496C0.381188 52.8497 0.0812114 52.1831 0.0812114 51.4831C0.0812114 51.2498 0.0812114 51.0498 0.147873 50.8165L2.61436 40.8839C2.78101 40.1173 3.24765 39.5173 3.81428 39.0173C4.3809 38.5174 5.11418 38.1174 5.91412 37.7841C7.54734 37.0841 9.58052 36.7175 11.6804 36.7175V36.6842H30.779ZM142.171 36.7842V36.8175H161.469C163.036 36.8175 164.436 36.9508 165.602 37.2508C166.769 37.5841 167.736 38.0507 168.402 38.8174C168.836 39.3507 169.102 40.0173 169.102 40.7172C169.102 40.9839 169.069 41.2838 169.002 41.5505L168.236 44.6169V44.6503C168.036 45.4835 167.536 46.1835 166.869 46.7168C166.202 47.2501 165.402 47.6834 164.436 47.9834C162.536 48.65 160.036 48.95 157.203 48.95H149.337L147.704 55.5828H137.505L142.171 36.7842ZM86.5042 36.6152L85.2406 41.4442L84.702 43.3837H74.3268L74.6601 42.1838H69.8228C69.2671 42.1991 68.7572 42.3114 68.3925 42.4668C68.1621 42.5646 68.0566 42.6482 68.0134 42.6875L68.0039 42.6964L66.202 49.8719C66.4173 49.9756 66.7996 50.0706 67.3066 50.0821L67.4096 50.0832H72.6159L72.9492 48.8833H83.3241L82.6412 51.3425L81.5489 55.5495H63.1099C61.0484 55.5495 59.1472 55.1862 57.7843 54.4732C57.1003 54.1152 56.4937 53.6386 56.1007 53.0163C55.7104 52.3975 55.5623 51.6803 55.7141 50.9261L55.7378 50.8182L55.7388 50.8135L58.2049 40.8825C58.5576 39.3887 60.0155 38.3524 61.5697 37.7101C63.1417 37.0602 65.1184 36.6787 67.1503 36.6523L67.3763 36.6508L86.5042 36.6152ZM97.0662 36.6508L93.5799 50.1164H99.9414L100.275 48.8833L110.123 48.8831L112.106 40.9505C112.264 40.2243 112.691 39.6177 113.218 39.1307L113.306 39.0507C113.873 38.5507 114.606 38.1507 115.406 37.8174C117.039 37.1508 119.073 36.7842 121.172 36.7842H132.372C133.938 36.7842 135.338 36.9175 136.505 37.2175C137.671 37.5175 138.638 37.9841 139.304 38.7507C139.738 39.2507 140.004 39.9173 140.004 40.6172C140.004 40.9172 139.971 41.1839 139.904 41.4505L137.438 51.4498C137.238 52.2497 136.771 52.9163 136.171 53.4496C135.571 53.9829 134.838 54.3829 134.005 54.6829C132.372 55.2828 130.338 55.5495 128.172 55.5495H116.939C115.506 55.5495 114.173 55.3828 113.006 55.0495C111.873 54.7162 110.906 54.2162 110.24 53.483C110.016 53.2248 109.828 52.9222 109.698 52.5935L108.952 55.5495H81.9606L86.6949 36.6508H97.0662ZM196.434 36.7508L195.267 41.4505L194.767 43.3837H184.534L184.834 42.2171V42.1505H181.335C180.801 42.1505 180.301 42.2504 179.935 42.3838C179.568 42.4838 179.368 42.6837 179.335 42.7171L179.235 43.1837L179.301 43.217C179.535 43.317 180.001 43.417 180.535 43.417H185.734C187.168 43.417 188.534 43.5504 189.767 43.817C191.001 44.0836 192.067 44.5169 192.834 45.2502C193.367 45.7169 193.734 46.4168 193.734 47.1834C193.734 47.4501 193.7 47.6834 193.634 47.9167L192.834 51.2498C192.634 52.0497 192.201 52.7164 191.601 53.283C191.034 53.8496 190.267 54.2496 189.434 54.5829C187.734 55.2495 185.634 55.5161 183.201 55.5161H165.936L167.069 50.8498L167.569 48.95H177.802L177.502 50.1165V50.1499H181.201C181.735 50.1499 182.235 50.0832 182.601 49.9499C182.935 49.8499 183.135 49.7166 183.168 49.6499L183.235 49.4166L183.301 49.0833L183.235 49.0499C183.001 48.95 182.535 48.85 182.001 48.85H176.202C174.768 48.85 173.435 48.6833 172.269 48.3833C171.102 48.0834 170.102 47.6167 169.402 46.8501C168.936 46.3501 168.636 45.6502 168.636 44.9169C168.636 44.6503 168.669 44.417 168.736 44.1836L169.436 41.3505C169.636 40.4839 170.135 39.7506 170.735 39.1507C171.369 38.5507 172.102 38.0841 172.969 37.7508C174.669 37.0842 176.735 36.7842 178.802 36.7842V36.7508H196.434ZM128.305 42.1838H123.772C123.006 42.1838 122.239 42.4171 121.939 42.6171L121.806 42.7171L121.039 45.9168L121.006 45.7835C120.639 47.2168 120.239 48.85 119.939 49.9832L120.006 50.0165C120.239 50.1165 120.706 50.2165 121.239 50.2165H125.772C126.272 50.2165 126.739 50.1499 127.105 50.0165C127.439 49.9499 127.672 49.7832 127.739 49.7166V49.6832C127.925 48.9366 128.177 47.9287 128.436 46.8967L128.51 46.6014C128.967 44.7788 129.428 42.9515 129.572 42.4171L129.505 42.3838C129.305 42.2838 128.838 42.1838 128.305 42.1838ZM157.303 42.2171H150.97L150.67 43.4837H156.47C157.003 43.4837 157.503 43.3837 157.87 43.2504C158.17 43.1504 158.37 43.0171 158.436 42.9504L158.57 42.4504L158.503 42.4171C158.27 42.3171 157.836 42.2171 157.303 42.2171ZM198.133 38.0174V38.4507H198.267C198.433 38.4507 198.533 38.3841 198.533 38.2174C198.533 38.0841 198.433 38.0174 198.233 38.0174H198.133ZM199.133 38.1841C199.133 38.4174 199 38.584 198.767 38.684L199.167 39.484H198.533L198.2 38.784H198.133V39.484H197.567V37.6508H198.333C198.867 37.6508 199.133 37.8508 199.133 38.1841ZM199.267 37.6508C199 37.3841 198.667 37.2508 198.3 37.2508C197.933 37.2508 197.6 37.3841 197.367 37.6508C197.1 37.9174 196.967 38.2507 196.967 38.6174C196.967 38.984 197.1 39.3173 197.367 39.584C197.633 39.8506 197.967 39.9839 198.333 39.9839C198.7 39.9839 199.033 39.8506 199.3 39.584C199.567 39.3507 199.7 39.0173 199.7 38.6507C199.667 38.2507 199.5 37.8841 199.267 37.6508ZM199.5 37.4175C199.8 37.7174 200 38.1507 200 38.6174C200 39.084 199.833 39.484 199.5 39.8173C199.167 40.1506 198.733 40.3173 198.3 40.3173C197.867 40.3173 197.434 40.1506 197.1 39.8173C196.767 39.484 196.6 39.084 196.6 38.6174C196.6 38.1841 196.767 37.7508 197.1 37.4175C197.4 37.1175 197.833 36.9175 198.3 36.9175C198.767 36.9175 199.2 37.0842 199.5 37.4175Z" fill="white"/>
</svg>
