<svg width="200" height="37" viewBox="0 0 200 37" fill="none" xmlns="http://www.w3.org/2000/svg">
<path fill-rule="evenodd" clip-rule="evenodd" d="M19.7704 0L39.105 3.97678V6.03833V31.8142L20.6629 36.6343V36.8956H19.6629H18.6629V36.6372L0 31.8142V26.5118V18.1164V6.03697V3.97678L19.7704 0ZM2 6.53135L18.6629 10.6503V22.3103L2 18.5659V6.53135ZM2 30.2654V26.9613L18.6629 30.7058V34.5715L2 30.2654ZM37.105 30.2698L20.6629 34.5671V30.7006L37.105 26.9208V30.2698ZM20.6629 22.3052L37.105 18.5254V6.53833L20.6629 10.6488V22.3052ZM107.816 18.3966C107.816 19.2529 107.917 20.0253 108.118 20.7137C108.336 21.4021 108.639 21.9982 109.025 22.5019C109.428 22.9889 109.915 23.3667 110.486 23.6353C111.056 23.904 111.711 24.0383 112.45 24.0383C113.172 24.0383 113.819 23.904 114.389 23.6353C114.977 23.3667 115.464 22.9889 115.85 22.5019C116.253 21.9982 116.555 21.4021 116.757 20.7137C116.975 20.0253 117.084 19.2529 117.084 18.3966C117.084 17.5402 116.975 16.7679 116.757 16.0794C116.555 15.3742 116.253 14.7781 115.85 14.2912C115.464 13.7875 114.977 13.4013 114.389 13.1326C113.819 12.864 113.172 12.7297 112.45 12.7297C111.711 12.7297 111.056 12.8724 110.486 13.1578C109.915 13.4265 109.428 13.8127 109.025 14.3164C108.639 14.8033 108.336 15.3994 108.118 16.1046C107.917 16.793 107.816 17.557 107.816 18.3966ZM121.139 18.3966C121.139 19.891 120.913 21.209 120.459 22.3508C120.023 23.4758 119.418 24.4245 118.646 25.1969C117.873 25.9524 116.95 26.5233 115.875 26.9095C114.818 27.2957 113.676 27.4888 112.45 27.4888C111.258 27.4888 110.133 27.2957 109.075 26.9095C108.017 26.5233 107.094 25.9524 106.305 25.1969C105.515 24.4245 104.894 23.4758 104.441 22.3508C103.987 21.209 103.761 19.891 103.761 18.3966C103.761 16.9022 103.996 15.5925 104.466 14.4675C104.936 13.3257 105.566 12.3687 106.355 11.5963C107.161 10.8239 108.084 10.2446 109.125 9.85843C110.183 9.47224 111.291 9.27914 112.45 9.27914C113.642 9.27914 114.767 9.47224 115.825 9.85843C116.883 10.2446 117.806 10.8239 118.595 11.5963C119.385 12.3687 120.006 13.3257 120.459 14.4675C120.913 15.5925 121.139 16.9022 121.139 18.3966ZM99.2924 10.8911C97.8988 9.95078 95.8923 9.48063 93.2729 9.48063C92.5509 9.48063 91.7281 9.51422 90.8046 9.58138C89.8979 9.64854 89.0164 9.76608 88.1601 9.93399V27.1362H92.0891V20.7641H94.0285C94.3643 21.1671 94.7001 21.6204 95.0359 22.1241C95.3717 22.6111 95.7076 23.1316 96.0434 23.6857C96.396 24.2398 96.7318 24.8107 97.0508 25.3983C97.3866 25.986 97.7141 26.5653 98.0331 27.1362H102.441C102.138 26.4981 101.811 25.8517 101.458 25.1969C101.106 24.5252 100.736 23.8872 100.35 23.2827C99.9808 22.6614 99.603 22.0738 99.2168 21.5197C98.8307 20.9488 98.4613 20.445 98.1087 20.0085C99.1665 19.5719 99.9724 18.9759 100.527 18.2203C101.097 17.4479 101.383 16.4488 101.383 15.2231C101.383 13.2586 100.686 11.8146 99.2924 10.8911ZM92.7188 12.8556C92.9539 12.8388 93.2141 12.8304 93.4996 12.8304C94.7589 12.8304 95.7076 13.0151 96.3456 13.3845C97.0005 13.7371 97.3279 14.3416 97.3279 15.1979C97.3279 16.0878 97.0088 16.7175 96.3708 17.0869C95.7327 17.4563 94.6749 17.641 93.1973 17.641H92.0891V12.906C92.2906 12.8892 92.5005 12.8724 92.7188 12.8556ZM55.0785 27.1362V9.68213H66.8657V12.9815H59.0076V16.4069H65.9842V19.6307H59.0076V23.8368H67.445V27.1362H55.0785ZM77.1781 27.4888C75.9524 27.4888 74.8945 27.3209 74.0046 26.9851C73.1147 26.6325 72.3759 26.1539 71.7882 25.5495C71.2173 24.9282 70.7892 24.1978 70.5037 23.3583C70.2351 22.5019 70.1007 21.5616 70.1007 20.5374V9.68213H74.0298V20.21C74.0298 20.9152 74.1054 21.5197 74.2565 22.0234C74.4244 22.5103 74.6427 22.9133 74.9113 23.2323C75.1968 23.5346 75.5326 23.7528 75.9188 23.8872C76.3217 24.0215 76.7583 24.0887 77.2285 24.0887C78.1855 24.0887 78.9579 23.7948 79.5456 23.2071C80.1501 22.6195 80.4523 21.6204 80.4523 20.21V9.68213H84.3813V20.5374C84.3813 21.5616 84.2386 22.5019 83.9532 23.3583C83.6677 24.2146 83.2312 24.9534 82.6435 25.5746C82.0558 26.1791 81.3086 26.6493 80.4019 26.9851C79.4952 27.3209 78.4206 27.4888 77.1781 27.4888ZM136.77 13.0319V9.68213H122.313V13.0319H127.577V27.1362H131.506V13.0319H136.77ZM144.408 9.48063C147.027 9.48063 149.034 9.95078 150.427 10.8911C151.821 11.8146 152.518 13.2586 152.518 15.2231C152.518 16.4488 152.232 17.4479 151.661 18.2203C151.107 18.9759 150.301 19.5719 149.244 20.0085C149.596 20.445 149.966 20.9488 150.352 21.5197C150.738 22.0738 151.116 22.6614 151.485 23.2827C151.871 23.8872 152.241 24.5252 152.593 25.1969C152.946 25.8517 153.273 26.4981 153.576 27.1362H149.168C148.849 26.5653 148.522 25.986 148.186 25.3983C147.867 24.8107 147.531 24.2398 147.178 23.6857C146.843 23.1316 146.507 22.6111 146.171 22.1241C145.835 21.6204 145.499 21.1671 145.163 20.7641H143.224V27.1362H139.295V9.93399C140.151 9.76608 141.033 9.64854 141.94 9.58138C142.863 9.51422 143.686 9.48063 144.408 9.48063ZM144.635 12.8304C144.349 12.8304 144.089 12.8388 143.854 12.8556C143.635 12.8724 143.426 12.8892 143.224 12.906V17.641H144.332C145.81 17.641 146.868 17.4563 147.506 17.0869C148.144 16.7175 148.463 16.0878 148.463 15.1979C148.463 14.3416 148.135 13.7371 147.481 13.3845C146.843 13.0151 145.894 12.8304 144.635 12.8304ZM159.549 26.9851C160.439 27.3209 161.497 27.4888 162.723 27.4888C163.965 27.4888 165.04 27.3209 165.947 26.9851C166.853 26.6493 167.601 26.1791 168.188 25.5746C168.776 24.9534 169.212 24.2146 169.498 23.3583C169.783 22.5019 169.926 21.5616 169.926 20.5374V9.68213H165.997V20.21C165.997 21.6204 165.695 22.6195 165.09 23.2071C164.503 23.7948 163.73 24.0887 162.773 24.0887C162.303 24.0887 161.866 24.0215 161.463 23.8872C161.077 23.7528 160.741 23.5346 160.456 23.2323C160.187 22.9133 159.969 22.5103 159.801 22.0234C159.65 21.5197 159.575 20.9152 159.575 20.21V9.68213H155.645V20.5374C155.645 21.5616 155.78 22.5019 156.048 23.3583C156.334 24.1978 156.762 24.9282 157.333 25.5495C157.921 26.1539 158.659 26.6325 159.549 26.9851ZM178.465 24.139C179.019 24.139 179.472 24.0971 179.825 24.0131C180.194 23.9124 180.488 23.7864 180.707 23.6353C180.925 23.4674 181.076 23.2743 181.16 23.056C181.244 22.8377 181.286 22.5943 181.286 22.3256C181.286 21.7547 181.017 21.2846 180.48 20.9152C179.943 20.529 179.019 20.1176 177.709 19.6811C177.139 19.4796 176.568 19.2529 175.997 19.001C175.426 18.7324 174.914 18.405 174.46 18.0188C174.007 17.6158 173.638 17.1373 173.352 16.5832C173.067 16.0123 172.924 15.3238 172.924 14.5179C172.924 13.7119 173.075 12.9899 173.377 12.3519C173.68 11.697 174.108 11.1429 174.662 10.6896C175.216 10.2362 175.888 9.89201 176.677 9.65694C177.466 9.40508 178.356 9.27914 179.346 9.27914C180.522 9.27914 181.538 9.40508 182.394 9.65694C183.25 9.9088 183.956 10.1859 184.51 10.4881L183.376 13.586C182.889 13.3341 182.344 13.1159 181.739 12.9312C181.152 12.7297 180.438 12.6289 179.598 12.6289C178.658 12.6289 177.978 12.7632 177.558 13.0319C177.155 13.2838 176.954 13.6783 176.954 14.2157C176.954 14.5347 177.029 14.8033 177.18 15.0216C177.332 15.2399 177.541 15.4414 177.81 15.6261C178.096 15.794 178.415 15.9535 178.767 16.1046C179.137 16.2389 179.54 16.3817 179.976 16.5328C180.883 16.8686 181.672 17.2044 182.344 17.5402C183.015 17.8593 183.569 18.2371 184.006 18.6736C184.459 19.1102 184.795 19.6223 185.013 20.21C185.232 20.7977 185.341 21.5113 185.341 22.3508C185.341 23.9795 184.77 25.2472 183.628 26.1539C182.486 27.0438 180.765 27.4888 178.465 27.4888C177.693 27.4888 176.996 27.4384 176.375 27.3377C175.753 27.2537 175.199 27.1446 174.712 27.0103C174.242 26.8759 173.831 26.7332 173.478 26.5821C173.142 26.431 172.857 26.2883 172.622 26.1539L173.73 23.0308C174.25 23.3163 174.889 23.5765 175.644 23.8116C176.417 24.0299 177.357 24.139 178.465 24.139ZM194.484 24.0131C194.132 24.0971 193.678 24.139 193.124 24.139C192.016 24.139 191.076 24.0299 190.303 23.8116C189.548 23.5765 188.91 23.3163 188.389 23.0308L187.281 26.1539C187.516 26.2883 187.801 26.431 188.137 26.5821C188.49 26.7332 188.901 26.8759 189.371 27.0103C189.858 27.1446 190.412 27.2537 191.034 27.3377C191.655 27.4384 192.352 27.4888 193.124 27.4888C195.425 27.4888 197.146 27.0438 198.287 26.1539C199.429 25.2472 200 23.9795 200 22.3508C200 21.5113 199.891 20.7977 199.673 20.21C199.454 19.6223 199.118 19.1102 198.665 18.6736C198.229 18.2371 197.674 17.8593 197.003 17.5402C196.331 17.2044 195.542 16.8686 194.635 16.5328C194.199 16.3817 193.796 16.2389 193.426 16.1046C193.074 15.9535 192.755 15.794 192.469 15.6261C192.201 15.4414 191.991 15.2399 191.84 15.0216C191.689 14.8033 191.613 14.5347 191.613 14.2157C191.613 13.6783 191.814 13.2838 192.217 13.0319C192.637 12.7632 193.317 12.6289 194.258 12.6289C195.097 12.6289 195.811 12.7297 196.398 12.9312C197.003 13.1159 197.549 13.3341 198.035 13.586L199.169 10.4881C198.615 10.1859 197.91 9.9088 197.053 9.65694C196.197 9.40508 195.181 9.27914 194.006 9.27914C193.015 9.27914 192.125 9.40508 191.336 9.65694C190.547 9.89201 189.875 10.2362 189.321 10.6896C188.767 11.1429 188.339 11.697 188.037 12.3519C187.734 12.9899 187.583 13.7119 187.583 14.5179C187.583 15.3238 187.726 16.0123 188.011 16.5832C188.297 17.1373 188.666 17.6158 189.12 18.0188C189.573 18.405 190.085 18.7324 190.656 19.001C191.227 19.2529 191.798 19.4796 192.369 19.6811C193.678 20.1176 194.602 20.529 195.139 20.9152C195.676 21.2846 195.945 21.7547 195.945 22.3256C195.945 22.5943 195.903 22.8377 195.819 23.056C195.735 23.2743 195.584 23.4674 195.366 23.6353C195.147 23.7864 194.854 23.9124 194.484 24.0131Z" fill="white"/>
</svg>
