<svg width="200" height="50" viewBox="0 0 200 50" fill="none" xmlns="http://www.w3.org/2000/svg">
<path d="M70.4729 13.8254H74.2564V9.84888H76.3412V19.6551H74.2564V15.5627H70.4729V19.6551H68.4268V9.84888H70.4729V13.8254Z" fill="white"/>
<path d="M79.5839 9.84888H77.4219V19.6551H79.5839V9.84888Z" fill="white"/>
<path d="M84.217 13.8254H89.0815V19.6551H84.6416C83.4448 19.6551 82.5182 19.5779 81.5145 18.8057C80.5107 17.995 80.0088 16.7209 80.0088 14.945C80.0088 11.4704 81.4759 9.84888 84.6416 9.84888H89.0815V11.5476H84.6416C82.9815 11.5476 82.3252 12.59 82.3252 14.8292C82.3252 16.914 82.9815 17.8792 84.6416 17.8792H86.9581V15.5627H84.1784V13.8254H84.217Z" fill="white"/>
<path d="M91.8997 13.8254H95.6832V9.84888H97.768V19.6551H95.6832V15.5627H91.8997V19.6551H89.8535V9.84888H91.8997V13.8254Z" fill="white"/>
<path d="M103.29 13.8254H109.003V15.5242H103.29C103.29 17.3001 103.984 17.9178 105.645 17.9178H109.042V19.6165H105.567C104.371 19.6165 103.444 19.5393 102.517 18.7672C101.514 17.9564 101.012 16.6824 101.012 14.9064C101.012 11.4318 102.479 9.8103 105.645 9.8103H109.081V11.509H105.645C104.139 11.5476 103.367 12.2812 103.29 13.8254Z" fill="white"/>
<path d="M112.207 9.84888L116.222 16.914L116.107 9.84888H118.23V19.6551H115.836L111.59 12.2425L111.705 19.6551H109.582V9.84888H112.207Z" fill="white"/>
<path d="M123.713 9.84888C126.879 9.84888 128.346 11.4704 128.346 14.945C128.346 16.7209 127.844 17.995 126.84 18.8057C125.875 19.5779 124.987 19.6551 123.79 19.6551H119.234V9.84888H123.713ZM121.281 11.5476V17.9564H123.674C125.489 17.9564 126.068 17.1842 126.068 14.752C126.068 12.3583 125.489 11.5476 123.674 11.5476H121.281Z" fill="white"/>
<path d="M134.869 11.5862C133.788 11.5862 133.287 11.9723 133.287 12.8602C133.287 13.5552 133.711 13.9412 134.599 13.9412H137.34C139.541 13.9412 140.467 14.6748 140.467 16.7209C140.467 18.7671 139.348 19.6551 137.031 19.6551H131.511V17.9178H136.684C137.765 17.9178 138.267 17.6475 138.267 16.7982C138.267 15.9102 137.804 15.6786 136.8 15.6786H134.368C132.128 15.6786 131.086 14.8292 131.086 12.8602C131.086 10.7368 132.206 9.84888 134.522 9.84888H139.927V11.5862H134.869Z" fill="white"/>
<path d="M142.476 9.84888L144.908 13.5938L147.34 9.84888H149.734L145.95 15.3311V19.6551H143.904V15.3311L140.159 9.84888H142.476Z" fill="white"/>
<path d="M152.552 11.5862C151.471 11.5862 150.969 11.9723 150.969 12.8602C150.969 13.5552 151.393 13.9412 152.281 13.9412H155.022C157.223 13.9412 158.15 14.6748 158.15 16.7209C158.15 18.7671 157.03 19.6551 154.714 19.6551H149.231V17.9178H154.405C155.486 17.9178 155.988 17.6475 155.988 16.7982C155.988 15.9102 155.524 15.6786 154.521 15.6786H152.088C149.849 15.6786 148.807 14.8292 148.807 12.8602C148.807 10.7368 149.926 9.84888 152.243 9.84888H157.648V11.5862H152.552Z" fill="white"/>
<path d="M157.995 11.5862V9.84888H166.45V11.5862H163.284V19.6551H161.161V11.5862H157.995Z" fill="white"/>
<path d="M168.38 13.8254H174.094V15.5242H168.38C168.38 17.3001 169.075 17.9178 170.735 17.9178H174.133V19.6165H170.658C169.461 19.6165 168.535 19.5393 167.608 18.7672C166.604 17.9564 166.103 16.6824 166.103 14.9064C166.103 11.4318 167.57 9.8103 170.735 9.8103H174.171V11.509H170.774C169.191 11.5476 168.458 12.2812 168.38 13.8254Z" fill="white"/>
<path d="M177.685 9.84888L180.194 17.3773L182.704 9.84888H185.715V19.6551H183.669L183.862 12.0109L181.314 19.6551H179.152L176.565 11.9337L176.758 19.6551H174.635V9.84888H177.685Z" fill="white"/>
<path d="M189.963 11.5862C188.882 11.5862 188.38 11.9723 188.38 12.8602C188.38 13.5552 188.804 13.9412 189.692 13.9412H192.434C194.634 13.9412 195.561 14.6748 195.561 16.7209C195.561 18.7671 194.441 19.6551 192.125 19.6551H186.642V17.9178H191.816C192.897 17.9178 193.399 17.6475 193.399 16.7982C193.399 15.9102 192.935 15.6786 191.932 15.6786H189.499C187.26 15.6786 186.218 14.8292 186.218 12.8602C186.218 10.7368 187.337 9.84888 189.654 9.84888H195.059V11.5862H189.963Z" fill="white"/>
<path d="M49.1616 36.1018C49.7793 36.1018 50.2812 36.6037 50.2812 37.2214C50.2812 37.8391 49.7793 38.341 49.1616 38.341C48.5439 38.341 48.042 37.8391 48.042 37.2214C48.042 36.6037 48.5053 36.1018 49.1616 36.1018ZM49.1616 38.2252C49.7021 38.2252 50.0882 37.8005 50.0882 37.26C50.0882 36.7195 49.7021 36.2948 49.1616 36.2948C48.6211 36.2948 48.235 36.7195 48.235 37.26C48.235 37.8005 48.6211 38.2252 49.1616 38.2252ZM48.6983 36.6037H49.2002C49.5091 36.6037 49.6635 36.7195 49.6635 36.9898C49.6635 37.2214 49.5477 37.3758 49.316 37.3758L49.7021 37.9549H49.4705L49.0844 37.3758H48.8913V37.9549H48.6597V36.6037H48.6983ZM48.93 37.1442H49.2002C49.3546 37.1442 49.4705 37.1056 49.4705 36.9512C49.4705 36.7967 49.3546 36.7581 49.2002 36.7581H48.93V37.1442Z" fill="white"/>
<path d="M118.385 26.3341V26.3727H125.257C125.682 26.3727 126.299 26.0252 126.376 25.3689V25.3303H119.504C119.08 25.3303 118.423 25.6778 118.385 26.3341Z" fill="white"/>
<path d="M118.385 30.1564V30.195H125.257C125.682 30.195 126.299 29.8475 126.376 29.1912V29.1526H119.504C119.08 29.1526 118.423 29.5001 118.385 30.1564Z" fill="white"/>
<path d="M118.385 33.7467V33.7853H125.257C125.682 33.7853 126.299 33.4379 126.376 32.7815V32.7429H119.504C119.08 32.7429 118.423 33.0904 118.385 33.7467Z" fill="white"/>
<path d="M135.642 25.3303H128.77C128.345 25.3303 127.728 25.6778 127.65 26.3341V26.3727H131.086V33.7853H132.167V26.3727H134.522C134.947 26.3727 135.565 26.0252 135.642 25.3689V25.3303Z" fill="white"/>
<path d="M139.695 32.7429C138.846 32.7429 138.19 32.3182 137.611 31.7391C137.032 31.16 136.684 30.3492 136.684 29.5385C136.684 28.7277 136.993 27.917 137.611 27.3379C138.19 26.7588 138.885 26.4113 139.695 26.4113H142.359C142.784 26.4113 143.44 26.0638 143.518 25.4075V25.3689H139.695C137.379 25.3689 135.487 27.2607 135.487 29.5771C135.487 31.8549 137.34 33.8239 139.618 33.8625H139.734H142.205H142.514C142.938 33.8625 143.595 33.515 143.672 32.8587V32.8201H139.695V32.7429Z" fill="white"/>
<path d="M144.869 32.7043C145.216 32.7043 145.448 32.9746 145.448 33.2835C145.448 33.6309 145.178 33.8626 144.869 33.8626C144.521 33.8626 144.29 33.5923 144.29 33.2835C144.251 32.9746 144.521 32.7043 144.869 32.7043ZM144.869 33.7467C145.101 33.7467 145.294 33.5537 145.294 33.2835C145.294 33.0132 145.101 32.8202 144.869 32.8202C144.637 32.8202 144.444 33.0132 144.444 33.2835C144.444 33.5537 144.637 33.7467 144.869 33.7467ZM144.637 32.936H144.869C145.023 32.936 145.139 32.9746 145.139 33.129C145.139 33.2448 145.062 33.2835 144.946 33.3221L145.139 33.5923H144.985L144.83 33.3221H144.753V33.5923H144.637V32.936ZM144.869 33.2449C144.946 33.2449 144.985 33.2449 144.985 33.1676C144.985 33.0904 144.908 33.0904 144.869 33.0904H144.753V33.2449H144.869Z" fill="white"/>
<path d="M101.784 28.8049C102.286 28.496 102.865 28.303 103.56 28.303C105.104 28.303 105.76 29.0751 105.76 30.5422V32.7814C105.76 33.3991 105.799 33.708 105.799 33.8624H104.872V33.1675C104.641 33.5149 104.1 34.0168 103.174 34.0168C102.015 34.0168 101.166 33.5149 101.166 32.3181C101.166 30.9669 102.672 30.5422 103.714 30.5422C104.1 30.5422 104.37 30.5422 104.795 30.5808C104.795 29.6542 104.448 29.1523 103.444 29.1523C102.865 29.1523 102.286 29.384 101.861 29.6928L101.784 28.8049ZM104.756 31.2371C104.525 31.2371 104.332 31.1985 104.1 31.1985C103.56 31.1985 102.208 31.2757 102.208 32.2409C102.208 32.82 102.749 33.1289 103.212 33.1289C104.216 33.1289 104.718 32.5112 104.718 31.7004V31.2371H104.756Z" fill="white"/>
<path d="M107.497 28.4191H108.462V29.2684H108.501C108.81 28.6507 109.543 28.2646 110.277 28.2646C111.667 28.2646 112.323 29.1526 112.323 30.6197V33.8627H111.319V31.0444C111.319 29.7703 111.049 29.1526 110.161 29.114C109.003 29.114 108.501 30.0406 108.501 31.3532V33.8627H107.497V28.4191Z" fill="white"/>
<path d="M154.829 27.6081C154.366 27.3379 153.826 27.1834 153.285 27.1834C151.586 27.1834 150.428 28.4189 150.428 30.079C150.428 31.8163 151.702 32.9745 153.247 32.9745C153.787 32.9745 154.482 32.8201 154.868 32.627L154.945 33.6694C154.366 33.9011 153.671 33.9397 153.247 33.9397C150.891 33.9397 149.309 32.434 149.309 30.0404C149.309 27.7625 150.969 26.2183 153.247 26.2183C153.826 26.2183 154.405 26.2955 154.907 26.5271L154.829 27.6081Z" fill="white"/>
<path d="M158.536 28.2646C160.196 28.2646 161.315 29.4615 161.315 31.1216C161.315 32.6659 160.196 33.9785 158.536 33.9785C156.875 33.9785 155.756 32.7045 155.756 31.1216C155.756 29.4615 156.875 28.2646 158.536 28.2646ZM158.536 33.1678C159.694 33.1678 160.234 32.0868 160.234 31.1216C160.234 30.0792 159.617 29.0754 158.536 29.0754C157.455 29.0754 156.837 30.0792 156.837 31.1216C156.798 32.0868 157.339 33.1678 158.536 33.1678Z" fill="white"/>
<path d="M162.628 28.4191H163.554V29.1912H163.593C163.979 28.5735 164.52 28.2646 165.33 28.2646C165.948 28.2646 166.604 28.5735 166.875 29.307C167.261 28.5349 168.072 28.2646 168.573 28.2646C169.963 28.2646 170.465 29.1526 170.465 30.3494V33.8241H169.461V30.5811C169.461 29.9248 169.307 29.0754 168.496 29.0754C167.454 29.0754 167.068 30.0792 167.068 31.083V33.8241H166.064V30.5811C166.064 29.9248 165.91 29.0754 165.099 29.0754C164.056 29.0754 163.67 30.0792 163.67 31.083V33.8241H162.667V28.4191H162.628Z" fill="white"/>
<path d="M172.126 28.4188H173.091V29.1909H173.13C173.4 28.7663 174.018 28.303 174.983 28.303C176.566 28.303 177.338 29.577 177.338 31.0441C177.338 32.5498 176.643 33.9782 174.983 33.9782C174.018 33.9782 173.477 33.5922 173.168 33.0903H173.13V36.063H172.126V28.4188ZM174.751 29.0751C173.67 29.0751 173.13 30.1175 173.13 31.1213C173.13 32.0093 173.593 33.1675 174.713 33.1675C175.794 33.1675 176.257 31.9707 176.218 31.1213C176.257 30.1175 175.832 29.0751 174.751 29.0751Z" fill="white"/>
<path d="M178.882 28.8049C179.384 28.496 179.963 28.303 180.658 28.303C182.202 28.303 182.858 29.0751 182.858 30.5422V32.7814C182.858 33.3991 182.897 33.708 182.897 33.8624H181.97V33.1675H181.932C181.7 33.5149 181.16 34.0168 180.233 34.0168C179.075 34.0168 178.226 33.5149 178.226 32.3181C178.226 30.9669 179.731 30.5422 180.774 30.5422C181.16 30.5422 181.43 30.5422 181.855 30.5808C181.855 29.6542 181.507 29.1523 180.503 29.1523C179.924 29.1523 179.345 29.384 178.921 29.6928L178.882 28.8049ZM181.893 31.2371C181.662 31.2371 181.469 31.1985 181.237 31.1985C180.696 31.1985 179.345 31.2757 179.345 32.2409C179.345 32.82 179.886 33.1289 180.349 33.1289C181.353 33.1289 181.855 32.5112 181.855 31.7004V31.2371H181.893Z" fill="white"/>
<path d="M184.557 28.4191H185.522V29.2684H185.56C185.869 28.6507 186.603 28.2646 187.336 28.2646C188.726 28.2646 189.383 29.1526 189.383 30.6197V33.8627H188.379V31.0444C188.379 29.7703 188.108 29.1526 187.221 29.114C186.062 29.114 185.56 30.0406 185.56 31.3532V33.8627H184.557V28.4191Z" fill="white"/>
<path d="M190.696 35.3297C190.811 35.3683 191.005 35.4069 191.159 35.4069C192.047 35.4069 192.356 34.1714 192.356 34.0556C192.356 33.9398 192.24 33.6695 192.163 33.4765L190.31 28.3804H191.391L192.858 32.8974H192.896L194.402 28.3804H195.406L193.398 33.9398C193.012 34.9822 192.626 36.179 191.313 36.179C191.005 36.179 190.811 36.1404 190.618 36.1018L190.696 35.3297Z" fill="white"/>
<path d="M53.5632 5.52495C51.9031 2.59081 40.4368 3.51738 40.4368 3.51738C40.4368 3.51738 33.1401 -1.46293 24.3763 0.428814C15.5738 2.32056 11.9062 8.72935 11.9062 8.72935C11.9062 8.72935 -0.139256 12.7059 0.285422 14.8679C0.594279 16.5666 6.61699 16.9527 18.1219 15.3698C31.673 13.478 36.2673 11.0458 36.2673 11.0458C36.3445 11.4705 31.5958 13.9027 25.0326 15.64C19.3959 17.1457 8.19988 18.2267 8.19988 18.2267C8.19988 18.2267 8.04545 19.4621 8.04545 20.3115C8.04545 21.1222 8.19988 22.1646 8.19988 22.1646C8.19988 22.1646 4.60942 22.3576 2.60185 21.7013C0.285422 20.9292 2.8721 18.6514 2.8721 18.6514L1.55946 18.4197C1.55946 18.4197 -0.448113 20.1571 0.0923864 21.6627C0.7101 23.3614 6.53978 23.3228 11.2498 23.014C15.9599 22.7051 22.2915 21.7013 27.2332 20.4273C32.1749 19.1533 43.4096 15.7558 47.6177 13.2078C50.0114 11.7021 55.2233 8.45909 53.5632 5.52495ZM9.89859 12.1654C9.55113 12.9375 8.66317 15.1381 8.66317 15.1381C8.66317 15.1381 0.32403 15.7172 2.52464 13.7097C4.41638 11.9723 8.58595 10.5053 10.4391 9.92616C10.941 9.77173 11.2885 9.69452 11.3657 9.69452C11.3271 9.84895 10.2847 11.3932 9.89859 12.1654ZM47.4247 11.7793C47.4247 11.7793 45.9962 9.15401 44.5678 7.41669C43.371 5.91102 41.402 4.28953 41.402 4.28953C42.0583 4.25092 50.938 3.82624 51.5557 6.41292C52.212 9.19263 47.4247 11.7793 47.4247 11.7793ZM9.01063 26.45C9.01063 26.45 19.2029 25.9867 28.8547 23.4773C37.6185 21.1994 48.8532 16.2191 48.8532 16.2191C48.8532 16.2191 49.0848 17.3387 49.2006 18.0337C49.3165 18.7286 49.2779 19.6165 49.2779 19.6165C49.2779 19.6165 53.3316 17.2229 54.1423 14.9451C54.6828 13.4008 53.6018 12.1654 53.6018 12.1654L54.8373 10.9299C54.8373 10.9299 57.0379 13.6324 55.4936 15.8331C53.6018 18.5356 50.3975 20.6976 44.8766 23.207C42.29 24.3652 35.3021 27.1449 28.7389 28.6506C21.2491 30.3879 14.2226 30.8512 13.1416 30.8512C11.0954 30.8512 3.10374 31.2373 2.37021 28.7664C1.94553 27.2994 3.29678 25.9867 3.29678 25.9867L4.4936 26.1798C4.4936 26.1798 3.25817 27.8785 4.37778 28.6892C4.80245 28.9981 5.99928 29.3841 7.15749 29.6158C8.2771 29.8088 10.2847 29.9246 10.2847 29.9246C10.2847 29.9246 9.82138 29.0367 9.51252 28.2259C9.20367 27.338 9.01063 26.45 9.01063 26.45ZM13.4504 34.1328C13.4504 34.1328 20.4383 34.4803 32.1749 31.3145C42.9077 28.4576 48.6215 24.5969 48.6215 24.5969C48.6215 24.5969 48.4671 26.2956 48.0038 27.6468C47.5405 29.0367 46.6912 30.4651 46.6912 30.4651C46.6912 30.4651 51.0538 27.7626 53.2544 24.9057C55.1461 22.4349 54.181 20.8134 54.181 20.8134L55.7638 19.6938C55.7638 19.6938 57.3081 22.2032 54.8759 25.176C53.6791 26.643 50.7835 29.3842 46.2665 31.5075C39.7419 34.5961 31.2483 36.7967 31.2869 36.8739C31.3641 36.9897 34.1825 36.4879 37.1166 35.7543C41.4792 34.6347 43.564 33.824 44.4906 33.5537C44.7222 33.4765 38.6609 40.503 30.6306 40.8891C30.6306 40.8891 25.2642 41.2365 20.9016 39.4606C15.8055 37.4144 13.4891 34.21 13.4504 34.1714C13.4504 34.2486 13.4504 34.1328 13.4504 34.1328Z" fill="white"/>
<path d="M102.941 42.3177C109.659 41.6227 117.419 40.6961 125.874 39.8854C130.854 39.4221 139.657 38.5341 152.281 38.1095C163.439 37.8006 172.241 38.2253 178.689 38.7658C183.437 39.1519 188.186 39.731 192.935 40.5031C193.707 40.9664 194.826 41.4683 196.448 42.086C197.645 42.5493 198.803 43.0126 200 43.5145C199.189 43.7461 198.378 43.9778 197.568 44.2094C197.568 44.3638 198.378 44.5955 199.498 44.9043C198.185 44.7499 196.216 44.3252 196.139 44.9815C196.911 45.522 196.255 46.7961 196.525 47.298C195.83 47.3366 195.174 47.3752 194.518 47.4524C184.016 44.6727 173.438 43.1284 162.821 42.3562C155.602 41.5069 146.876 41.198 136.839 41.4683C133.557 41.5455 128.77 41.7385 122.013 42.1246C115.257 42.5107 110.2 42.8967 106.725 43.1284C105.914 43.167 104.602 43.2828 102.787 43.4373C101.166 43.5917 100.007 43.6689 99.351 43.7075C98.1928 43.7847 97.3821 43.8233 96.8802 43.7847C97.3434 43.7075 97.3435 43.7075 97.3435 43.6689C97.3048 43.5917 94.641 43.5917 94.641 43.5531C94.641 43.5145 94.9498 43.4759 95.2587 43.3986C96.8802 43.2056 98.5017 43.0126 100.123 42.8195C98.965 42.9354 95.8764 43.2828 94.2549 43.3986C94.5637 43.2828 95.8378 43.1284 97.8067 42.8968C99.5827 42.7037 101.243 42.5107 102.941 42.3177ZM101.899 42.1246C99.7757 42.3563 99.2738 42.5107 96.6485 42.7809C98.4245 42.5493 100.895 42.2018 104.022 41.8544C103.714 41.893 103.057 42.0088 101.899 42.1246ZM101.899 42.1246C99.7757 42.3563 99.2738 42.5107 96.6485 42.7809C98.4245 42.5493 100.895 42.2018 104.022 41.8544C103.714 41.893 103.057 42.0088 101.899 42.1246ZM106.802 43.2442C123.017 42.1246 133.596 41.7385 138.653 41.6999C150.004 41.5069 159.694 42.086 167.531 43.2828C171.315 43.5531 175.561 44.0164 180.465 44.9043C188.109 46.2942 192.51 47.5682 193.321 47.7612C194.518 48.3404 195.753 48.9967 196.95 49.653C193.552 48.572 187.916 47.0277 179.924 45.5993C172.589 44.3638 166.875 43.7075 162.628 43.3214C155.756 42.6651 149.54 42.3176 144.097 42.086C137.958 42.0474 131.82 42.1632 125.681 42.3949V42.4335C124.368 42.4335 123.056 42.4721 121.396 42.5493C119.581 42.6651 118.114 42.7423 117.11 42.7423C113.674 42.9354 110.238 43.1284 106.764 43.3214V43.2828C106.107 43.3214 105.297 43.36 104.486 43.4373C103.019 43.5531 102.208 43.6303 102.054 43.6303C103.675 43.5145 105.219 43.3986 106.802 43.2442ZM106.802 43.2442C123.017 42.1246 133.596 41.7385 138.653 41.6999C150.004 41.5069 159.694 42.086 167.531 43.2828C171.315 43.5531 175.561 44.0164 180.465 44.9043C188.109 46.2942 192.51 47.5682 193.321 47.7612C194.518 48.3404 195.753 48.9967 196.95 49.653C193.552 48.572 187.916 47.0277 179.924 45.5993C172.589 44.3638 166.875 43.7075 162.628 43.3214C155.756 42.6651 149.54 42.3176 144.097 42.086C137.958 42.0474 131.82 42.1632 125.681 42.3949V42.4335C124.368 42.4335 123.056 42.4721 121.396 42.5493C119.581 42.6651 118.114 42.7423 117.11 42.7423C113.674 42.9354 110.238 43.1284 106.764 43.3214V43.2828C106.107 43.3214 105.297 43.36 104.486 43.4373C103.019 43.5531 102.208 43.6303 102.054 43.6303C103.675 43.5145 105.219 43.3986 106.802 43.2442ZM129.04 39.1133C126.762 39.3449 124.484 39.5765 122.245 39.8468C121.859 39.8468 121.473 39.8468 121.087 39.8854C122.747 39.6538 124.909 39.4221 127.882 39.0746C132.862 38.5341 135.371 38.3025 135.371 38.3025C133.518 38.5728 131.549 38.843 129.04 39.1133ZM129.04 39.1133C126.762 39.3449 124.484 39.5765 122.245 39.8468C121.859 39.8468 121.473 39.8468 121.087 39.8854C122.747 39.6538 124.909 39.4221 127.882 39.0746C132.862 38.5341 135.371 38.3025 135.371 38.3025C133.518 38.5728 131.549 38.843 129.04 39.1133ZM153.015 37.1443C151.857 37.2215 150.66 37.2987 149.502 37.4145C150.042 37.3373 150.621 37.2601 151.162 37.1829C151.818 37.1443 152.436 37.1443 153.015 37.1443ZM153.015 37.1443C151.857 37.2215 150.66 37.2987 149.502 37.4145C150.042 37.3373 150.621 37.2601 151.162 37.1829C151.818 37.1443 152.436 37.1443 153.015 37.1443Z" fill="white"/>
</svg>
