<svg width="201" height="24" viewBox="0 0 201 24" fill="none" xmlns="http://www.w3.org/2000/svg">
<path fill-rule="evenodd" clip-rule="evenodd" d="M0.899902 23.2998V0.599609H23.6001V23.2998H0.899902ZM2.63325 2.33295V21.2665H21.6334C21.6334 10.833 13.1 2.33295 2.63325 2.33295ZM16.7667 7.16634H21.6001V2.33295H16.7667V7.16634ZM64.2673 14.7327H58.6339L64.2673 9.29927V14.7327ZM64.134 18.6994H69.3341V5.09923H64.034L48.1672 18.6994H54.6672C55.7339 17.9327 57.7673 17.4327 59.7673 17.4327C61.6006 17.366 63.5007 17.666 64.134 18.6994ZM100.068 8.66592C102.534 8.66592 104.901 9.96594 104.534 11.9993C104.268 13.866 101.668 15.1327 99.2344 15.1327C96.7677 15.1327 94.501 13.8327 94.7676 11.7993C95.0676 9.93261 97.601 8.66592 100.068 8.66592ZM98.501 19.1327C104.501 19.1327 109.734 15.766 110.368 11.8326C110.934 8.13259 106.968 4.69922 100.901 4.69922C94.8676 4.69922 89.6343 8.06592 89.1009 11.9993C88.4676 15.7993 92.4676 19.1327 98.501 19.1327ZM86.2676 8.86593L87.9009 5.06589C86.6342 4.79922 85.1675 4.69922 83.7009 4.69922C77.6675 4.69922 72.4674 8.06592 71.9007 11.9993C71.2674 15.7993 74.6341 19.1327 80.5675 19.1327C81.9342 19.1327 83.6009 18.9994 85.0342 18.6327L86.6009 14.8327C85.1342 15.0993 83.1342 15.266 82.0342 15.166C78.8341 15.166 77.3008 13.866 77.5675 11.8326C77.8675 9.96594 80.4008 8.69926 82.8675 8.69926C83.9009 8.69926 85.1675 8.69926 86.2676 8.86593ZM44.0005 14.7327H38.3671V5.13256H32.6003V18.7327H44.0005V14.7327ZM53.4339 10.2993H46.9338V16.3327L53.4339 10.2993ZM125.868 12.3326C125.235 13.966 123.801 15.066 121.035 15.1327C118.635 15.1993 117.368 13.6326 118.035 11.4993L120.868 5.13256H115.668L113.035 11.3326C112.984 11.4493 112.943 11.5826 112.901 11.716C112.859 11.8493 112.818 11.9826 112.768 12.0993C111.701 15.9327 114.601 19.1327 119.801 19.1327C125.968 19.1327 129.801 16.066 131.368 12.266L134.468 5.13256H129.268L125.868 12.3326ZM138.535 14.8327C138.101 14.9993 137.635 15.066 137.101 15.066C136.068 15.1327 134.801 15.066 133.501 14.766L131.835 18.4994L132.935 18.666C139.168 19.966 144.168 18.2327 144.801 15.6327C144.968 14.9327 145.068 14.366 144.801 13.8326L143.368 9.96595C143.313 9.78076 143.226 9.59557 143.132 9.39323C143.056 9.23136 142.976 9.05852 142.901 8.86593C142.735 8.36592 142.635 7.83258 142.635 7.33258C142.568 6.53257 142.735 5.7659 143.201 5.09923H137.735C136.735 5.9659 137.101 7.76592 137.368 8.43259L139.368 13.266C139.468 13.4326 139.468 13.6993 139.468 13.866C139.268 14.3993 138.901 14.666 138.535 14.8327ZM166.402 5.09923L160.635 18.6994H165.835L171.402 5.09923H166.402ZM147.682 18.666L147.668 18.6994V18.666H147.682ZM151.968 8.66592L147.682 18.666H152.968C153 18.5873 153.039 18.4891 153.084 18.3737C153.426 17.5122 154.145 15.6965 154.968 13.9327C155.064 13.7209 155.16 13.5063 155.257 13.2908C156.243 11.0975 157.268 8.81768 157.602 8.66592H161.635L163.202 5.09923H148.702L146.968 8.66592H151.968ZM185.869 8.86593L187.535 5.06589C186.269 4.79922 184.802 4.69922 183.269 4.69922C177.268 4.69922 172.035 8.06592 171.502 11.9993C170.868 15.7993 174.135 19.1327 180.169 19.1327C181.535 19.1327 183.202 18.9994 184.635 18.6327L186.202 14.8327C184.735 15.0993 182.735 15.266 181.635 15.166C178.435 15.166 176.902 13.866 177.169 11.8326C177.469 9.96594 180.002 8.69926 182.469 8.69926C183.402 8.69926 184.769 8.69926 185.869 8.86593ZM194.469 14.8327C194.035 14.9993 193.569 15.066 193.035 15.066C192.002 15.1327 190.735 15.066 189.435 14.766L187.769 18.4994L188.869 18.666C195.102 19.966 200.102 18.2327 200.735 15.6327C200.902 14.9327 201.002 14.366 200.735 13.8326L199.302 9.96595C199.246 9.78074 199.16 9.59554 199.066 9.39318C198.99 9.23133 198.909 9.0585 198.835 8.86593C198.679 8.47613 198.605 8.06607 198.532 7.66734C198.511 7.55461 198.491 7.44278 198.469 7.33258C198.469 6.53257 198.569 5.7659 199.102 5.09923H193.635C192.635 5.9659 193.002 7.76592 193.269 8.43259L195.269 13.266C195.369 13.4326 195.369 13.6993 195.269 13.866C195.202 14.3993 194.835 14.666 194.469 14.8327Z" fill="white"/>
</svg>
