<svg width="200" height="50" viewBox="0 0 200 50" fill="none" xmlns="http://www.w3.org/2000/svg">
<path fill-rule="evenodd" clip-rule="evenodd" d="M200 0H193.162H166.382V7.40741H193.162L193.162 23.9316H200V0ZM0 17.094H6.83761V42.735H22.792V49.5727H6.83761H6.26781H0V17.094ZM37.037 17.094H38.1766H43.8746H45.0142L56.4103 49.5727H49.5726L47.7733 44.4444H34.278L32.4786 49.5727H25.641L37.037 17.094ZM41.0256 25.2137L45.3741 37.6068H36.6772L41.0256 25.2137ZM134.31 39.3162H129.345V49.5727H122.507V39.3162V17.094H129.345H135.897C142.034 17.094 147.009 22.0686 147.009 28.2051C147.009 32.6755 144.369 36.5292 140.563 38.2923L147.009 49.5726H140.171L134.31 39.3162ZM129.345 23.9316H135.897C138.258 23.9316 140.171 25.8449 140.171 28.2051C140.171 30.5653 138.258 32.4786 135.897 32.4786H129.345V23.9316ZM58.9744 17.094H59.2593H65.9363H66.0969V17.3494L75.0712 31.6239L84.0637 17.094H84.3305H91.0256H91.1681V49.5727H84.3305V28.3323L75.0712 43.8746L66.0969 28.9438V49.5727H59.2593V17.568L58.9744 17.094ZM95.1567 49.5727H101.994V39.3162H108.547C114.684 39.3162 119.658 34.3416 119.658 28.2051C119.658 22.0686 114.684 17.094 108.547 17.094H101.994H95.1567V39.3162V49.5727ZM108.547 32.4786H101.994V23.9316H108.547C110.907 23.9316 112.821 25.8449 112.821 28.2051C112.821 30.5653 110.907 32.4786 108.547 32.4786ZM176.068 33.3333C176.068 38.5258 171.859 42.735 166.667 42.735C161.474 42.735 157.265 38.5258 157.265 33.3333C157.265 28.1409 161.474 23.9316 166.667 23.9316C171.859 23.9316 176.068 28.1409 176.068 33.3333ZM182.906 33.3333C182.906 42.3021 175.635 49.5727 166.667 49.5727C157.698 49.5727 150.427 42.3021 150.427 33.3333C150.427 24.3646 157.698 17.094 166.667 17.094C175.635 17.094 182.906 24.3646 182.906 33.3333Z" fill="white"/>
</svg>
