<svg width="200" height="48" viewBox="0 0 200 48" fill="none" xmlns="http://www.w3.org/2000/svg">
<path d="M36.8665 22.5668L33.2665 21.0334L26.8998 24.8668L24.5665 18.6001L20.2665 21.3334L20.7998 22.6334L30.1331 26.3668L26.6998 35.8334L28.8331 36.5668L27.8998 39.1001L23.1665 37.4334L26.5665 27.9334L21.9665 26.0668L24.0665 31.4334L12.4998 31.4668L11.8665 33.5334L9.2998 32.6001L10.6331 28.8334H20.2331L16.9998 20.1668L23.5665 16.1334L22.1998 12.5001L17.0998 19.4001L13.0998 17.8001L14.1998 15.1668L16.2998 16.0334L21.5331 9.03345L24.2998 10.1668L28.3331 20.8334L33.1331 18.0001L37.9665 19.9668L36.8665 22.5668ZM30.3665 15.1334C31.0665 15.1334 31.6665 14.5668 31.6665 13.8334C31.6665 13.1001 31.0998 12.5334 30.3665 12.5334C29.6665 12.5334 29.0665 13.1001 29.0665 13.8334C29.0665 14.5334 29.6665 15.1334 30.3665 15.1334ZM26.4998 13.8334C26.4998 11.6668 28.2331 9.93344 30.3665 9.93344C32.4998 9.93344 34.2331 11.6668 34.2331 13.8334C34.2331 16.0001 32.4998 17.7334 30.3665 17.7334C28.2331 17.7334 26.4998 15.9668 26.4998 13.8334Z" fill="white"/>
<path d="M0 23.8C0 36.9333 10.5667 47.6 23.5667 47.6C36.5667 47.6 47.1333 36.9333 47.1333 23.8C47.1333 10.6667 36.5667 0 23.5667 0C10.5667 0 0 10.7 0 23.8ZM1.93333 23.8C1.93333 11.7667 11.6333 1.93333 23.5667 1.93333C35.5 1.93333 45.2 11.7333 45.2 23.8C45.2 35.8667 35.5 45.6667 23.5667 45.6667C11.6333 45.6667 1.93333 35.8667 1.93333 23.8Z" fill="white"/>
<path d="M191.666 19.7V26.1333H178.6V27.8666H191.7V32.5333H178.633V34.1333H191.7V39.1666H167.866V19.7333H191.666" fill="white"/>
<path d="M154.967 19.7H165.7V39.1333H154.967V19.7Z" fill="white"/>
<path d="M154.633 19.7H141.633L136.567 27.2333V19.7H125.767V39.1333H136.5V32.7999L141.667 39.1333H154.033L145.6 29.7666L154.633 19.7Z" fill="white"/>
<path d="M88.9332 24.4667L91.2999 31.3667H87.8999V36.7334H92.4999L93.1665 39.1001H104.433L97.5332 19.6667H80.4332L73.5332 39.1001H84.4332L88.9332 24.4667Z" fill="white"/>
<path d="M73.5 19.7001V39.1334H63.3667V29.3334L59.5333 39.1334H53.8333L50 28.9001V39.1334H40V19.6667H53.5667L56.9 29.6667L60.0667 19.7001H73.5Z" fill="white"/>
<path d="M200 36.9332C200 38.2999 199.033 39.5333 196.666 39.5333C194.3 39.5333 193.333 38.1666 193.333 36.9332C193.333 35.6999 194.3 34.3333 196.666 34.3333C199.066 34.3333 200 35.5666 200 36.9332Z" fill="white"/>
<path d="M124.1 19.9667C124.1 19.9667 119.3 19.3 114.9 19.3C108.967 19.3 101.967 21.2001 101.967 29.7001C101.967 34.9667 105.767 39.7001 114.1 39.7001C119.067 39.7001 124 38.6334 124 38.6334V32.2334C124 32.2334 122.133 33 117.933 33C113.367 33 113.267 31.1334 113.267 29.7334C113.267 28.3334 114.733 26.9667 118.133 26.9667C122.133 26.9667 124.1 27.5334 124.1 27.5334V19.9667Z" fill="white"/>
<path d="M193.233 21.0666C193.233 20.0333 194.067 19.2 195.067 19.2C196.067 19.2 196.9 20.0333 196.9 21.0666C196.9 22.1 196.1 22.9333 195.067 22.9333C194.067 22.9333 193.233 22.1 193.233 21.0666ZM196.667 21.0666C196.667 20.1666 195.933 19.4333 195.067 19.4333C194.167 19.4333 193.467 20.1666 193.467 21.0666C193.467 21.9666 194.167 22.7 195.067 22.7C195.933 22.7333 196.667 22 196.667 21.0666ZM195.967 22.1333H195.667L195.1 21.1666H194.633V22.1333H194.4V20.0666H195.3C195.467 20.0666 195.633 20.0666 195.8 20.1666C195.967 20.2666 196.033 20.4333 196.033 20.5999C196.033 20.9999 195.767 21.1666 195.4 21.1666L195.967 22.1333ZM195 20.9666H195.167C195.433 20.9666 195.733 20.9333 195.733 20.5999C195.733 20.2666 195.467 20.2333 195.2 20.2333H194.633V20.9666H195Z" fill="white"/>
<path d="M19.7002 37.0334C19.7002 36.3667 20.2335 35.8 20.9335 35.8C21.6002 35.8 22.1335 36.3667 22.1335 37.0334C22.1335 37.7334 21.6002 38.2667 20.9335 38.2667C20.2335 38.2667 19.7002 37.7001 19.7002 37.0334ZM21.9669 37.0334C21.9669 36.4334 21.5002 35.9334 20.9002 35.9334C20.3002 35.9334 19.8335 36.4334 19.8335 37.0334C19.8335 37.6334 20.3002 38.1334 20.9002 38.1334C21.5002 38.1334 21.9669 37.6334 21.9669 37.0334ZM21.5002 37.7334H21.3002L20.9002 37.1H20.6002V37.7334H20.4335V36.3334H21.0335C21.1335 36.3334 21.2669 36.3334 21.3669 36.4001C21.4669 36.4667 21.5335 36.6001 21.5335 36.7001C21.5335 36.9667 21.3335 37.0667 21.1002 37.0667L21.5002 37.7334ZM20.8669 36.9334H20.9669C21.1335 36.9334 21.3335 36.9001 21.3335 36.6667C21.3335 36.4667 21.1335 36.4334 20.9669 36.4334H20.5669V36.9334H20.8669Z" fill="white"/>
</svg>
