<svg width="177" height="32" viewBox="0 0 177 32" fill="none" xmlns="http://www.w3.org/2000/svg">
<g clip-path="url(#clip0_137_2916)">
<path d="M146.375 31.9521H167.653C168.906 31.9537 170.144 31.6827 171.282 31.1578C172.42 30.6328 173.429 29.8665 174.241 28.9121H139.784C140.596 29.8671 141.606 30.6339 142.744 31.1589C143.882 31.6838 145.121 31.9545 146.375 31.9521Z" fill="white"/>
<path d="M50.8557 4.68848H46.0469V10.8442H50.8557V4.68848Z" fill="white"/>
<path d="M50.8557 0.0273438H46.0469V5.46337H50.8557V0.0273438Z" fill="white"/>
<path d="M50.8557 10.7979H46.0469V21.5256H50.8557V10.7979Z" fill="white"/>
<path d="M50.8557 21.3428H46.0469V29.741H50.8557V21.3428Z" fill="white"/>
<path d="M50.8557 28.9121H46.0469V31.9854H50.8557V28.9121Z" fill="white"/>
<path d="M176.6 18.9837V13.9714H145.061C144.374 14.0729 143.674 13.9475 143.065 13.6144C143.005 13.4645 142.794 13.335 142.695 13.1906C142.531 12.9755 142.414 12.7284 142.352 12.4653C142.297 12.1055 142.282 11.7406 142.306 11.3774C142.25 10.9138 142.363 10.4456 142.625 10.0586C142.886 9.67157 143.278 9.39157 143.729 9.26994C144.128 9.20779 144.533 9.19108 144.935 9.22002H176.508C176.378 7.01028 175.591 4.88975 174.247 3.13083H174.271C173.483 2.18198 172.499 1.41479 171.387 0.881775C170.274 0.348762 169.06 0.0625235 167.826 0.0427612C167.247 0.03351 166.668 0.0427612 166.089 0.0427612H157.578H151.789C149.846 0.0427612 147.881 -0.0534515 145.94 0.0427612C144.751 0.100669 143.588 0.404335 142.523 0.93457C141.457 1.4648 140.514 2.21011 139.751 3.12344C138.426 4.8106 137.655 6.86656 137.545 9.00907C137.44 10.1525 137.396 11.2942 137.396 12.4432C137.396 14.2934 137.407 16.1547 137.416 18.0105H168.524C169.177 17.9164 169.843 18.0469 170.413 18.3806C171.769 19.5166 171.459 22.7638 169.303 22.7638C169.007 22.7749 168.709 22.7638 168.413 22.7638H137.507C137.632 24.3576 138.059 25.9131 138.767 27.3469C139.369 28.5529 140.257 29.5932 141.353 30.3772C142.45 31.1612 143.721 31.6651 145.057 31.8448C145.842 31.9421 146.633 31.9792 147.424 31.9558H154.749H163.752C165.509 32.0526 167.27 32.013 169.02 31.8374C170.318 31.6311 171.552 31.1274 172.623 30.3658C173.695 29.6041 174.576 28.6052 175.198 27.4468C176.371 24.7885 176.853 21.8765 176.598 18.9819L176.6 18.9837Z" fill="white"/>
<path d="M102.159 9.24257L102.248 9.23145C102.218 9.237 102.187 9.23517 102.159 9.24257Z" fill="white"/>
<path d="M42.9182 10.7927C42.9124 9.43718 42.7371 8.08776 42.3964 6.77579C41.9755 4.85479 40.9084 3.1363 39.3732 1.90721C37.838 0.678125 35.9277 0.0128333 33.9611 0.0224091H12.4816C11.2382 0.0224091 9.99302 -0.00164414 8.74966 0.0224091C7.60528 0.0460977 6.47718 0.298441 5.43177 0.764585C4.38636 1.23073 3.44475 1.90122 2.66233 2.73668C1.16065 4.48663 0.267261 6.67659 0.116381 8.97759C0.0516227 9.54747 0.0164726 10.121 0.00537109 10.6946V31.9724H4.83082V22.094H4.84561V10.8315C4.91438 10.3845 5.13963 9.97639 5.48118 9.6799C5.82273 9.38342 6.25845 9.2178 6.7107 9.21254H15.8102C16.7353 9.21254 17.8455 9.04416 18.5615 9.79351C19.2313 10.504 19.0499 11.5105 19.0499 12.4024V28.8992V31.9724H23.8994V29.7262V21.3317V11.0832C23.902 10.824 23.9577 10.5681 24.063 10.3313C24.1683 10.0946 24.3211 9.88191 24.5118 9.70644C24.7025 9.53098 24.9272 9.39645 25.1719 9.31119C25.4167 9.22593 25.6763 9.19176 25.9347 9.21074H35.7595C35.9279 9.21074 36.0963 9.21074 36.2647 9.21074C36.7151 9.21688 37.1486 9.38315 37.4876 9.67979C37.8267 9.97643 38.049 10.3841 38.1149 10.8297V22.0921H38.1316V28.8973V31.9706H42.9422V29.7262V10.7927H42.9182Z" fill="white"/>
<path d="M134.315 11.5404C134.328 9.93716 134.142 8.33848 133.76 6.78149H133.769C133.426 5.45195 132.81 4.20859 131.959 3.13097H131.974C131.25 2.255 130.358 1.53246 129.351 1.00568C128.344 0.478904 127.242 0.158518 126.109 0.0632797C125.617 0.0170235 125.119 0.0318286 124.629 0.0318286H108.474C107.062 0.0318286 105.627 -0.0477532 104.219 0.0447591C103.04 0.105711 101.888 0.411838 100.834 0.943569C99.7812 1.4753 98.8505 2.22095 98.1018 3.13283C97.7262 3.62334 97.3914 4.14377 97.1007 4.68889C96.5026 5.92512 96.1132 7.25178 95.9481 8.61513C95.8396 9.30546 95.787 10.0034 95.7908 10.7022V10.8465C95.6946 13.8199 95.7908 16.8099 95.7908 19.7869V21.3448V31.9874H100.601V28.9141V21.3448H100.592C100.559 20.8255 100.57 20.3044 100.624 19.7869C100.942 17.7387 103.658 18.2068 105.133 18.2068H127.506C127.83 18.1945 128.153 18.2637 128.444 18.4081C128.735 18.5526 128.985 18.7678 129.171 19.0338C129.517 19.7515 129.633 20.5587 129.502 21.3448V29.8892V31.9893H134.313V21.3466V19.7887V13.7051C134.313 13.7051 134.337 12.6708 134.313 11.5459C134.311 11.3091 134.33 12.669 134.315 11.5404ZM129.463 12.0528C129.46 12.3256 129.399 12.5947 129.285 12.8424C129.171 13.0902 129.007 13.3113 128.802 13.4912C128.596 13.6711 128.356 13.8058 128.095 13.8867C127.835 13.9675 127.56 13.9927 127.289 13.9605H102.737C102.284 13.9904 101.833 13.8841 101.441 13.6552C101.073 13.3358 100.797 12.9228 100.644 12.4599C100.591 12.1023 100.576 11.7401 100.6 11.3794C100.546 10.9392 100.644 10.4939 100.878 10.1172C101.112 9.74038 101.467 9.45463 101.885 9.30711C102.371 9.19868 102.87 9.16312 103.366 9.20163H126.407C127.169 9.09092 127.948 9.20335 128.647 9.5254C128.847 9.72358 129.033 9.93568 129.203 10.1601C129.37 10.449 129.459 10.777 129.46 11.1111C129.471 11.4238 129.46 11.7402 129.46 12.0547L129.463 12.0528Z" fill="white"/>
<path d="M92.6563 10.7311C92.6424 9.69425 92.5352 8.66072 92.3362 7.64304H92.3547C91.949 5.19379 90.6059 2.99866 88.6098 1.52246C87.1577 0.547843 85.4481 0.0279981 83.6992 0.0292993H53.9658V4.68636V10.8421V24.1935V29.4852V31.9701L65.6223 31.959L82.01 31.9405H83.7011C84.9537 31.9463 86.1924 31.6782 87.3306 31.155C88.4687 30.6318 89.4787 29.8661 90.2898 28.9116H90.2787C91.9119 26.7448 92.7531 24.0837 92.6619 21.3719V10.7311H92.6563ZM87.9326 21.3422C87.5996 23.3535 84.9963 22.9039 83.5309 22.9039H60.4269C60.0027 22.9032 59.5913 22.7591 59.2594 22.495C59.0675 22.3429 58.9078 22.1542 58.7894 21.9399C58.6913 21.7549 58.6525 21.4848 58.5563 21.3497V10.8514C58.6783 10.4024 58.9134 9.99215 59.239 9.6598C59.5744 9.38466 59.9948 9.23431 60.4287 9.23428H85.7771C86.7226 9.23428 87.9326 9.72459 87.9308 10.8606C87.9308 11.6994 87.9308 12.5388 87.9308 13.3788C87.9308 15.9692 87.9308 18.5657 87.9308 21.1683C87.9308 21.2294 87.9308 21.2905 87.9308 21.3534L87.9326 21.3422Z" fill="white"/>
</g>
<defs>
<clipPath id="clip0_137_2916">
<rect width="176.604" height="32" fill="white"/>
</clipPath>
</defs>
</svg>
