<svg width="200" height="39" viewBox="0 0 200 39" fill="none" xmlns="http://www.w3.org/2000/svg">
<path fill-rule="evenodd" clip-rule="evenodd" d="M133.986 8.24219H154.484L153.517 10.9086H147.618L142.818 24.5738H134.286L139.085 10.9086H133.053L133.986 8.24219Z" fill="white"/>
<path fill-rule="evenodd" clip-rule="evenodd" d="M187.114 17.4414H184.947L182.414 24.5406H173.882L179.648 8.20898H196.979C198.546 8.20898 200.579 9.44219 199.846 11.8086C199.546 12.7752 198.979 14.375 198.546 15.6415C198.179 16.7414 197.246 17.4414 196.079 17.4414H194.013L195.513 24.5406H188.48L187.114 17.4414ZM185.914 14.675H190.747C191.28 14.6417 191.88 14.3417 192.113 13.6751L192.68 12.0419C192.88 11.142 192.013 10.8754 191.847 10.8754H187.247L185.914 14.675Z" fill="white"/>
<path fill-rule="evenodd" clip-rule="evenodd" d="M169.615 8.24219L172.649 24.5738C172.682 24.6738 165.349 24.5738 164.483 24.5738L163.683 20.0076H153.351L149.684 24.5738H145.785L158.717 8.24219H169.615ZM163.183 17.4746L162.016 11.3085L160.183 11.3419L155.317 17.4746H163.183Z" fill="white"/>
<path fill-rule="evenodd" clip-rule="evenodd" d="M132.819 8.24232L131.886 10.9087H120.154C119.387 10.9087 118.887 11.342 118.721 11.8419L118.654 12.0419C118.587 12.2086 118.187 13.3751 118.154 13.4751C117.987 13.9084 118.487 14.7416 119.187 14.7416H126.62C128.22 14.7416 129.886 16.3415 129.153 18.3746L127.586 22.8075C127.353 23.5074 126.487 24.5406 125.12 24.5406H103.056C103.622 23.874 104.322 22.4075 104.589 21.6076C105.955 21.6742 109.855 21.6742 110.888 21.6742H118.121H119.087C119.487 21.6742 119.887 21.3409 120.021 21.0076L120.654 19.2412C120.887 18.5412 120.421 17.7747 119.654 17.808H113.388L111.621 17.7747C110.122 17.7413 108.788 15.8748 109.288 14.4417C109.322 14.3083 109.655 13.4418 109.688 13.3085L110.322 11.5086C110.921 9.80882 112.088 8.24231 114.588 8.20898L132.819 8.24232Z" fill="white"/>
<path fill-rule="evenodd" clip-rule="evenodd" d="M95.6566 8.24219L98.7896 24.5738C95.9566 24.4405 93.2569 24.5738 90.4238 24.5405L89.6239 20.1076H79.1583L75.5587 24.5738H71.6258L84.6244 8.24219H95.6566ZM15.0651 8.24219L21.0311 20.8075L25.464 8.24219H29.2303L23.3975 24.5738H13.8985L8.09915 12.2418L3.73294 24.5738H0L5.79939 8.24219H15.0651ZM33.6298 8.24219H49.1282C51.8612 8.24219 54.0277 10.8752 52.9611 13.9083L50.328 21.3741C49.5615 23.5072 47.9283 24.5738 46.3618 24.5738H30.6968C27.9304 24.5738 25.9973 21.7074 26.8638 19.1077L29.6969 11.0419C30.3635 9.30874 31.9633 8.24219 33.6298 8.24219ZM37.9293 12.2418L35.1296 20.2409C34.863 21.0408 35.4963 21.8741 36.2295 21.8741H39.9958C40.7291 21.8741 41.7289 21.3408 42.0289 20.5076L44.662 12.975C44.9953 12.0418 44.362 10.9419 43.2288 10.9419H39.8291C39.1959 10.9419 38.2293 11.3085 37.9293 12.2418ZM65.4931 21.4408L76.0587 8.27552H80.0916L66.993 24.6071H57.5273L54.4943 8.27552H63.0267L65.4931 21.4408ZM89.1573 17.6079L87.9908 11.3752L86.1243 11.4085L81.1915 17.6079H89.1573Z" fill="white"/>
<path fill-rule="evenodd" clip-rule="evenodd" d="M98.0564 20.7404L98.7896 24.5733C95.9566 24.44 93.2569 24.5733 90.4238 24.54L89.5906 20.1071H79.125L75.5587 24.5733H71.6258L77.4919 17.2074C83.3579 18.0407 90.1905 19.1739 98.0564 20.7404ZM1.09988 21.4736C2.46641 21.107 3.7996 20.7737 5.16612 20.4737L3.73294 24.5733H0L1.09988 21.4736ZM11.3321 19.1405C14.0652 18.6073 16.7982 18.1406 19.5313 17.7074L20.9978 20.807L22.231 17.3074C23.5309 17.1408 24.8307 16.9741 26.1306 16.8075L23.3642 24.5733H13.8985L11.3321 19.1405ZM27.7971 16.6408C30.7634 16.3075 33.7298 16.0409 36.6628 15.8409L35.0963 20.2738C34.8297 21.0737 35.4629 21.9069 36.1962 21.9069H39.9625C40.6957 21.9069 41.6956 21.3736 41.9956 20.5404L43.7621 15.4743C46.6618 15.3743 49.5615 15.3076 52.4278 15.3076L50.2947 21.407C49.5281 23.5401 47.895 24.6066 46.3285 24.6066H30.6968C27.9304 24.6066 25.9973 21.7403 26.8638 19.1405L27.7971 16.6408ZM55.8275 15.3076C58.1606 15.3409 61.0269 15.4743 64.4599 15.7742L65.4931 21.4403L69.6593 16.2742C70.8259 16.4075 72.0591 16.5408 73.359 16.7075L67.0263 24.6066H57.5606L55.8275 15.3076Z" fill="white"/>
<path fill-rule="evenodd" clip-rule="evenodd" d="M98.5564 1.34284C94.2568 -0.123676 87.0576 2.30939 84.0246 6.54228C87.6575 2.94266 93.5236 1.64281 97.0899 2.84268C102.956 4.84247 103.023 13.7082 98.5897 22.6406C94.1902 31.6063 85.7911 37.2724 79.925 35.2726C76.5587 34.1394 74.7589 30.7397 74.6256 26.3402C74.4256 31.873 76.492 36.2725 80.5916 37.6724C87.1909 39.9388 96.6232 33.6061 101.556 23.6072C106.522 13.6082 105.156 3.60927 98.5564 1.34284Z" fill="white"/>
</svg>
