<svg width="200" height="30" viewBox="0 0 200 30" fill="none" xmlns="http://www.w3.org/2000/svg">
<path fill-rule="evenodd" clip-rule="evenodd" d="M33.4414 10.5828C32.7039 12.664 28.0559 14.838 16.6398 12.2573L18.1246 18.9994C29.5408 21.0743 36.3077 19.3679 40.1726 15.3102C43.0356 12.3028 43.5966 8.41253 41.2442 5.43601C38.7563 2.28478 33.2454 0 26.2855 0C16.3297 0 9.23557 2.88443 5.29699 13.7078L0 28.2598H9.2654L14.5358 13.5424C16.6979 7.48921 21.2422 6.4869 26.2855 6.4869C31.5739 6.4869 34.127 8.66498 33.4414 10.5828ZM125.182 16.9698L124.823 16.8153C126.896 15.9888 129.147 15.5417 131.383 15.5417C132.74 15.5417 135.757 15.7718 137.029 16.4994C137.339 16.6734 137.622 16.9466 137.47 17.2865C136.909 18.5523 128.644 18.4815 125.182 16.9698ZM142.107 13.5669C139.916 12.3962 136.306 11.4625 132.775 11.3183C125.45 11.0163 117.1 13.5154 115.436 19.4206C114.476 22.8174 117.767 27.406 126.339 28.7077C130.628 29.3656 137.442 29.1989 142.347 27.5785L144.178 22.537C134.232 25.9548 121.233 24.9624 121.668 19.8432C126.481 22.93 133.502 22.6373 138.7 21.7855C147.706 20.3159 147.575 16.4886 142.107 13.5669ZM156.934 16.8153L157.289 16.9698C160.755 18.4815 169.016 18.5523 169.578 17.2865C169.73 16.9466 169.447 16.6734 169.138 16.4994C167.865 15.7718 164.852 15.5417 163.49 15.5417C161.258 15.5417 159.006 15.9888 156.934 16.8153ZM164.883 11.3183C168.413 11.4625 172.027 12.3962 174.214 13.5669C179.686 16.4886 179.813 20.3159 170.808 21.7855C165.612 22.6373 158.591 22.93 153.779 19.8432C153.346 24.9624 166.343 25.9548 176.289 22.537L174.457 27.5785C169.554 29.1989 162.735 29.3656 158.447 28.7077C149.879 27.406 146.586 22.8174 147.543 19.4206C149.211 13.5154 157.562 11.0163 164.883 11.3183ZM180.977 17.9008L177.302 28.2633H185.784L188.612 20.2896C189.307 18.2668 189.897 16.7541 192.37 16.7541H198.33L200 11.9796H189.022C185.349 11.9796 182.389 13.8008 180.977 17.9008ZM47.6687 28.2633H38.8871L44.8224 11.9796H53.604L47.6687 28.2633ZM95.8712 19.5015C96.6876 17.2612 99.1563 16.224 101.318 16.224C103.461 16.224 105.513 17.4868 104.719 19.6679L101.583 28.2633H110.065L113.248 19.5323C114.899 14.9979 111.323 11.2419 103.313 11.2419C94.3972 11.2419 89.3433 14.1557 87.3954 19.4914L84.2001 28.2633H92.678L95.8712 19.5015ZM75.4045 20.4987C75.8969 18.2584 73.1349 16.5336 69.7072 16.3892C66.2413 16.2384 62.9021 17.7119 62.4271 19.8677C61.9388 22.1069 64.6983 23.8392 68.125 23.9813C71.5919 24.1293 74.9324 22.6586 75.4045 20.4987ZM53.139 19.5564C54.1977 14.7283 62.0685 10.9519 70.9022 11.3269C79.7693 11.6994 85.7362 16.0609 84.6957 20.8118C83.6356 25.6419 75.7619 29.4174 66.9303 29.0416C58.0627 28.6665 52.0955 24.3078 53.139 19.5564Z" fill="white"/>
</svg>
