<svg width="180" height="44" viewBox="0 0 180 44" fill="none" xmlns="http://www.w3.org/2000/svg">
<path fill-rule="evenodd" clip-rule="evenodd" d="M176.643 0.839369C175.603 0.279791 174.524 0 173.405 0C172.286 0 171.207 0.279791 170.168 0.839369C169.088 1.39895 168.289 2.23831 167.689 3.27753C167.09 4.31674 166.81 5.39593 166.81 6.55505C166.81 7.71418 167.09 8.79337 167.689 9.83259C168.289 10.8718 169.088 11.6712 170.128 12.2707C171.167 12.8703 172.246 13.1501 173.405 13.1501C174.564 13.1501 175.643 12.8303 176.683 12.2707C177.722 11.7112 178.561 10.8718 179.121 9.83259C179.72 8.79337 180 7.67421 180 6.55505C180 5.4359 179.72 4.31674 179.121 3.27753C178.521 2.19834 177.682 1.39895 176.643 0.839369ZM170.687 1.83862C171.566 1.35898 172.486 1.11916 173.405 1.11916C174.324 1.11916 175.204 1.35898 176.043 1.83862C176.922 2.31825 177.602 2.99774 178.082 3.87707C178.601 4.75641 178.841 5.67572 178.841 6.635C178.841 7.5543 178.601 8.47361 178.122 9.35294C177.642 10.2323 176.962 10.9118 176.083 11.3914C175.204 11.871 174.284 12.1109 173.365 12.1109C172.446 12.1109 171.526 11.871 170.647 11.3914C169.768 10.9118 169.088 10.2323 168.609 9.35294C168.129 8.47361 167.889 7.59427 167.889 6.635C167.889 5.67572 168.169 4.75641 168.649 3.87707C169.128 2.99774 169.808 2.31825 170.687 1.83862ZM170.487 3.15762V10.2323H171.566V7.23455H172.246C172.646 7.23455 172.965 7.31448 173.165 7.47436C173.485 7.67421 173.885 8.23379 174.364 9.11313L175.004 10.2323H176.403L175.523 8.83334C175.124 8.19382 174.764 7.71418 174.484 7.43439C174.324 7.31449 174.125 7.19457 173.885 7.07466C174.524 7.03469 175.004 6.83485 175.364 6.43515C175.723 6.03545 175.923 5.59578 175.923 5.07617C175.923 4.71644 175.843 4.35672 175.603 4.03696C175.404 3.7172 175.084 3.47737 174.724 3.35747C174.364 3.23756 173.765 3.15762 172.925 3.15762H170.487ZM173.045 6.2353H171.646V4.1169H172.965C173.525 4.1169 173.925 4.15687 174.125 4.23681C174.324 4.31675 174.484 4.43665 174.604 4.59653C174.724 4.75641 174.764 4.95626 174.764 5.15611C174.764 5.51584 174.644 5.75566 174.404 5.95551C174.165 6.15535 173.725 6.2353 173.045 6.2353ZM135.613 16.9022C137.037 14.4654 139.624 12.366 143.111 12.1036C148.134 11.7287 151.208 14.278 152.895 17.4646H135.388C135.206 17.3736 135.392 17.1601 135.529 17.0024L135.529 17.0022C135.562 16.965 135.591 16.9309 135.613 16.9022ZM145.697 0.519384H142.361C136.138 1.1567 131.939 3.74347 128.527 7.26747C126.915 8.9545 125.491 11.0164 124.441 13.4907C123.391 15.965 122.641 18.9267 122.716 22.0383C122.866 28.4115 125.228 33.1726 128.64 36.6592C131.939 39.9957 136.363 42.8449 142.548 43.3323H145.435C148.172 43.1073 150.609 42.4325 152.708 41.4953C152.732 41.485 152.757 41.4742 152.784 41.4629C152.84 41.4398 152.901 41.4145 152.967 41.3873L152.968 41.3867C153.576 41.1364 154.561 40.7306 154.657 40.4081C154.7 40.2794 154.645 40.0281 154.583 39.7453C154.536 39.5337 154.486 39.3045 154.47 39.096C154.294 37.6897 154.132 36.2834 153.972 34.8945C153.756 33.0252 153.544 31.1874 153.308 29.4237C150.871 30.9608 146.86 32.1604 142.998 31.4856C139.399 30.8483 136.587 28.9363 135.35 26.2371C141.553 26.1417 147.862 26.1525 154.171 26.1634C157.777 26.1696 161.382 26.1758 164.967 26.1621C166.542 18.7392 163.842 12.4035 160.693 8.46713C157.282 4.23083 152.483 1.19419 145.697 0.519384ZM54.0644 22.9461C53.6895 19.7595 54.9267 17.2103 56.3138 15.5232C57.6259 13.9112 60.0627 12.4116 62.8369 12.1867C67.6731 11.7743 70.8597 14.1361 72.5092 17.2103C73.109 18.2975 73.5214 19.4596 73.6714 20.9592C73.9713 24.0708 72.8466 26.4701 71.3095 28.2696C69.81 29.9941 67.6731 31.3438 64.8989 31.6062C62.0872 31.8686 59.238 30.8564 57.476 29.3568C55.6765 27.8198 54.4018 25.6829 54.0644 22.9461ZM65.4987 0.527486H62.1621C55.9389 1.16481 51.6651 3.71408 48.2911 7.23809C45.0295 10.7246 42.4052 15.7107 42.4802 22.0089C42.5552 29.9567 46.4916 35.5801 51.1777 39.0666C53.9894 41.2035 57.7009 42.9655 62.3496 43.3404H65.2738C71.4595 42.7405 75.8083 40.2288 79.2198 36.7048C82.5938 33.2182 84.9932 28.607 85.2181 22.0839C85.3306 18.9348 84.5433 15.9356 83.4936 13.4988C82.4064 10.987 81.0568 8.92511 79.4447 7.2006C76.0332 3.60162 71.6844 1.16481 65.4987 0.527486ZM98.6103 26.4683C98.4746 27.4377 98.3189 28.3771 98.1638 29.3123C98.019 30.1854 97.8748 31.0548 97.7481 31.9418C98.5589 31.8593 99.5661 31.8978 100.596 31.9371C102.376 32.005 104.225 32.0756 105.246 31.5294C105.921 31.1545 106.446 30.3297 106.671 29.355C106.858 28.5677 107.008 27.4056 106.446 26.8057C105.89 26.2505 104.595 26.2643 103.403 26.2771C103.227 26.279 103.053 26.2809 102.884 26.2809H98.7603C98.6974 26.3018 98.6814 26.3463 98.6664 26.3879C98.6546 26.4207 98.6434 26.4518 98.6103 26.4683ZM101.047 11.5475C100.907 12.3721 100.775 13.2049 100.643 14.0343C100.493 14.9773 100.344 15.916 100.185 16.8335C101.01 16.7522 101.976 16.7898 102.954 16.8278C105.13 16.9125 107.366 16.9995 108.245 15.7838C108.845 14.9591 109.332 13.1221 108.545 12.1474C107.73 11.1596 105.874 11.2454 103.973 11.3333C102.989 11.3789 101.992 11.425 101.122 11.3226C101.047 11.3601 101.047 11.4726 101.047 11.5475ZM89.5379 2.25017H112.894C113.065 2.25017 113.233 2.24957 113.399 2.24898H113.4H113.4C114.546 2.24489 115.586 2.24118 116.568 2.43762C119.717 2.99996 122.304 4.57452 123.316 7.34873C124.028 9.26069 123.916 11.9974 123.203 14.0968C121.891 17.8833 119.042 20.395 114.956 21.3698C118.93 22.0071 121.291 24.1815 121.291 28.6802C121.291 30.6671 120.767 32.4666 120.204 33.9662C118.442 38.6899 114.431 40.9392 108.545 41.5016C106.974 41.647 105.358 41.6345 103.696 41.6215H103.696H103.695H103.695C103.216 41.6178 102.733 41.614 102.247 41.614H83.0522C83.997 36.0255 84.9007 30.4028 85.8043 24.7809C87.0162 17.2409 88.2279 9.70249 89.5379 2.25017ZM22.3812 16.9678H17.0202C17.2826 15.0559 17.545 13.1814 17.9199 11.4569H23.6933C23.8653 11.4569 24.0371 11.4559 24.2078 11.455C26.1577 11.4439 27.9688 11.4337 28.417 12.8815C28.8293 14.1936 27.9671 15.9931 27.2173 16.443C26.3382 16.9965 24.7804 16.9844 23.1334 16.9717H23.1333C22.884 16.9698 22.6326 16.9678 22.3812 16.9678ZM0 41.3359V41.7483H12.8963C13.3541 39.1733 13.7731 36.5595 14.1927 33.9414L14.1927 33.9414C14.5979 31.4137 15.0037 28.8821 15.4456 26.3777H20.0943C20.6941 31.5137 21.2565 36.6498 21.7813 41.8233H36.927L36.927 41.8232C35.8023 36.0873 34.6777 30.3515 33.5155 24.6906C37.5644 23.1536 40.7135 20.2669 42.3255 16.218C43.1878 14.0062 43.6002 11.2694 42.8879 8.9451C41.5757 4.67131 37.5644 2.75935 32.2409 2.38446C30.3106 2.24852 28.2226 2.27031 26.0913 2.29256C25.2836 2.30099 24.4697 2.30948 23.6558 2.30948H6.41068C5.21954 9.15856 4.1125 16.0707 3.00606 22.9791C2.02308 29.1166 1.04058 35.2512 0 41.3359ZM161.807 27.2665C165.594 26.8916 168.105 28.9535 169.343 31.3528C170.055 32.7024 170.28 33.6397 170.167 35.5516C169.867 39.3381 166.456 42.3747 162.557 42.3372C160.158 42.3372 158.733 41.5499 157.421 40.2753C155.996 38.8882 154.759 37.0512 154.984 34.0521C155.059 33.0773 155.434 32.0276 155.734 31.3903C156.409 30.0032 157.608 28.7286 159.07 27.9788C159.82 27.6414 160.757 27.3789 161.807 27.2665Z" fill="white"/>
</svg>
