<svg width="200" height="27" viewBox="0 0 200 27" fill="none" xmlns="http://www.w3.org/2000/svg">
<g clip-path="url(#clip0_137_2888)">
<path d="M107.563 5.49334H110.65V21.4664H106.716L102.14 14.1184C101.357 12.8349 100.69 11.468 100.69 11.468H100.645V21.4664H97.5453V5.49334H101.178L106.6 14.1954C106.963 14.7682 107.274 15.3716 107.531 15.9987V5.49334H107.563ZM125.314 12.0327H119.936V5.48692H116.015V21.46H119.936V14.6446H125.314V21.46H129.254V5.48692H125.314V12.0327ZM67.9095 14.5163H73.005V12.1162H67.9095V7.95765H74.7313V5.49334H63.9756V21.4664H74.8468V18.8031H67.9095V14.5227V14.5163ZM53.7526 9.12562C53.6616 9.01939 53.6039 8.88873 53.5867 8.74993C53.5695 8.61113 53.5936 8.47033 53.6558 8.3451C53.7181 8.21986 53.8159 8.11573 53.9369 8.04569C54.058 7.97565 54.197 7.9428 54.3366 7.95123H60.1829V5.49334H53.2649C52.377 5.46509 51.5131 5.78469 50.8574 6.38407C50.2017 6.98344 49.8059 7.81519 49.7545 8.70207C49.7545 9.63902 49.8251 10.3193 51.2305 11.7953L56.4351 17.2501C56.5724 17.3698 56.6695 17.5289 56.7131 17.7058C56.7567 17.8826 56.7448 18.0686 56.6788 18.2385C56.6129 18.4083 56.4961 18.5536 56.3446 18.6546C56.193 18.7557 56.014 18.8076 55.8319 18.8031H49.4144V21.4664H56.756C57.2609 21.4836 57.7641 21.3993 58.236 21.2187C58.7078 21.038 59.1386 20.7646 59.5029 20.4146C59.8673 20.0647 60.1578 19.6452 60.3572 19.181C60.5567 18.7168 60.6611 18.2174 60.6642 17.7122C60.6642 16.6533 60.4139 15.9474 59.0213 14.5034L53.7526 9.12562ZM89.1 15.9795C88.843 15.3524 88.5316 14.749 88.1694 14.1762L82.7467 5.47409H79.1144V21.4664H82.2012V11.4872H82.2461C82.2461 11.4872 82.8879 12.8734 83.6965 14.1377L88.2785 21.4856H92.2124V5.49334H89.1256V15.9859L89.1 15.9795ZM175.8 14.5163H180.895V12.1162H175.8V7.95765H182.622V5.49334H171.866V21.4664H182.737V18.8031H175.8V14.5227V14.5163ZM200 21.4664H195.732L192.665 14.9078H190.945V21.4664H187.018V5.49334H194.179C197.632 5.49334 199.236 7.64319 199.236 10.1267C199.236 11.0783 198.939 12.006 198.387 12.7811C197.835 13.5562 197.055 14.1403 196.156 14.4521L200 21.4664ZM195.874 10.2294C195.874 9.49142 195.444 7.95765 193.371 7.95765H190.939V12.5012H193.326C195.482 12.5012 195.874 10.9097 195.874 10.2294ZM161.592 9.13204C161.501 9.02581 161.443 8.89514 161.426 8.75634C161.408 8.61754 161.432 8.47675 161.495 8.35151C161.557 8.22628 161.655 8.12215 161.776 8.05211C161.897 7.98207 162.036 7.94921 162.176 7.95765H168.022V5.49334H161.078C160.19 5.46509 159.326 5.78469 158.671 6.38407C158.015 6.98344 157.619 7.81519 157.568 8.70207C157.568 9.63902 157.638 10.3193 159.044 11.7953L164.248 17.2501C164.397 17.3654 164.506 17.5251 164.558 17.7061C164.61 17.8872 164.603 18.0801 164.538 18.2568C164.472 18.4335 164.353 18.5849 164.196 18.6889C164.039 18.7929 163.853 18.8442 163.664 18.8352H157.228V21.4985H164.569C165.074 21.5156 165.577 21.4314 166.049 21.2508C166.521 21.0701 166.952 20.7967 167.316 20.4467C167.681 20.0967 167.971 19.6773 168.17 19.2131C168.37 18.7489 168.474 18.2495 168.477 17.7443C168.477 16.6854 168.227 15.9795 166.835 14.5355L161.592 9.13204ZM138.546 14.5227H143.642V12.1162H138.553V7.95765H145.375V5.49334H134.619V21.4664H145.49V18.8031H138.553V14.5227H138.546ZM149.764 21.4728H153.698V5.49334H149.764V21.4664V21.4728ZM0 0V26.9533H35.9378V0H0ZM19.7786 2.48355C17.6416 3.30499 15.588 5.11471 13.9323 8.74699C13.451 9.79946 12.5461 11.8338 12.1354 12.7451C8.80475 20.0546 7.09771 21.6268 2.07284 21.6268V2.0215H19.6888C19.7462 2.01809 19.8029 2.03565 19.8483 2.07091C19.8938 2.10617 19.9249 2.15674 19.9359 2.21321C19.9469 2.26968 19.937 2.32822 19.9081 2.37794C19.8791 2.42766 19.8331 2.46519 19.7786 2.48355ZM33.897 5.32007V24.9318H16.249C16.1922 24.9334 16.1367 24.9146 16.0926 24.8788C16.0485 24.843 16.0187 24.7926 16.0086 24.7367C15.9985 24.6807 16.0088 24.6231 16.0376 24.5741C16.0664 24.5251 16.1118 24.4881 16.1656 24.4698C18.3026 23.6483 20.3562 21.8386 22.0119 18.2063C22.4932 17.1539 23.398 15.1195 23.8088 14.2082C27.133 6.89876 28.84 5.32649 33.8649 5.32649L33.897 5.32007Z" fill="white"/>
</g>
<defs>
<clipPath id="clip0_137_2888">
<rect width="200" height="26.9533" fill="white"/>
</clipPath>
</defs>
</svg>
