<svg width="200" height="36" viewBox="0 0 200 36" fill="none" xmlns="http://www.w3.org/2000/svg">
<path d="M99.166 0.259766L96.5626 21.4332H92.5585L95.2008 0.259766H80.0519L78.208 14.9035C78.0049 16.9135 77.6304 20.4989 78.427 22.9999C80.1985 28.6059 84.8984 30.6141 84.8984 30.6141L85.4477 30.9126C87.4153 31.9175 89.6725 32.2425 91.7108 32.2425H93.1237C96.8805 32.2319 99.9431 31.4036 102.444 30.1513C102.449 30.1372 102.596 30.0877 102.596 30.0877C103.412 29.602 108.045 27.207 110.927 21.541C111.998 19.4021 112.084 18.9482 112.683 15.4899L114.537 0.259766" fill="white"/>
<path d="M52.6866 30.923L54.006 20.1737H58.5823L58.667 20.1261L57.3388 30.923H72.1998L75.9654 0.257812H61.1027L59.801 10.8834L59.7744 10.871H55.1787L55.1364 10.8834L56.431 0.257812H41.5665L37.8203 30.923H52.6866Z" fill="white"/>
<path d="M196.592 1.58961V2.65817H197.115C197.677 2.65817 197.933 2.52924 197.933 2.1442C197.933 1.74327 197.677 1.58961 197.098 1.58961H196.592ZM198.567 2.08238C198.567 2.54337 198.29 2.86129 197.82 2.95666L198.546 4.44205H197.857L197.202 3.04673H196.592V4.44205H195.983V1.1816H197.202C198.113 1.1816 198.567 1.49246 198.567 2.08238ZM198.91 1.11625C198.433 0.634075 197.82 0.372677 197.142 0.372677C196.467 0.372677 195.861 0.630548 195.406 1.08977C194.923 1.58254 194.648 2.21308 194.648 2.86835C194.648 3.51655 194.911 4.13649 195.384 4.60984C195.851 5.08849 196.474 5.35343 197.115 5.35343C197.786 5.35343 198.399 5.09556 198.903 4.61691C199.371 4.16476 199.618 3.55717 199.618 2.8913C199.618 2.19718 199.376 1.58254 198.91 1.11625ZM199.175 0.860158C199.701 1.39179 200 2.1071 200 2.86835C200 3.65255 199.713 4.36257 199.169 4.88007C198.599 5.42937 197.88 5.73493 197.136 5.73493C196.365 5.73493 195.658 5.42937 195.112 4.86948C194.57 4.32195 194.273 3.62252 194.273 2.86835C194.273 2.11064 194.59 1.38119 195.142 0.808936C195.669 0.280835 196.352 0 197.136 0C197.903 0 198.62 0.300265 199.175 0.860158Z" fill="white"/>
<path d="M187.942 22.8606L169.953 22.8465L170.508 18.7806H188.449L189.406 10.9633L171.578 10.9774L172.081 7.29487H189.855L190.718 0.25293H157.727L154.917 23.1308L143.631 17.3782C143.631 17.3782 146.747 16.488 148.449 15.3029C150.224 14.0577 150.971 12.8231 151.307 12.2473C151.934 11.1894 152.616 9.9601 152.692 7.64812C152.776 5.26901 151.522 3.56107 150.853 2.7804C150.177 1.97147 148.52 0.222908 145.6 0.259999H118.602L117.733 7.18712H139.108L138.597 10.928H117.289L114.829 30.9216H127.806L129.068 20.7694L153.439 35.4732L153.979 30.9287H186.955L187.942 22.8606Z" fill="white"/>
<path d="M11.408 0.253906C9.42455 0.260971 7.6654 0.94273 6.2542 2.05015L6.18706 2.06251C6.16941 2.06251 6.16942 2.05015 6.16942 2.05015V2.06251C1.66378 5.5773 0.687063 13.2798 7.08077 16.4449C7.93564 16.8546 22.0672 22.5896 22.0672 22.5896L22.0937 22.6072L1.02438 22.6107L0 30.9438L25.8751 30.9332C29.8138 30.9367 32.5285 29.4425 34.406 26.7861C35.0825 25.8783 35.5382 24.9757 35.8419 24.0555C36.824 21.1642 36.6332 17.8773 34.6815 16.293C34.2594 15.9697 33.8991 15.6713 33.5123 15.4434C33.2474 15.2862 32.8058 15.0107 32.4278 14.8252C29.0685 13.2392 14.7073 7.1616 14.7073 7.1616L36.9194 7.151L37.7724 0.260962L11.408 0.253906Z" fill="white"/>
</svg>
