<svg width="200" height="37" viewBox="0 0 200 37" fill="none" xmlns="http://www.w3.org/2000/svg">
<path fill-rule="evenodd" clip-rule="evenodd" d="M167.105 36.6266H158.067L162.348 12.1296H171.386L167.105 36.6266Z" fill="#FEFEFE"/>
<path fill-rule="evenodd" clip-rule="evenodd" d="M4.307 1.427H15.0096L13.4636 10.4647L12.3934 16.7673L11.442 22.8321C10.8475 26.0429 13.2258 28.6591 16.5555 28.6591C20.0041 28.6591 23.2149 26.0429 23.8095 22.8321L24.8797 16.7673L25.95 10.4647L27.4959 1.427H38.1985L34.0363 25.5672C34.0363 25.8051 33.9174 26.0429 33.9174 26.3997C32.6093 33.6536 20.9554 36.6265 15.2474 36.6265C9.18261 36.6265 -0.568615 34.1293 0.0259718 26.8753C0.0259718 26.6375 0.0259718 26.5186 0.0259718 26.2807L4.307 1.427Z" fill="#FEFEFE"/>
<path fill-rule="evenodd" clip-rule="evenodd" d="M86.1226 1.427H95.1603L89.2145 36.6265H80.1768L86.1226 1.427Z" fill="#FEFEFE"/>
<path fill-rule="evenodd" clip-rule="evenodd" d="M40.458 12.1296H49.4957L48.9011 16.0539C49.6146 14.9837 51.2795 13.9134 53.1822 13.081C55.2038 12.2486 57.3443 11.8918 59.247 12.3675C60.4361 12.6053 61.6253 13.3188 62.4577 14.1512C64.0037 15.4593 64.955 17.7188 64.3604 21.2863L63.528 25.5673L61.7442 36.6266H52.7065L53.7768 30.324V30.2051L54.847 23.6646C55.4416 20.0971 54.3713 17.2431 52.3497 17.2431C50.3282 17.2431 48.1876 20.0971 47.5931 23.6646L46.4039 30.2051C46.4039 30.324 46.4039 30.324 46.4039 30.324L45.3336 36.6266H36.2959L40.458 12.1296Z" fill="#FEFEFE"/>
<path fill-rule="evenodd" clip-rule="evenodd" d="M127.029 12.1296H133.808L133.332 15.1026C134.759 13.3188 136.899 12.2486 138.921 12.1296C139.04 12.1296 139.04 12.1296 139.159 12.1296C139.278 12.1296 139.397 12.1296 139.516 12.1296C141.894 12.2486 143.916 13.5566 144.51 16.1728C145.937 13.6756 148.434 12.3675 150.813 12.1296C150.813 12.1296 150.932 12.1296 151.051 12.1296C151.17 12.1296 151.288 12.1296 151.407 12.1296C154.499 12.2486 157.234 14.6269 156.402 19.3836L155.807 22.8322L153.429 36.6266H146.651L149.029 22.2376C149.386 20.6917 148.434 19.3836 147.007 19.3836C145.58 19.3836 144.272 20.6917 143.916 22.3565V22.8322L141.537 36.6266H134.759L137.137 22.2376C137.494 20.6917 136.543 19.3836 135.116 19.3836C133.689 19.3836 132.381 20.6917 132.143 22.3565L132.024 22.8322L129.645 36.6266H122.867L127.029 12.1296Z" fill="#FEFEFE"/>
<path fill-rule="evenodd" clip-rule="evenodd" d="M118.706 36.6266H109.668L110.382 32.5834C109.549 33.7726 107.884 34.8429 106.101 35.6753C104.079 36.5077 101.938 36.8645 100.036 36.3888C98.7277 36.032 97.6574 35.4374 96.7061 34.605C95.1602 33.178 94.3277 31.0375 94.9223 27.47L95.6358 23.189L97.5385 12.1296H106.576L105.506 18.4323C105.506 18.4323 105.506 18.4323 105.506 18.5512L104.317 25.0916C103.722 28.6592 104.911 31.5132 106.933 31.5132C108.955 31.5132 110.976 28.6592 111.571 25.0916L112.76 18.5512C112.76 18.4323 112.76 18.4323 112.76 18.4323L113.83 12.1296H122.868L118.706 36.6266Z" fill="#FEFEFE"/>
<path fill-rule="evenodd" clip-rule="evenodd" d="M176.023 12.1296H185.061L184.348 16.0539C185.18 14.9837 186.845 13.9134 188.629 13.081C190.769 12.2486 192.791 11.8918 194.812 12.3675C196.002 12.6053 197.191 13.3188 198.023 14.1512C199.569 15.4593 200.402 17.7188 199.807 21.2863L199.093 25.5673L197.191 36.6266H188.153L189.223 30.324V30.2051L190.412 23.6646C191.007 20.0971 189.818 17.2431 187.796 17.2431C185.894 17.2431 183.753 20.0971 183.158 23.6646L181.969 30.2051C181.969 30.324 181.969 30.324 181.969 30.324L180.899 36.6266H171.861L176.023 12.1296Z" fill="#FEFEFE"/>
<path fill-rule="evenodd" clip-rule="evenodd" d="M75.4196 36.6266H66.3818L70.6629 12.1296H79.7006L75.4196 36.6266Z" fill="#FEFEFE"/>
<path fill-rule="evenodd" clip-rule="evenodd" d="M162.824 9.39447L163.776 3.80536C164.251 1.42701 166.748 0 169.365 0C171.505 0 173.17 1.66484 172.813 3.80536L171.862 9.39447H162.824Z" fill="#FEFEFE"/>
<path fill-rule="evenodd" clip-rule="evenodd" d="M71.1387 9.39447L72.09 3.80536C72.5657 1.42701 75.0629 0 77.6791 0C79.8196 0 81.4845 1.66484 81.1277 3.80536L80.1764 9.39447H71.1387Z" fill="#FEFEFE"/>
</svg>
